<?xml version="1.0" encoding="utf-8"?>
<!-- Generator: Adobe Illustrator 18.0.0, SVG Export Plug-In . SVG Version: 6.00 Build 0)  -->
<!DOCTYPE svg PUBLIC "-//W3C//DTD SVG 1.1//EN" "http://www.w3.org/Graphics/SVG/1.1/DTD/svg11.dtd" [
	<!ENTITY ns_flows "http://ns.adobe.com/Flows/1.0/">
	<!ENTITY ns_extend "http://ns.adobe.com/Extensibility/1.0/">
	<!ENTITY ns_ai "http://ns.adobe.com/AdobeIllustrator/10.0/">
	<!ENTITY ns_graphs "http://ns.adobe.com/Graphs/1.0/">
]>
<svg version="1.1" id="Layer_1" xmlns:x="&ns_extend;" xmlns:i="&ns_ai;" xmlns:graph="&ns_graphs;"
	 xmlns="http://www.w3.org/2000/svg" xmlns:xlink="http://www.w3.org/1999/xlink" xmlns:a="http://ns.adobe.com/AdobeSVGViewerExtensions/3.0/"
	 x="0px" y="0px" viewBox="0 0 150 100" enable-background="new 0 0 150 100" xml:space="preserve">
<g>
	<path fill="#716558" d="M21.4,75.6v-5.7h-0.6v3.9c-0.3,0.9-1.2,1.9-2.4,1.9c-0.7,0-1-0.3-1.2-0.7c-0.2-0.4-0.3-1-0.3-1.7v-3.5h-0.6
		v3.5c0,0.7,0.1,1.3,0.4,1.9c0.3,0.6,0.9,0.9,1.7,0.9l0,0c0.9,0,1.8-0.5,2.4-1.2v0.5c0,0.3,0.2,0.6,0.6,0.7h0.2v-0.6L21.4,75.6
		L21.4,75.6z M29.4,69.8c-0.9,0-1.9,0.5-2.5,1.2v-1.1h-0.6v6.3h0.6v-3.9c0.3-0.9,1.3-1.9,2.5-1.9c0.7,0,0.9,0.3,1.1,0.7
		c0.2,0.4,0.3,1,0.3,1.6v3.5h0.5v-3.5c0-0.7,0-1.3-0.3-1.9C30.8,70.2,30.3,69.8,29.4,69.8z M40.8,74.6c-0.1,0.7-1.2,1.1-1.9,1.1
		c-1.3,0-2.5-1.2-2.5-2.7c0-1.3,0.9-2.7,2.4-2.7c0.9,0,1.5,0.3,2,1.1l0.1,0.1l0.6-0.2l-0.1-0.2c-0.4-0.9-1.1-1.4-2.5-1.4
		c-1.7,0-2.9,1.6-2.9,3.2c0,1.6,1.2,3.2,3,3.2c0.9,0,2.1-0.5,2.5-1.5l0.1-0.2l-0.8-0.2V74.6z M51,75.6v-5.7h-0.6v3.9
		c-0.3,0.9-1.2,1.9-2.4,1.9c-0.7,0-1-0.3-1.2-0.7c-0.2-0.4-0.3-1-0.3-1.7v-3.5h-0.6v3.5c0,0.7,0.1,1.3,0.4,1.9
		c0.3,0.6,0.9,0.9,1.7,0.9l0,0c0.9,0,1.8-0.5,2.4-1.2v0.5c0,0.3,0.2,0.6,0.6,0.7h0.2v-0.6L51,75.6L51,75.6z M58.4,75.5L58.4,75.5
		h-0.2c-0.1,0-0.4,0.3-0.9,0.3c-0.3,0-0.6-0.2-0.7-0.6v-4.7h1.4v-0.6h-1.4v-2.1h-0.6v2.1h-0.9v0.6h0.9v4.7c0,0.7,0.6,1,1.2,1
		c0.4,0,0.7-0.1,0.9-0.2c0.2-0.1,0.3-0.2,0.4-0.2l0.1-0.1l-0.2-0.1L58.4,75.5z M74.9,75.6v-8.1h-0.6v3.4c-0.6-0.7-1.3-1.1-2.3-1.1
		c-1.7,0-2.9,1.5-2.9,3.2c0,1.6,1.2,3.2,3,3.2c0.9,0,1.6-0.4,2.2-1v0.3c0,0.3,0.2,0.6,0.6,0.7h0.2v-0.6L74.9,75.6L74.9,75.6z
		 M74.3,74c0,0.4-0.3,0.9-0.8,1.1c-0.5,0.3-0.9,0.5-1.4,0.5c-1.3,0-2.5-1.2-2.5-2.7c0-1.3,0.9-2.7,2.4-2.7l0,0c0.9,0,2,0.8,2.3,1.6
		V74z M80.3,67.6h-0.6v1h0.6V67.6z M79.7,76.1h0.6v-6.3h-0.6V76.1z M89.6,75.6v-3.3c0-0.7-0.2-1.3-0.6-1.7c-0.4-0.5-0.9-0.8-1.7-0.8
		s-1.5,0.4-2.2,0.8L85,70.6l0.4,0.5l0.1-0.1c0.7-0.5,1.3-0.7,1.8-0.7c1,0,1.8,0.8,1.8,1.9v0.5c-0.4-0.1-1-0.3-1.8-0.3
		c-0.6,0-1.1,0.1-1.7,0.4c-0.5,0.3-0.9,0.8-0.9,1.5c0,1.1,0.9,2,2.1,2c0.9,0,1.7-0.3,2.4-0.9v0.1c0,0.3,0.2,0.6,0.6,0.7h0.2v-0.6
		L89.6,75.6L89.6,75.6z M89.1,74.3c0,0.1,0,0.2-0.2,0.4c-0.4,0.7-1.3,0.9-2.2,0.9c-0.8,0-1.5-0.6-1.5-1.4c0-0.5,0.3-0.8,0.7-1
		c0.4-0.2,0.9-0.3,1.4-0.3l0,0c0.6,0,1.2,0.1,1.8,0.3V74.3z M101.5,69.8c-1,0-1.8,0.6-2.3,1.4c-0.2-0.8-0.9-1.4-1.9-1.4
		c-0.9,0-1.6,0.5-2.2,1.2v-1.1h-0.6v6.3h0.6v-3.9c0.3-0.9,1-1.9,2.2-1.9c0.6,0,0.9,0.2,1.1,0.6s0.3,0.9,0.3,1.7v3.5h0.6v-3.9
		c0-0.1,0-0.2,0.1-0.4c0.1-0.2,0.2-0.5,0.4-0.7c0.4-0.6,0.9-0.9,1.7-0.9c0.7,0,0.9,0.3,1.2,0.7c0.2,0.4,0.3,1,0.3,1.6v3.5h0.6v-3.5
		c0-0.7,0-1.3-0.3-1.9C102.9,70.2,102.4,69.8,101.5,69.8z M111.2,69.8c-1.7,0-3,1.5-3,3.2c0,1.6,1.2,3.2,3,3.2c1.7,0,3-1.5,3-3.2
		C114.1,71.5,113,69.8,111.2,69.8z M111.2,75.7c-1.4,0-2.4-1.2-2.5-2.7c0-1.2,0.9-2.7,2.5-2.7c1.3,0,2.5,1.3,2.5,2.7
		C113.6,74.3,112.6,75.7,111.2,75.7z M121.5,69.8c-0.9,0-1.8,0.5-2.5,1.2v-1.1h-0.6v6.3h0.6v-3.9c0.3-0.9,1.3-1.9,2.5-1.9
		c0.7,0,0.9,0.3,1.1,0.7c0.2,0.4,0.2,1,0.2,1.6v3.5h0.6v-3.5c0-0.7,0-1.3-0.3-1.9C123,70.2,122.4,69.8,121.5,69.8z M133.5,75.6
		L133.5,75.6v-8.2h-0.6v3.5c-0.6-0.7-1.3-1.1-2.3-1.1c-1.7,0-2.9,1.5-2.9,3.2c0,1.6,1.2,3.2,3,3.2c0.9,0,1.6-0.4,2.2-1v0.3
		c0,0.3,0.2,0.6,0.6,0.7h0.2v-0.6C133.7,75.6,133.5,75.6,133.5,75.6z M132.9,74c0,0.4-0.3,0.9-0.8,1.1c-0.5,0.3-0.9,0.5-1.4,0.5
		c-1.3,0-2.5-1.2-2.5-2.7c0-1.3,0.9-2.7,2.4-2.7l0,0c0.9,0,2,0.8,2.3,1.6L132.9,74L132.9,74z"/>
	<g>
		<path fill="#716558" d="M78.8,39.6c-1.2-3.3-3.5-4.9-7.6-4.9c0,0-0.4,0-0.6,0c-0.9,0-2.8,0.2-4.7,1c-2.5,1.2-3.7,4.1-3.7,8.4v8.5
			c0,2.4,0.5,4.2,1.4,5.6c1.6,2.2,3.5,3.2,5.7,3.2c0,0,3,0.3,5.4-0.7c0.3-0.1,0.6-0.3,0.9-0.4c2.5-1.5,3.6-3.8,3.6-6.8V43.4
			C79.3,41.9,79.1,40.7,78.8,39.6z M76.6,53.3c0,0.8-0.1,1.6-0.4,2.5c-0.9,2.1-2.3,3-4.8,3h-1c-3.8,0-5.3-2-5.3-6v-9.8
			c0-0.9,0.1-1.8,0.3-2.6c0.8-2.2,2.3-3.3,5.5-3.3c4.2,0,5.8,1.7,5.8,5.2C76.6,42.4,76.6,53.3,76.6,53.3z"/>
		<g>
			<polygon fill="#716558" points="131,35.4 131,35.4 131,57.3 133.7,61.3 133.7,39.4 			"/>
			<polygon fill="#716558" points="131,24.2 131,24.2 131,29.2 133.7,33.2 133.7,28.2 			"/>
		</g>
		<path fill="#716558" d="M124.5,39.6c-1.3-3-3.5-4.7-7.2-4.7h-1.6c-1.9,0-3.3,0.6-4.8,1.8V28l-2.6-4l0,0v33.1l2.6,4V43.3
			c0-1.4,0.3-2.6,0.9-3.6c0.7-1.4,2.3-2.2,5.7-2.2c1.1,0.1,1.7,0.3,2.2,0.6c1.9,0.9,2.8,2.8,2.8,5.7v13.6l2.6,4V43.1
			C125.1,41.9,124.9,40.8,124.5,39.6z"/>
		<path fill="#716558" d="M53.8,42.8v14.4l2.7,4.2c0,0,0,0,0-0.1V43.6c0-1.6-0.2-3-0.6-4.1c-1.3-3-3.5-4.7-7.4-4.7h-0.6
			c-2.8,0-5.1,0.9-6.5,2.8l-1.9-2.5v21.7l2.6,4V43.5c0-4.1,1.8-6.1,5.1-6.1h0.9C52.2,37.5,53.8,39.2,53.8,42.8z"/>
		<path fill="#716558" d="M19.1,61.3L19.1,61.3V45.8h11.5v11l2.8,4.5l0,0V33.1V29c-2.1-2.1-2.7-2.8-5-5.2h-3.8h-8.4V57L19.1,61.3z
			 M19.1,26.4h8.1l3.4,3.5v12.9H19.1V26.4z"/>
		<path fill="#716558" d="M99.8,47.9l-0.2-0.2l0,0l-0.9-0.7c2.3-1.4,3.4-3.9,3.4-7.4v-4.4l-2.5,3.2c0,1.9-0.2,3.4-0.6,4.3
			c-0.6,1.2-1.4,2.1-2.6,2.6c-0.7,0.3-1.6,0.4-2.6,0.4h-6.1V28.3l-2.7-4v32.6l2.6,4V48.4h8.4l3.3,2.7v5.1c0,0.4,0,0.8,0,1.1l2.6,4
			v-0.1v0.1v-9.9v-1.6L99.8,47.9z"/>
	</g>
</g>
</svg>
