<?xml version="1.0" encoding="utf-8"?>
<!-- Generator: Adobe Illustrator 18.0.0, SVG Export Plug-In . SVG Version: 6.00 Build 0)  -->
<!DOCTYPE svg PUBLIC "-//W3C//DTD SVG 1.1//EN" "http://www.w3.org/Graphics/SVG/1.1/DTD/svg11.dtd">
<svg version="1.1" id="Layer_1" xmlns="http://www.w3.org/2000/svg" xmlns:xlink="http://www.w3.org/1999/xlink" x="0px" y="0px"
	 viewBox="0 0 150 100" enable-background="new 0 0 150 100" xml:space="preserve">
<g>
	<g>
		<path fill="#6D6E70" d="M52.3,52.1c1.5,0.7,3.1,1.1,4.8,1.1v0h0c0,0,0,0,0.1,0c0,0,0,0,0.1,0h0v0c1.7,0,3.3-0.4,4.8-1.1
			c1.5-0.7,2.8-1.8,3.8-3.1l0.2-0.3V37.4l-0.2-0.3c-1-1.3-2.3-2.3-3.8-3.1c-1.5-0.7-3.1-1.1-4.8-1.1h0c0,0,0,0-0.1,0c0,0,0,0-0.1,0
			h0c-1.7,0-3.3,0.4-4.8,1.1c-1.5,0.7-2.8,1.8-3.8,3.1l-0.2,0.3v11.4l0.2,0.3C49.5,50.4,50.8,51.4,52.3,52.1z M50.6,38.2
			c1.7-2,3.9-3,6.7-3h0v0c2.7,0,4.9,1,6.5,3v9.8c-1.7,2-3.9,3-6.7,3h0v0c-2.7,0-4.9-1-6.5-3V38.2z"/>
		<path fill="#6D6E70" d="M23.4,48.7V37.4L23.2,37c-1-1.3-2.3-2.3-3.8-3c-1.6-0.7-3.2-1.1-4.9-1.1c-1.8,0-3.5,0.4-5.1,1.1
			c-1.6,0.8-2.9,1.8-3.8,3.2l-0.7,0.9l1.9,1.4l0.7-0.9c0.8-1.1,1.8-1.9,3-2.4c1.2-0.6,2.6-0.9,4-0.9c2.8,0,5,1,6.7,2.9v2.1
			c-2-1.4-4.2-2.2-6.7-2.2c-1.8,0-3.5,0.4-5.1,1.1C7.8,40,6.5,41,5.5,42.4l-0.2,0.3v6L5.5,49c1,1.3,2.2,2.4,3.8,3.1
			c1.6,0.7,3.3,1.1,5.1,1.1c1.7,0,3.4-0.4,4.9-1.1c1.5-0.7,2.8-1.8,3.8-3.1L23.4,48.7z M21.1,47.9c-1.7,2-3.9,3-6.7,3
			c-2.9,0-5.2-1-6.8-3v-4.5c1.7-2,3.9-3,6.8-3c2.8,0,5,1,6.7,3V47.9z"/>
		<path fill="#6D6E70" d="M40.8,34.6c-1.6-0.7-3.2-1.1-4.9-1.1c-1.8,0-3.5,0.4-5.1,1.1c-1.6,0.8-2.9,1.8-3.8,3.1l-0.2,0.3v19.7h2.3
			v-6.2c2,1.4,4.2,2.2,6.8,2.2c1.7,0,3.4-0.4,4.9-1.1c1.5-0.7,2.8-1.8,3.8-3.1l0.2-0.3V38l-0.2-0.3C43.7,36.4,42.4,35.3,40.8,34.6z
			 M42.6,48.5c-1.7,2-3.9,3-6.7,3c-2.9,0-5.2-1-6.8-3v-9.6c1.6-2,3.9-3,6.8-3c2.7,0,5,1,6.7,3V48.5z"/>
		<g>
			<rect x="10.5" y="62.4" fill="#6D6E70" width="0.8" height="4.7"/>
			<polygon fill="#6D6E70" points="49.7,67 50.6,67 50.6,65.1 52.6,65.1 52.6,64.4 50.6,64.4 50.6,63.1 52.7,63.1 52.7,62.4 
				49.7,62.4 			"/>
			<path fill="#6D6E70" d="M8.2,62.9c-0.2-0.2-0.5-0.3-0.8-0.4c-0.3-0.1-0.6-0.1-0.9-0.1H4.8V67h1.7c0.3,0,0.6,0,0.9-0.1
				c0.3-0.1,0.6-0.2,0.8-0.4c0.2-0.2,0.4-0.4,0.6-0.7c0.2-0.3,0.2-0.6,0.2-1.1c0-0.4-0.1-0.8-0.2-1.1C8.7,63.3,8.5,63,8.2,62.9z
				 M8,65.5c-0.1,0.2-0.2,0.4-0.4,0.5c-0.2,0.1-0.4,0.2-0.6,0.3c-0.2,0.1-0.4,0.1-0.7,0.1H5.7v-3.2h0.7c0.2,0,0.4,0,0.7,0.1
				c0.2,0,0.4,0.1,0.6,0.2c0.2,0.1,0.3,0.3,0.4,0.5c0.1,0.2,0.2,0.5,0.2,0.8C8.2,65,8.1,65.3,8,65.5z"/>
			<path fill="#6D6E70" d="M58.3,62.9c-0.2-0.2-0.5-0.4-0.8-0.5c-0.3-0.1-0.6-0.2-1-0.2c-0.4,0-0.7,0.1-1,0.2
				c-0.3,0.1-0.6,0.3-0.8,0.5c-0.2,0.2-0.4,0.5-0.5,0.8c-0.1,0.3-0.2,0.6-0.2,1c0,0.4,0.1,0.7,0.2,1c0.1,0.3,0.3,0.6,0.5,0.8
				c0.2,0.2,0.5,0.4,0.8,0.5c0.3,0.1,0.6,0.2,1,0.2c0.4,0,0.7-0.1,1-0.2c0.3-0.1,0.6-0.3,0.8-0.5c0.2-0.2,0.4-0.5,0.5-0.8
				c0.1-0.3,0.2-0.6,0.2-1c0-0.4-0.1-0.7-0.2-1C58.7,63.4,58.5,63.1,58.3,62.9z M58,65.4c-0.1,0.2-0.2,0.4-0.3,0.5
				c-0.1,0.2-0.3,0.3-0.5,0.4c-0.2,0.1-0.4,0.1-0.7,0.1c-0.2,0-0.5,0-0.7-0.1c-0.2-0.1-0.4-0.2-0.5-0.4c-0.1-0.2-0.3-0.3-0.3-0.5
				c-0.1-0.2-0.1-0.4-0.1-0.7c0-0.2,0-0.5,0.1-0.7c0.1-0.2,0.2-0.4,0.3-0.5c0.1-0.2,0.3-0.3,0.5-0.4C56,63,56.2,63,56.5,63
				c0.2,0,0.5,0,0.7,0.1c0.2,0.1,0.4,0.2,0.5,0.4c0.1,0.2,0.3,0.3,0.3,0.5c0.1,0.2,0.1,0.4,0.1,0.7C58.1,64.9,58,65.2,58,65.4z"/>
			<polygon fill="#6D6E70" points="20.9,65.7 20.9,65.7 19.7,62.4 18.4,62.4 18.4,67 19.2,67 19.2,63.3 19.2,63.3 20.6,67 21.2,67 
				22.6,63.3 22.6,63.3 22.6,67 23.4,67 23.4,62.4 22.1,62.4 			"/>
			<path fill="#6D6E70" d="M14.5,62.4l-2,4.7h0.9l0.4-1.1h2l0.4,1.1h1l-2-4.7H14.5z M14.1,65.2l0.7-1.9l0.7,1.9H14.1z"/>
			<polygon fill="#6D6E70" points="34.7,65.9 34.7,65.9 32.5,62.4 31.4,62.4 31.4,67 32.2,67 32.2,63.4 32.3,63.4 34.5,67 35.5,67 
				35.5,62.4 34.7,62.4 			"/>
			<path fill="#6D6E70" d="M29.2,62.9c-0.2-0.2-0.5-0.4-0.8-0.5c-0.3-0.1-0.6-0.2-1-0.2c-0.4,0-0.7,0.1-1,0.2
				c-0.3,0.1-0.6,0.3-0.8,0.5c-0.2,0.2-0.4,0.5-0.5,0.8c-0.1,0.3-0.2,0.6-0.2,1c0,0.4,0.1,0.7,0.2,1c0.1,0.3,0.3,0.6,0.5,0.8
				c0.2,0.2,0.5,0.4,0.8,0.5c0.3,0.1,0.6,0.2,1,0.2c0.4,0,0.7-0.1,1-0.2c0.3-0.1,0.6-0.3,0.8-0.5c0.2-0.2,0.4-0.5,0.5-0.8
				c0.1-0.3,0.2-0.6,0.2-1c0-0.4-0.1-0.7-0.2-1C29.6,63.4,29.5,63.1,29.2,62.9z M28.9,65.4c-0.1,0.2-0.2,0.4-0.3,0.5
				c-0.1,0.2-0.3,0.3-0.5,0.4c-0.2,0.1-0.4,0.1-0.7,0.1c-0.2,0-0.5,0-0.7-0.1c-0.2-0.1-0.4-0.2-0.5-0.4c-0.1-0.2-0.3-0.3-0.3-0.5
				c-0.1-0.2-0.1-0.4-0.1-0.7c0-0.2,0-0.5,0.1-0.7c0.1-0.2,0.2-0.4,0.3-0.5c0.1-0.2,0.3-0.3,0.5-0.4C27,63,27.2,63,27.4,63
				c0.2,0,0.5,0,0.7,0.1c0.2,0.1,0.4,0.2,0.5,0.4c0.1,0.2,0.2,0.3,0.3,0.5c0.1,0.2,0.1,0.4,0.1,0.7C29,64.9,29,65.2,28.9,65.4z"/>
			<path fill="#6D6E70" d="M40.6,62.9c-0.2-0.2-0.5-0.3-0.8-0.4c-0.3-0.1-0.6-0.1-0.9-0.1h-1.7V67h1.7c0.3,0,0.6,0,0.9-0.1
				c0.3-0.1,0.6-0.2,0.8-0.4c0.2-0.2,0.4-0.4,0.6-0.7c0.2-0.3,0.2-0.6,0.2-1.1c0-0.4-0.1-0.8-0.2-1.1C41.1,63.3,40.9,63,40.6,62.9z
				 M40.4,65.5c-0.1,0.2-0.3,0.4-0.4,0.5c-0.2,0.1-0.4,0.2-0.6,0.3c-0.2,0.1-0.4,0.1-0.7,0.1h-0.7v-3.2h0.7c0.2,0,0.4,0,0.7,0.1
				c0.2,0,0.4,0.1,0.6,0.2c0.2,0.1,0.3,0.3,0.4,0.5c0.1,0.2,0.2,0.5,0.2,0.8C40.6,65,40.5,65.3,40.4,65.5z"/>
			<path fill="#6D6E70" d="M63.5,64.5c0.2-0.2,0.3-0.5,0.3-0.8c0-0.2-0.1-0.5-0.1-0.6c-0.1-0.2-0.2-0.3-0.4-0.4
				c-0.2-0.1-0.3-0.2-0.6-0.2c-0.2,0-0.4-0.1-0.6-0.1h-1.6V67h0.8v-2h0.6l1.1,2h1L62.7,65C63.1,64.9,63.3,64.7,63.5,64.5z
				 M62.3,64.3c-0.1,0-0.2,0-0.4,0h-0.7v-1.3H62c0.1,0,0.2,0,0.3,0c0.1,0,0.2,0.1,0.3,0.1c0.1,0,0.2,0.1,0.2,0.2
				c0.1,0.1,0.1,0.2,0.1,0.3c0,0.1,0,0.3-0.1,0.3c-0.1,0.1-0.1,0.2-0.2,0.2C62.5,64.3,62.4,64.3,62.3,64.3z"/>
			<path fill="#6D6E70" d="M45.4,64.7c-0.1-0.1-0.3-0.2-0.4-0.2c-0.2-0.1-0.3-0.1-0.5-0.2c-0.1,0-0.3-0.1-0.4-0.1
				c-0.1,0-0.2-0.1-0.3-0.1c-0.1-0.1-0.1-0.1-0.2-0.2c0-0.1-0.1-0.2-0.1-0.3c0-0.1,0-0.2,0.1-0.3c0.1-0.1,0.1-0.1,0.2-0.2
				c0.1,0,0.2-0.1,0.3-0.1c0.1,0,0.2,0,0.3,0c0.2,0,0.3,0,0.5,0.1c0.2,0.1,0.3,0.2,0.4,0.3l0.5-0.6c-0.2-0.2-0.4-0.3-0.6-0.4
				c-0.2-0.1-0.5-0.1-0.7-0.1c-0.2,0-0.4,0-0.6,0.1c-0.2,0.1-0.4,0.1-0.5,0.3c-0.2,0.1-0.3,0.3-0.4,0.4c-0.1,0.2-0.1,0.4-0.1,0.6
				c0,0.2,0,0.4,0.1,0.6c0.1,0.1,0.2,0.3,0.3,0.4c0.1,0.1,0.2,0.2,0.4,0.2c0.1,0.1,0.3,0.1,0.4,0.2c0.1,0,0.3,0.1,0.4,0.1
				c0.1,0,0.2,0.1,0.3,0.2c0.1,0.1,0.2,0.1,0.2,0.2c0.1,0.1,0.1,0.2,0.1,0.3c0,0.1,0,0.2-0.1,0.3c-0.1,0.1-0.1,0.2-0.2,0.2
				c-0.1,0.1-0.2,0.1-0.3,0.1c-0.1,0-0.2,0-0.3,0c-0.2,0-0.4,0-0.6-0.1c-0.2-0.1-0.3-0.2-0.5-0.4l-0.6,0.6c0.2,0.2,0.4,0.4,0.7,0.5
				c0.3,0.1,0.6,0.2,0.9,0.2c0.2,0,0.4,0,0.7-0.1c0.2-0.1,0.4-0.2,0.5-0.3c0.2-0.1,0.3-0.3,0.4-0.5c0.1-0.2,0.1-0.4,0.1-0.7
				c0-0.2,0-0.4-0.1-0.6C45.7,64.9,45.6,64.8,45.4,64.7z"/>
		</g>
		<path fill="#6D6E70" d="M100.8,32.8h-1.2c-3.7,0-6.6,1.4-8.8,4.1l-0.2,0.3v15.9h2.3V38.1c1.7-2,3.9-3,6.7-3h1.2V32.8z"/>
		<path fill="#6D6E70" d="M140.7,52.1c1.5-0.7,2.8-1.8,3.8-3.1l0.3-0.3V37.4l-0.3-0.3c-1-1.3-2.3-2.3-3.8-3
			c-1.6-0.7-3.2-1.1-4.9-1.1c-1.8,0-3.5,0.4-5.1,1.1c-1.6,0.8-2.9,1.8-3.8,3.2l-0.7,0.9l1.9,1.4l0.7-0.9c0.8-1.1,1.8-1.9,3-2.4
			c1.3-0.6,2.6-0.9,4-0.9c2.7,0,5,1,6.7,2.9v2.1c-2-1.4-4.2-2.2-6.7-2.2c-1.8,0-3.5,0.4-5.1,1.1c-1.6,0.7-2.9,1.8-3.8,3.1l-0.2,0.3
			v6l0.2,0.3c1,1.3,2.2,2.4,3.8,3.1c1.6,0.7,3.3,1.1,5.1,1.1C137.5,53.2,139.1,52.8,140.7,52.1z M128.9,47.9v-4.5c1.7-2,3.9-3,6.8-3
			c2.7,0,5,1,6.7,3v4.6c-1.7,2-3.9,3-6.7,3C132.8,50.9,130.6,49.9,128.9,47.9z"/>
		<polygon fill="#6D6E70" points="123.7,32.9 121.1,32.9 113.7,47.9 106.4,32.9 103.8,32.9 113.7,53.2 		"/>
		<g>
			<path fill="#6D6E70" d="M125.6,64.7c-0.1-0.1-0.3-0.2-0.4-0.2c-0.2-0.1-0.3-0.1-0.5-0.2c-0.1,0-0.3-0.1-0.4-0.1
				c-0.1,0-0.2-0.1-0.3-0.1c-0.1-0.1-0.1-0.1-0.2-0.2c0-0.1-0.1-0.2-0.1-0.3c0-0.1,0-0.2,0.1-0.3c0.1-0.1,0.1-0.1,0.2-0.2
				c0.1,0,0.2-0.1,0.3-0.1c0.1,0,0.2,0,0.3,0c0.2,0,0.3,0,0.5,0.1c0.2,0.1,0.3,0.2,0.4,0.3l0.5-0.6c-0.2-0.2-0.4-0.3-0.6-0.4
				c-0.2-0.1-0.5-0.1-0.7-0.1c-0.2,0-0.4,0-0.6,0.1c-0.2,0.1-0.4,0.1-0.5,0.3c-0.2,0.1-0.3,0.3-0.4,0.4c-0.1,0.2-0.1,0.4-0.1,0.6
				c0,0.2,0,0.4,0.1,0.6c0.1,0.1,0.2,0.3,0.3,0.4c0.1,0.1,0.2,0.2,0.4,0.2c0.1,0.1,0.3,0.1,0.4,0.2c0.1,0,0.3,0.1,0.4,0.1
				c0.1,0,0.2,0.1,0.3,0.2c0.1,0.1,0.2,0.1,0.2,0.2c0.1,0.1,0.1,0.2,0.1,0.3c0,0.1,0,0.2-0.1,0.3c-0.1,0.1-0.1,0.2-0.2,0.2
				c-0.1,0.1-0.2,0.1-0.3,0.1c-0.1,0-0.2,0-0.3,0c-0.2,0-0.4,0-0.6-0.1c-0.2-0.1-0.3-0.2-0.5-0.4l-0.6,0.6c0.2,0.2,0.4,0.4,0.7,0.5
				c0.3,0.1,0.6,0.2,0.9,0.2c0.2,0,0.4,0,0.7-0.1c0.2-0.1,0.4-0.2,0.5-0.3c0.2-0.1,0.3-0.3,0.4-0.5c0.1-0.2,0.1-0.4,0.1-0.7
				c0-0.2,0-0.4-0.1-0.6C125.9,64.9,125.8,64.8,125.6,64.7z"/>
			<path fill="#6D6E70" d="M115.6,66.3c-0.2,0.1-0.4,0.1-0.7,0.1c-0.2,0-0.5,0-0.7-0.1c-0.2-0.1-0.4-0.2-0.5-0.4
				c-0.1-0.2-0.2-0.3-0.3-0.5c-0.1-0.2-0.1-0.4-0.1-0.7c0-0.2,0-0.5,0.1-0.7c0.1-0.2,0.2-0.4,0.3-0.5c0.1-0.2,0.3-0.3,0.5-0.4
				c0.2-0.1,0.4-0.1,0.7-0.1c0.2,0,0.4,0,0.6,0.1c0.2,0.1,0.4,0.2,0.5,0.4l0.6-0.5c-0.1-0.1-0.2-0.2-0.3-0.3
				c-0.1-0.1-0.3-0.2-0.4-0.2c-0.2-0.1-0.3-0.1-0.5-0.1c-0.2,0-0.3,0-0.5,0c-0.4,0-0.7,0.1-1,0.2c-0.3,0.1-0.6,0.3-0.8,0.5
				c-0.2,0.2-0.4,0.5-0.5,0.8c-0.1,0.3-0.2,0.6-0.2,1c0,0.4,0.1,0.7,0.2,1c0.1,0.3,0.3,0.6,0.5,0.8c0.2,0.2,0.5,0.4,0.8,0.5
				c0.3,0.1,0.7,0.2,1,0.2c0.4,0,0.8-0.1,1.1-0.2c0.3-0.1,0.6-0.3,0.8-0.6l-0.7-0.5C115.9,66,115.8,66.2,115.6,66.3z"/>
			<path fill="#6D6E70" d="M119.3,62.4l-2,4.7h0.9l0.4-1.1h2l0.4,1.1h0.9l-2-4.7H119.3z M118.9,65.2l0.7-1.9l0.7,1.9H118.9z"/>
			<path fill="#6D6E70" d="M105.3,62.9c-0.2-0.2-0.5-0.4-0.8-0.5c-0.3-0.1-0.6-0.2-1-0.2c-0.4,0-0.7,0.1-1,0.2
				c-0.3,0.1-0.6,0.3-0.8,0.5c-0.2,0.2-0.4,0.5-0.5,0.8c-0.1,0.3-0.2,0.6-0.2,1c0,0.4,0.1,0.7,0.2,1c0.1,0.3,0.3,0.6,0.5,0.8
				c0.2,0.2,0.5,0.4,0.8,0.5c0.3,0.1,0.6,0.2,1,0.2c0.4,0,0.7-0.1,1-0.2c0.3-0.1,0.6-0.3,0.8-0.5c0.2-0.2,0.4-0.5,0.5-0.8
				c0.1-0.3,0.2-0.6,0.2-1c0-0.4-0.1-0.7-0.2-1C105.7,63.4,105.5,63.1,105.3,62.9z M104.9,65.4c-0.1,0.2-0.2,0.4-0.3,0.5
				c-0.1,0.2-0.3,0.3-0.5,0.4c-0.2,0.1-0.4,0.1-0.7,0.1c-0.2,0-0.5,0-0.7-0.1c-0.2-0.1-0.4-0.2-0.5-0.4c-0.1-0.2-0.3-0.3-0.3-0.5
				c-0.1-0.2-0.1-0.4-0.1-0.7c0-0.2,0-0.5,0.1-0.7c0.1-0.2,0.2-0.4,0.3-0.5c0.1-0.2,0.3-0.3,0.5-0.4c0.2-0.1,0.4-0.1,0.7-0.1
				c0.2,0,0.5,0,0.7,0.1c0.2,0.1,0.4,0.2,0.5,0.4c0.1,0.2,0.3,0.3,0.3,0.5c0.1,0.2,0.1,0.4,0.1,0.7C105.1,64.9,105,65.2,104.9,65.4z
				"/>
			<path fill="#6D6E70" d="M110.4,66.3c-0.2,0.1-0.4,0.1-0.7,0.1c-0.2,0-0.5,0-0.7-0.1c-0.2-0.1-0.4-0.2-0.5-0.4
				c-0.1-0.2-0.2-0.3-0.3-0.5c-0.1-0.2-0.1-0.4-0.1-0.7c0-0.2,0-0.5,0.1-0.7c0.1-0.2,0.2-0.4,0.3-0.5c0.1-0.2,0.3-0.3,0.5-0.4
				c0.2-0.1,0.4-0.1,0.7-0.1c0.2,0,0.4,0,0.6,0.1c0.2,0.1,0.4,0.2,0.5,0.4l0.6-0.5c-0.1-0.1-0.2-0.2-0.3-0.3
				c-0.1-0.1-0.3-0.2-0.4-0.2c-0.1-0.1-0.3-0.1-0.5-0.1c-0.2,0-0.3,0-0.5,0c-0.4,0-0.7,0.1-1,0.2c-0.3,0.1-0.6,0.3-0.8,0.5
				c-0.2,0.2-0.4,0.5-0.5,0.8c-0.1,0.3-0.2,0.6-0.2,1c0,0.4,0.1,0.7,0.2,1c0.1,0.3,0.3,0.6,0.5,0.8c0.2,0.2,0.5,0.4,0.8,0.5
				c0.3,0.1,0.6,0.2,1,0.2c0.4,0,0.8-0.1,1.1-0.2c0.3-0.1,0.6-0.3,0.8-0.6l-0.7-0.5C110.7,66,110.6,66.2,110.4,66.3z"/>
			<path fill="#6D6E70" d="M145,65.1c-0.1-0.2-0.2-0.3-0.3-0.4c-0.1-0.1-0.3-0.2-0.4-0.2c-0.2-0.1-0.3-0.1-0.5-0.2
				c-0.1,0-0.3-0.1-0.4-0.1c-0.1,0-0.2-0.1-0.3-0.1c-0.1-0.1-0.1-0.1-0.2-0.2c0-0.1-0.1-0.2-0.1-0.3c0-0.1,0-0.2,0.1-0.3
				c0.1-0.1,0.1-0.1,0.2-0.2c0.1,0,0.2-0.1,0.3-0.1c0.1,0,0.2,0,0.3,0c0.2,0,0.3,0,0.5,0.1c0.2,0.1,0.3,0.2,0.4,0.3l0.5-0.6
				c-0.2-0.2-0.4-0.3-0.6-0.4c-0.2-0.1-0.5-0.1-0.7-0.1c-0.2,0-0.4,0-0.6,0.1c-0.2,0.1-0.4,0.1-0.5,0.3c-0.2,0.1-0.3,0.3-0.4,0.4
				c-0.1,0.2-0.2,0.4-0.2,0.6c0,0.2,0,0.4,0.1,0.6c0.1,0.1,0.2,0.3,0.3,0.4c0.1,0.1,0.2,0.2,0.4,0.2c0.1,0.1,0.3,0.1,0.4,0.2
				c0.1,0,0.3,0.1,0.4,0.1c0.1,0,0.2,0.1,0.3,0.2c0.1,0.1,0.2,0.1,0.2,0.2c0.1,0.1,0.1,0.2,0.1,0.3c0,0.1,0,0.2-0.1,0.3
				c-0.1,0.1-0.1,0.2-0.2,0.2c-0.1,0.1-0.2,0.1-0.3,0.1c-0.1,0-0.2,0-0.3,0c-0.2,0-0.4,0-0.6-0.1c-0.2-0.1-0.3-0.2-0.5-0.4l-0.6,0.6
				c0.2,0.2,0.4,0.4,0.7,0.5c0.3,0.1,0.6,0.2,0.9,0.2c0.2,0,0.4,0,0.7-0.1c0.2-0.1,0.4-0.2,0.5-0.3c0.2-0.1,0.3-0.3,0.4-0.5
				c0.1-0.2,0.1-0.4,0.1-0.7C145.2,65.4,145.1,65.2,145,65.1z"/>
			<polygon fill="#6D6E70" points="139.7,65.9 139.7,65.9 137.5,62.4 136.4,62.4 136.4,67 137.2,67 137.2,63.4 137.2,63.4 139.5,67 
				140.5,67 140.5,62.4 139.7,62.4 			"/>
			<path fill="#6D6E70" d="M134.2,62.9c-0.2-0.2-0.5-0.4-0.8-0.5c-0.3-0.1-0.6-0.2-1-0.2c-0.4,0-0.7,0.1-1,0.2
				c-0.3,0.1-0.6,0.3-0.8,0.5c-0.2,0.2-0.4,0.5-0.5,0.8c-0.1,0.3-0.2,0.6-0.2,1c0,0.4,0.1,0.7,0.2,1c0.1,0.3,0.3,0.6,0.5,0.8
				c0.2,0.2,0.5,0.4,0.8,0.5c0.3,0.1,0.6,0.2,1,0.2c0.4,0,0.7-0.1,1-0.2c0.3-0.1,0.6-0.3,0.8-0.5c0.2-0.2,0.4-0.5,0.5-0.8
				c0.1-0.3,0.2-0.6,0.2-1c0-0.4-0.1-0.7-0.2-1C134.6,63.4,134.4,63.1,134.2,62.9z M133.9,65.4c-0.1,0.2-0.2,0.4-0.3,0.5
				c-0.1,0.2-0.3,0.3-0.5,0.4c-0.2,0.1-0.4,0.1-0.7,0.1c-0.2,0-0.5,0-0.7-0.1c-0.2-0.1-0.4-0.2-0.5-0.4c-0.1-0.2-0.3-0.3-0.3-0.5
				c-0.1-0.2-0.1-0.4-0.1-0.7c0-0.2,0-0.5,0.1-0.7c0.1-0.2,0.2-0.4,0.3-0.5c0.1-0.2,0.3-0.3,0.5-0.4c0.2-0.1,0.4-0.1,0.7-0.1
				c0.2,0,0.5,0,0.7,0.1c0.2,0.1,0.4,0.2,0.5,0.4c0.1,0.2,0.3,0.3,0.3,0.5c0.1,0.2,0.1,0.4,0.1,0.7C134,64.9,134,65.2,133.9,65.4z"
				/>
			<rect x="127.6" y="62.4" fill="#6D6E70" width="0.8" height="4.7"/>
			<polygon fill="#6D6E70" points="78,65 80.1,65 80.1,64.3 78,64.3 78,63.1 80.3,63.1 80.3,62.4 77.1,62.4 77.1,67 80.4,67 
				80.4,66.3 78,66.3 			"/>
			<path fill="#6D6E70" d="M70.5,64.7c-0.1-0.1-0.3-0.2-0.4-0.2c-0.2-0.1-0.3-0.1-0.5-0.2c-0.1,0-0.3-0.1-0.4-0.1
				c-0.1,0-0.2-0.1-0.3-0.1c-0.1-0.1-0.1-0.1-0.2-0.2c0-0.1-0.1-0.2-0.1-0.3c0-0.1,0-0.2,0.1-0.3c0-0.1,0.1-0.1,0.2-0.2
				c0.1,0,0.2-0.1,0.3-0.1c0.1,0,0.2,0,0.3,0c0.2,0,0.3,0,0.5,0.1c0.2,0.1,0.3,0.2,0.4,0.3l0.5-0.6c-0.2-0.2-0.4-0.3-0.6-0.4
				c-0.2-0.1-0.5-0.1-0.7-0.1c-0.2,0-0.4,0-0.6,0.1c-0.2,0.1-0.4,0.1-0.6,0.3c-0.2,0.1-0.3,0.3-0.4,0.4c-0.1,0.2-0.1,0.4-0.1,0.6
				c0,0.2,0,0.4,0.1,0.6c0.1,0.1,0.2,0.3,0.3,0.4c0.1,0.1,0.2,0.2,0.4,0.2c0.1,0.1,0.3,0.1,0.4,0.2c0.1,0,0.3,0.1,0.4,0.1
				c0.1,0,0.2,0.1,0.3,0.2c0.1,0.1,0.2,0.1,0.2,0.2c0.1,0.1,0.1,0.2,0.1,0.3c0,0.1,0,0.2-0.1,0.3c-0.1,0.1-0.1,0.2-0.2,0.2
				c-0.1,0.1-0.2,0.1-0.3,0.1c-0.1,0-0.2,0-0.3,0c-0.2,0-0.4,0-0.6-0.1c-0.2-0.1-0.3-0.2-0.5-0.4l-0.6,0.6c0.2,0.2,0.4,0.4,0.7,0.5
				c0.3,0.1,0.6,0.2,0.9,0.2c0.2,0,0.4,0,0.7-0.1c0.2-0.1,0.4-0.2,0.5-0.3c0.2-0.1,0.3-0.3,0.4-0.5c0.1-0.2,0.1-0.4,0.1-0.7
				c0-0.2,0-0.4-0.1-0.6C70.7,64.9,70.6,64.8,70.5,64.7z"/>
			<path fill="#6D6E70" d="M75.3,62.7c-0.2-0.1-0.3-0.2-0.6-0.2c-0.2,0-0.5-0.1-0.7-0.1h-1.5V67h0.8v-1.9h0.6c0.3,0,0.5,0,0.7-0.1
				c0.2,0,0.4-0.1,0.6-0.2c0.2-0.1,0.3-0.3,0.4-0.4c0.1-0.2,0.1-0.4,0.1-0.7c0-0.2,0-0.4-0.1-0.6C75.5,62.9,75.4,62.8,75.3,62.7z
				 M74.8,64.1c-0.1,0.1-0.1,0.2-0.2,0.2c-0.1,0-0.2,0.1-0.3,0.1c-0.1,0-0.3,0-0.4,0h-0.6v-1.3h0.6c0.1,0,0.3,0,0.4,0
				c0.1,0,0.2,0,0.3,0.1c0.1,0,0.2,0.1,0.2,0.2c0.1,0.1,0.1,0.2,0.1,0.3C74.9,63.8,74.9,64,74.8,64.1z"/>
			<polygon fill="#6D6E70" points="95.8,62.4 95,62.4 95,67 97.8,67 97.8,66.3 95.8,66.3 			"/>
			<rect x="87.1" y="62.4" fill="#6D6E70" width="0.8" height="4.7"/>
			<path fill="#6D6E70" d="M91.1,62.4l-2,4.7H90l0.4-1.1h2l0.4,1.1h1l-2-4.7H91.1z M90.7,65.2l0.7-1.9l0.7,1.9H90.7z"/>
			<path fill="#6D6E70" d="M84.8,66.3c-0.2,0.1-0.4,0.1-0.7,0.1c-0.2,0-0.5,0-0.7-0.1c-0.2-0.1-0.4-0.2-0.5-0.4
				c-0.1-0.2-0.2-0.3-0.3-0.5c-0.1-0.2-0.1-0.4-0.1-0.7c0-0.2,0-0.5,0.1-0.7c0.1-0.2,0.2-0.4,0.3-0.5c0.1-0.2,0.3-0.3,0.5-0.4
				c0.2-0.1,0.4-0.1,0.7-0.1c0.2,0,0.4,0,0.6,0.1c0.2,0.1,0.4,0.2,0.5,0.4l0.6-0.5c-0.1-0.1-0.2-0.2-0.3-0.3
				c-0.1-0.1-0.3-0.2-0.4-0.2c-0.1-0.1-0.3-0.1-0.5-0.1c-0.2,0-0.3,0-0.5,0c-0.4,0-0.7,0.1-1,0.2c-0.3,0.1-0.6,0.3-0.8,0.5
				c-0.2,0.2-0.4,0.5-0.5,0.8c-0.1,0.3-0.2,0.6-0.2,1c0,0.4,0.1,0.7,0.2,1c0.1,0.3,0.3,0.6,0.5,0.8c0.2,0.2,0.5,0.4,0.8,0.5
				c0.3,0.1,0.6,0.2,1,0.2c0.4,0,0.8-0.1,1.1-0.2c0.3-0.1,0.6-0.3,0.8-0.6l-0.7-0.5C85.1,66,85,66.2,84.8,66.3z"/>
		</g>
		<path fill="#6D6E70" d="M83.2,34c-1.5-0.7-3.1-1.1-4.8-1.1h0c0,0,0,0-0.1,0c0,0,0,0-0.1,0h0c-1.7,0-3.3,0.4-4.8,1.1
			c-1.5,0.7-2.8,1.8-3.8,3.1l-0.2,0.3v11.4l0.2,0.3c1,1.3,2.3,2.3,3.8,3.1c1.5,0.7,3.1,1.1,4.8,1.1v0h0c0,0,0,0,0.1,0c0,0,0,0,0.1,0
			h0v0c1.7,0,3.3-0.4,4.8-1.1c1.5-0.7,2.8-1.8,3.8-3.1l0.2-0.3V37.4l-0.2-0.3C86.1,35.8,84.8,34.7,83.2,34z M85,47.9
			c-1.7,2-3.9,3-6.7,3h0v0c-2.7,0-4.9-1-6.5-3v-9.8c1.7-2,3.9-3,6.7-3h0v0c2.7,0,4.9,1,6.5,3V47.9z"/>
	</g>
</g>
<g>
</g>
<g>
</g>
<g>
</g>
<g>
</g>
<g>
</g>
<g>
</g>
</svg>
