<?xml version="1.0" encoding="utf-8"?>
<!-- Generator: Adobe Illustrator 26.0.1, SVG Export Plug-In . SVG Version: 6.00 Build 0)  -->
<svg version="1.1" id="Layer_1" xmlns="http://www.w3.org/2000/svg" xmlns:xlink="http://www.w3.org/1999/xlink" x="0px" y="0px"
	 viewBox="0 0 200 200" style="enable-background:new 0 0 200 200;" xml:space="preserve">
<g>
	<path d="M185.1,109c-0.8-1.2-2.9-1.6-4.1-0.8c-1.2,0.8-1.6,2.9-0.8,4.1c6.1,8.2,9,18,9,28.2c0,26.6-21.7,47.8-47.8,47.8
		s-47.8-21.7-47.8-47.8s21.7-47.8,47.8-47.8c11.4,0,22.1,4.1,30.6,11.4c1.2,1.2,2.9,0.8,4.1-0.4c1.2-1.2,0.8-2.9-0.4-4.1
		c-9.8-8.2-22.1-12.7-34.7-12.7c-29.4,0-53.5,24.1-53.5,53.5S112,194,141.4,194s53.5-24.1,53.5-53.5C195,129,191.7,118,185.1,109z"
		/>
	<path d="M15.2,28.5C8.6,37.5,5,48.5,5,60c0,29.4,24.1,53.5,53.5,53.5c29.4,0,53.9-24.1,53.9-53.5C112.4,30.5,88.3,6,58.9,6
		C46.2,6,34,10.5,24.2,18.7c-1.2,1.2-1.2,2.9-0.4,4.1c1.2,1.2,2.9,1.2,4.1,0.4c8.6-7.4,19.6-11.4,30.6-11.4
		c26.6,0,47.8,21.7,47.8,47.8c0,26.2-21.7,47.8-47.8,47.8c-26.2,0-47.4-21.2-47.4-47.4c0-10.2,3.3-20,9-28.2
		c0.8-1.2,0.8-3.3-0.8-4.1C18,26.9,16.4,26.9,15.2,28.5z"/>
	<path d="M166.8,68.1c0,1.6,1.2,2.9,2.9,2.9s2.9-1.2,2.9-2.9c0-18.8-13.5-34.3-31.1-37.2l1.2-0.8c1.2-0.8,1.6-2.9,0.8-4.1
		c-0.8-1.2-2.9-1.6-4.1-0.8l-7.8,5.3c-0.8,0.4-1.2,1.2-1.2,2V33c0,0.8,0,1.2,0.4,1.6l5.3,7.4c0.8,1.2,2.9,1.6,4.1,0.4
		c1.2-0.8,1.6-2.9,0.4-4.1l-1.6-2C154.9,38.3,166.8,51.8,166.8,68.1z"/>
	<path d="M64.2,158c-0.8-1.2-2.9-1.6-4.1-0.4c-1.2,0.8-1.6,2.9-0.4,4.1l1.6,2c-15.5-2-27.8-15.5-27.8-31.9c0-1.6-1.2-2.9-2.9-2.9
		c-1.6,0-2.9,1.2-2.9,2.9c0,18.8,13.5,34.3,31.1,37.2l-1.2,0.8c-1.2,0.8-1.6,2.9-0.8,4.1c0.4,0.8,1.6,1.2,2.5,1.2
		c0.4,0,1.2,0,1.6-0.4l7.8-5.3c0.8-0.4,1.2-1.2,1.2-2c0-0.8,0-1.6-0.4-2L64.2,158z"/>
	<path d="M139.8,117.2c-2-1.2-6.1-3.7-6.5-4.5c-0.8-0.8-1.6-2-2-2.9c-1.2-2-2.5-4.5-5.7-4.5c-4.5,0-8.2,3.7-8.2,8.2
		c0,4.1,2.9,7.4,6.9,8.2v2.5c-1.6,0.8-2.9,2.5-2,4.5c0,0,0,0.4,0.4,0.4c-4.1,1.6-6.1,6.5-4.5,10.6c0.8,1.6,2,3.3,3.3,4.1
		c-2,0.4-3.3,2-2.9,4.1c0,0.4,0,0.4,0,0.8c-2,0.4-2.9,2.5-2.5,4.1v0.4c-2,0.4-2.9,2.5-2.5,4.1c0,0.4,0,0.4,0.4,0.8
		c-1.6,1.2-2,3.3-1.2,4.9l0.4,0.4c-1.2,1.2-1.2,3.7,0.4,4.9c0.8,0.4,1.6,0.8,2.5,0.8c-0.8,1.6,0.4,3.7,2,4.5c1.2,0.4,2.9,0,3.7-0.8
		c0.8,1.6,2.9,2.9,4.5,2c0.8-0.4,1.6-1.2,2-2c1.2,1.2,3.7,1.6,4.9,0c0.8-0.8,1.2-2.5,0.8-3.7c2,0,3.7-1.6,3.7-3.7
		c0-0.8-0.4-1.6-0.8-2.5c1.2-1.2,1.2-3.7-0.4-4.9l-0.4-0.4c0.8-1.6,0.4-3.7-1.2-4.9c-0.4,0-0.4-0.4-0.8-0.4c0.8-1.6,0-3.7-2-4.5
		h-0.4c0.8-1.6,0-3.7-2-4.5c-0.4,0-0.4,0-0.8,0c3.7-2.5,5.3-7.4,2.9-11c-0.8-1.6-2.5-2.9-4.1-3.3c0.8-1.6,0.4-3.7-1.2-4.9
		c0,0-0.4,0-0.4-0.4v-3.3c0-0.8-0.4-1.2-1.2-1.2c-3.3,0-5.7-2.5-5.7-5.7s2.5-5.7,5.7-5.7c1.6,0,2.5,1.2,3.7,3.3
		c0.8,1.2,1.2,2.5,2.5,3.3c1.2,1.2,6.5,4.5,7.4,4.9c0.4,0.4,1.2,0,1.6-0.4C140.6,118.4,140.2,117.6,139.8,117.2z M121.8,146.2
		c0.8,0,1.2,0.4,1.2,1.2c0,0.8-0.4,1.2-1.2,1.2c-0.8,0-1.2-0.8-1.2-1.2C120.6,146.6,121,146.2,121.8,146.2z M119.4,150.7
		c0.8,0,1.2,0.4,1.2,1.2c0,0.8-0.4,1.2-1.2,1.2c-0.8,0-1.2-0.4-1.2-1.2C118.1,151.1,119,150.7,119.4,150.7z M114.9,161.3
		c0-0.8,0.4-1.2,1.2-1.2c0.8,0,1.2,0.4,1.2,1.2c0,0.8-0.4,1.2-1.2,1.2C115.3,162.1,114.9,161.7,114.9,161.3z M116.9,155.2
		c0.8,0,1.2,0.4,1.2,1.2s-0.4,1.2-1.2,1.2s-1.2-0.4-1.2-1.2C116.1,156,116.5,155.2,116.9,155.2z M114.9,165.8c0-0.8,0.4-1.2,1.2-1.2
		c0.8,0,1.2,0.4,1.2,1.2s-0.4,1.2-1.2,1.2C115.3,167,114.9,166.6,114.9,165.8z M119.4,171.5c-0.8,0-1.2-0.4-1.2-1.2
		c0-0.8,0.4-1.2,1.2-1.2c0.8,0,1.2,0.4,1.2,1.2C120.6,171.1,120.2,171.5,119.4,171.5z M125.1,172.7c-0.8,0-1.2-0.4-1.2-1.2
		s0.4-1.2,1.2-1.2c0.8,0,1.2,0.4,1.2,1.2S125.9,172.7,125.1,172.7z M131.2,171.5c-0.8,0-1.2-0.4-1.2-1.2c0-0.8,0.4-1.2,1.2-1.2
		c0.8,0,1.2,0.4,1.2,1.2C132,171.1,131.6,171.5,131.2,171.5z M134.5,162.1c-0.8,0-1.2-0.4-1.2-1.2c0-0.8,0.4-1.2,1.2-1.2
		s1.2,0.4,1.2,1.2C135.7,161.7,135.3,162.1,134.5,162.1z M134.5,167c-0.8,0-1.2-0.4-1.2-1.2s0.4-1.2,1.2-1.2s1.2,0.4,1.2,1.2
		S135.3,167,134.5,167z M133.3,157.6c-0.8,0-1.2-0.4-1.2-1.2s0.4-1.2,1.2-1.2c0.8,0,1.2,0.4,1.2,1.2S134.1,157.6,133.3,157.6z
		 M131.2,153.1c-0.8,0-1.2-0.4-1.2-1.2c0-0.8,0.4-1.2,1.2-1.2c0.8,0,1.2,0.4,1.2,1.2C132,152.3,131.6,153.1,131.2,153.1z M130,147.4
		c0,0.8-0.4,1.2-1.2,1.2c-0.8,0-1.2-0.4-1.2-1.2c0-0.8,0.4-1.2,1.2-1.2C129.2,146.2,130,146.6,130,147.4z M127.9,150.7
		c-0.8,1.6,0,3.7,2,4.5h0.4c-0.8,1.6,0,3.3,1.2,4.1c-0.8,1.2-0.4,2.9,0.4,4.1c-0.8,0.8-1.2,2.5-0.8,3.7c-1.6,0-2.9,0.8-3.3,2.5
		c-1.2-1.2-3.7-1.6-4.9,0c-0.4-1.2-1.6-2.5-3.3-2.5c0.4-1.2,0-2.5-0.8-3.7c0.8-1.2,1.2-2.9,0.4-4.1c1.2-0.8,2-2.9,1.2-4.1
		c2-0.4,2.9-2.5,2.5-4.1v-0.4c2-0.4,2.9-2.5,2.5-4.1c0-0.4-0.4-1.2-0.8-1.6c0.8,0,1.2,0,2,0c-1.2,1.2-1.2,3.7,0,4.9
		C126.7,150.3,127.1,150.3,127.9,150.7z M131.2,136.8c0,3.3-2.5,5.7-5.7,5.7s-5.7-2.5-5.7-5.7c0-3.3,2.5-5.7,5.7-5.7
		C128.3,131.1,131.2,133.5,131.2,136.8z M124.3,127.4c0-0.8,0.4-1.2,1.2-1.2c0.8,0,1.2,0.4,1.2,1.2s-0.8,1.2-1.6,1.2
		C124.7,128.6,124.3,128.2,124.3,127.4z"/>
	<path d="M170,117.2c-2-1.2-6.1-3.7-6.5-4.5c-0.8-0.8-1.6-2-2-2.9c-1.2-2-2.5-4.5-5.7-4.5c-4.5,0-8.2,3.7-8.2,8.2
		c0,4.1,2.9,7.4,6.9,8.2v2.5c-1.6,0.8-2.9,2.5-2,4.5c0,0,0,0.4,0.4,0.4c-4.1,1.6-6.1,6.5-4.5,10.6c0.8,1.6,2,3.3,3.3,4.1
		c-2,0.4-3.3,2-2.9,4.1c0,0.4,0,0.4,0,0.8c-2,0.4-2.9,2.5-2.5,4.1v0.4c-2,0.4-2.9,2.5-2.5,4.1c0,0.4,0,0.4,0.4,0.8
		c-1.6,1.2-2,3.3-1.2,4.9l0.4,0.4c-1.2,1.2-1.2,3.7,0.4,4.9c0.8,0.4,1.6,0.8,2.5,0.8c-0.8,1.6,0.4,3.7,2,4.5c1.2,0.4,2.9,0,3.7-0.8
		c0.8,1.6,2.9,2.9,4.5,2c0.8-0.4,1.6-1.2,2-2c1.2,1.2,3.7,1.6,4.9,0c0.8-0.8,1.2-2.5,0.8-3.7c2,0,3.7-1.6,3.7-3.7
		c0-0.8-0.4-1.6-0.8-2.5c1.2-1.2,1.2-3.7-0.4-4.9l-0.4-0.4c0.8-1.6,0.4-3.7-1.2-4.9c-0.4,0-0.4-0.4-0.8-0.4c0.8-1.6,0-3.7-2-4.5
		h-0.4c0.8-1.6,0-3.7-2-4.5c-0.4,0-0.4,0-0.8,0c3.7-2.5,5.3-7.4,2.9-11c-0.8-1.6-2.5-2.9-4.1-3.3c0.8-1.6,0.4-3.7-1.2-4.9
		c0,0-0.4,0-0.4-0.4v-3.3c0-0.8-0.4-1.2-1.2-1.2c-3.3,0-5.7-2.5-5.7-5.7s2.5-5.7,5.7-5.7c1.6,0,2.5,1.2,3.7,3.3
		c0.8,1.2,1.2,2.5,2.5,3.3c1.2,1.2,6.5,4.5,7.4,4.9c0.4,0.4,1.2,0,1.6-0.4C170.8,118.4,170.4,117.6,170,117.2z M152,146.2
		c0.8,0,1.2,0.4,1.2,1.2c0,0.8-0.4,1.2-1.2,1.2s-1.2-0.4-1.2-1.2C150.8,146.6,151.2,146.2,152,146.2z M149.6,150.7
		c0.8,0,1.2,0.4,1.2,1.2c0,0.8-0.4,1.2-1.2,1.2s-1.2-0.4-1.2-1.2C148.4,151.1,148.8,150.7,149.6,150.7z M145.1,161.3
		c0-0.8,0.4-1.2,1.2-1.2c0.8,0,1.2,0.4,1.2,1.2c0,0.8-0.4,1.2-1.2,1.2C145.5,162.1,145.1,161.7,145.1,161.3z M147.1,155.2
		c0.8,0,1.2,0.4,1.2,1.2s-0.4,1.2-1.2,1.2s-1.2-0.4-1.2-1.2C145.9,156,146.7,155.2,147.1,155.2z M145.1,165.8c0-0.8,0.4-1.2,1.2-1.2
		c0.8,0,1.2,0.4,1.2,1.2s-0.4,1.2-1.2,1.2C145.5,167,145.1,166.6,145.1,165.8z M149.6,171.5c-0.8,0-1.2-0.4-1.2-1.2
		c0-0.8,0.4-1.2,1.2-1.2s1.2,0.4,1.2,1.2C150.8,171.1,150.4,171.5,149.6,171.5z M155.3,172.7c-0.8,0-1.2-0.4-1.2-1.2
		s0.4-1.2,1.2-1.2c0.8,0,1.2,0.4,1.2,1.2S156.1,172.7,155.3,172.7z M161,171.5c-0.8,0-1.2-0.4-1.2-1.2c0-0.8,0.4-1.2,1.2-1.2
		c0.8,0,1.2,0.4,1.2,1.2C162.3,171.1,161.9,171.5,161,171.5z M164.7,162.1c-0.8,0-1.2-0.4-1.2-1.2c0-0.8,0.4-1.2,1.2-1.2
		c0.8,0,1.2,0.4,1.2,1.2C165.9,161.7,165.1,162.1,164.7,162.1z M164.7,167c-0.8,0-1.2-0.4-1.2-1.2s0.4-1.2,1.2-1.2
		c0.8,0,1.2,0.4,1.2,1.2S165.1,167,164.7,167z M163.5,157.6c-0.8,0-1.2-0.4-1.2-1.2s0.4-1.2,1.2-1.2c0.8,0,1.2,0.4,1.2,1.2
		S164.3,157.6,163.5,157.6z M161,153.1c-0.8,0-1.2-0.4-1.2-1.2c0-0.8,0.4-1.2,1.2-1.2c0.8,0,1.2,0.4,1.2,1.2
		C162.3,152.3,161.9,153.1,161,153.1z M160.2,147.4c0,0.8-0.4,1.2-1.2,1.2c-0.8,0-1.2-0.4-1.2-1.2c0-0.8,0.4-1.2,1.2-1.2
		C159.4,146.2,160.2,146.6,160.2,147.4z M157.8,150.7c-0.8,1.6,0,3.7,2,4.5h0.4c-0.8,1.6,0,3.3,1.2,4.1c-0.8,1.2-0.4,2.9,0.4,4.1
		c-0.8,0.8-1.2,2.5-0.8,3.7c-1.6,0-2.9,0.8-3.3,2.5c-1.2-1.2-3.7-1.6-4.9,0c-0.4-1.2-1.6-2.5-3.3-2.5c0.4-1.2,0-2.5-0.8-3.7
		c0.8-1.2,1.2-2.9,0.4-4.1c1.2-0.8,2-2.9,1.2-4.1c2-0.4,2.9-2.5,2.5-4.1v-0.4c2-0.4,2.9-2.5,2.5-4.1c0-0.4-0.4-1.2-0.8-1.6
		c0.8,0,1.2,0,2,0c-1.2,1.2-1.2,3.7,0,4.9C157,150.3,157.4,150.3,157.8,150.7z M161,136.8c0,3.3-2.5,5.7-5.7,5.7
		c-3.3,0-5.7-2.5-5.7-5.7c0-3.3,2.5-5.7,5.7-5.7C158.6,131.1,161,133.5,161,136.8z M154.1,127.4c0-0.8,0.4-1.2,1.2-1.2
		c0.8,0,1.2,0.4,1.2,1.2s-0.4,1.2-1.2,1.2C154.9,128.6,154.1,128.2,154.1,127.4z"/>
	<path d="M55.2,40.8c-0.8-0.8-1.2-1.6-2-2.5c-1.6-2-3.3-4.1-4.9-6.1c-0.4-0.4-0.4-0.4,0-0.8c1.2-1.6,2-2.9,3.3-4.5
		c0-0.4,0.4-0.4,0.8-0.4c4.1,0,8.2,0,12.7,0c0.4,0,0.4,0,0.4,0.4c1.2,1.6,2.5,3.3,3.7,4.9c-2.5,2.9-4.5,5.7-6.9,8.6
		c8.2,1.2,14.3,5.3,18.4,12.3c3.3,5.3,4.5,11.4,3.3,18c-2.5,13.1-13.9,22.1-27.4,21.2C43.4,91,32.7,80.4,32.3,66.9
		C32.7,53.8,42.5,42.8,55.2,40.8z M58.9,45.7C47.4,45.7,38,55.1,38,66.5s9.4,20.8,20.4,20.8c11.4,0,20.8-9.4,20.8-20.8
		C79.7,55.1,70.3,45.7,58.9,45.7z M56.8,33c0.8,2.5,1.2,4.9,2,6.9c0.8-2.5,1.2-4.5,2-6.9C59.3,33,58.1,33,56.8,33z M51.5,33
		c2,2.5,3.7,4.5,5.3,6.5c-0.4-2-1.2-4.5-1.6-6.5c0,0,0-0.4-0.4-0.4C53.6,33,52.8,33,51.5,33z M60.9,39.9c2-2,3.7-4.5,5.3-6.5
		c-1.2,0-2,0-3.3,0c-0.4,0-0.4,0-0.4,0.4c-0.4,1.2-0.8,2.5-0.8,3.7C61.3,37.9,60.9,39.1,60.9,39.9z M56.8,28.9c-0.8,0-1.6,0-2.5,0
		c0.4,0.8,0.8,1.2,1.2,1.6C56,30.1,56.4,29.7,56.8,28.9z M61.7,30.9c0.4-0.4,0.8-1.2,1.2-1.6c-0.8,0-1.6,0-2.5,0
		C60.9,29.7,61.3,30.1,61.7,30.9z M51.1,31.4c0.8,0,1.6,0,2.5,0c-0.4-0.4-0.8-1.2-1.2-1.6C51.9,30.1,51.9,30.5,51.1,31.4z
		 M66.2,31.4c-0.4-0.8-0.8-1.2-1.2-1.6c-0.4,0.4-0.8,1.2-1.2,1.6C64.6,31.4,65.4,31.4,66.2,31.4z M57.7,31.4c0.8,0,1.6,0,2.5,0
		c-0.4-0.8-0.8-1.2-1.2-1.6C58.5,30.1,58.1,30.5,57.7,31.4z"/>
</g>
</svg>
