<?xml version="1.0" encoding="utf-8"?>
<!-- Generator: Adobe Illustrator 25.2.0, SVG Export Plug-In . SVG Version: 6.00 Build 0)  -->
<svg version="1.1" id="Layer_1" xmlns="http://www.w3.org/2000/svg" xmlns:xlink="http://www.w3.org/1999/xlink" x="0px" y="0px"
	 viewBox="0 0 200 200" style="enable-background:new 0 0 200 200;" xml:space="preserve">
<style type="text/css">
	.st0{fill:#E30613;}
	.st1{fill:#FFFFFF;}
</style>
<path class="st0" d="M179,199H21c-11.05,0-20-8.95-20-20V21C1,9.95,9.95,1,21,1h158c11.05,0,20,8.95,20,20v158
	C199,190.05,190.05,199,179,199z"/>
<path class="st1" d="M108.26,84.49c6.34,0,12.5,0,18.66,0c3.91,0,5.05,1.28,4.59,5.1c-0.61,5.09-1.21,10.18-1.82,15.28
	c-0.32,2.66-1.37,3.64-4.07,3.65c-5,0.02-10,0.01-15.01,0.01c-0.7,0-1.41,0-2.37,0c0,0.93,0,1.68,0,2.44
	c-0.02,15.79-0.03,31.57-0.05,47.36c0,3.67-0.43,4.08-4.17,4.08c-4.87,0-9.74,0-14.62,0c-3.75,0-4.16-0.41-4.17-4.08
	c0-15.72,0-31.44,0-47.16c0-0.77,0-1.55,0-2.63c-0.78,0-1.47,0-2.15,0c-3.64,0-7.28,0.03-10.91-0.01c-2.5-0.03-3.72-1.25-3.74-3.73
	c-0.04-5.52-0.05-11.04-0.04-16.56c0.01-2.48,1.22-3.68,3.74-3.71c4.28-0.04,8.55-0.01,13.09-0.01c0-0.83-0.01-1.52,0-2.21
	c0.1-6.49-0.1-13.01,0.37-19.47c1.08-14.81,11.65-24.72,26.46-25.13c5.06-0.14,10.13-0.06,15.2-0.03c2.4,0.01,3.6,1.2,3.62,3.61
	c0.04,4.68,0.04,9.35,0,14.03c-0.02,2.4-1.19,3.54-3.63,3.61c-3.44,0.09-6.89-0.02-10.32,0.18c-5.39,0.3-8.37,3.07-8.62,8.4
	C108.06,73.04,108.26,78.62,108.26,84.49z"/>
</svg>
