<?xml version="1.0" encoding="utf-8"?>
<!-- Generator: Adobe Illustrator 26.0.1, SVG Export Plug-In . SVG Version: 6.00 Build 0)  -->
<svg version="1.1" id="svg105" xmlns:svg="http://www.w3.org/2000/svg"
	 xmlns="http://www.w3.org/2000/svg" xmlns:xlink="http://www.w3.org/1999/xlink" x="0px" y="0px" viewBox="0 0 200 200"
	 style="enable-background:new 0 0 200 200;" xml:space="preserve">
<style type="text/css">
	.st0{clip-path:url(#SVGID_00000098220599355327677090000003022003982957462415_);}
</style>
<g id="g113">
	<g>
		<defs>
			<rect id="SVGID_1_" x="5" y="5" width="190" height="190"/>
		</defs>
		<clipPath id="SVGID_00000063619058210196698760000006111268685182422173_">
			<use xlink:href="#SVGID_1_"  style="overflow:visible;"/>
		</clipPath>
		<g id="g115" style="clip-path:url(#SVGID_00000063619058210196698760000006111268685182422173_);">
			<g id="g121" transform="translate(260.8516,224.1953)">
				<g id="path123">
					<path d="M-208.7-77.2c-12.6,0-24.5-4.9-33.4-13.9c-8.9-9-13.7-20.9-13.7-33.5c0.1-12.5,5.1-24.3,14.1-33.1
						c9-8.8,20.9-13.6,33.4-13.5c5.8,0.1,11.5,1.2,16.9,3.3c0.3,0.1,0.5,0.2,0.8,0.3c2.7,1,16.9,7.1,32.4,27.5
						c0.9,1.2,0.7,3-0.5,3.9c-1.2,0.9-3,0.7-3.9-0.5c-14.9-19.7-28.5-25.1-29.9-25.7c-0.3-0.1-0.6-0.2-0.9-0.3
						c-4.7-1.9-9.8-2.9-14.9-2.9c-0.1,0-0.3,0-0.4,0c-10.9,0-21.2,4.2-29,11.9c-7.9,7.8-12.3,18.2-12.4,29.2
						c-0.1,11.1,4.2,21.6,12,29.5c7.8,7.9,18.3,12.2,29.4,12.3l1.8,0c4.9-0.2,9.6-1.2,14.1-3.1c0.2-0.1,0.4-0.1,0.6-0.2
						c0.6-0.1,10.9-2.8,28.4-24.9c0.7-0.8,1.6-1.9,2.7-3.3c1-1.2,2.8-1.3,3.9-0.3c1.2,1,1.3,2.8,0.3,3.9c-1.1,1.3-2,2.4-2.6,3.1
						c-17.9,22.7-29.1,26.3-31.5,26.8c-5,2-10.3,3.2-15.8,3.4c0,0,0,0-0.1,0L-208.7-77.2C-208.7-77.2-208.7-77.2-208.7-77.2z"/>
				</g>
			</g>
			<g id="g125" transform="translate(271.9902,194.6963)">
				<g id="path127">
					<path d="M-123.5-64.8c-9.7,0-17.1-5.4-23-10.6c-6.4-5.7-11.6-11.2-14.4-14.3c-1.4,1.7-2.8,3.4-4.2,5.1c-0.6,0.7-2.7,3.3-4.2,5
						c1.7,2,3.5,3.9,5.2,5.7c1.1,1.1,1.1,2.9,0,3.9c-1.1,1.1-2.9,1.1-3.9,0c-2.2-2.3-4.4-4.7-6.6-7.3c0,0,0,0,0,0l-0.4-0.5
						c-0.8-1-0.8-2.5,0-3.5c0-0.1,4.7-5.6,5.6-6.8c6.3-7.8,13.3-15.7,21.3-24.1c5.5-5.8,13.2-12.4,24.6-12.4
						c16.5,0,29.9,13.4,29.9,29.9C-93.6-78.2-107-64.8-123.5-64.8C-123.5-64.8-123.5-64.8-123.5-64.8z M-157.3-94
						c2.6,2.8,8,8.6,14.5,14.4c5.1,4.6,11.4,9.2,19.3,9.2c0,0,0,0,0,0c13.4,0,24.3-10.9,24.3-24.3c0-13.4-10.9-24.3-24.3-24.3
						c-7.2,0-13.6,3.3-20.6,10.6C-148.9-103.4-153.2-98.7-157.3-94z"/>
				</g>
			</g>
			<g id="g129" transform="translate(504.1831,239.7202)">
				<g id="path131">
					<path d="M-355.9-92.7c-6.2,0-12.2-1.2-17.9-3.5c-1.1-0.4-7.5-2.6-16.5-9.8c-1.2-1-1.4-2.7-0.4-3.9c1-1.2,2.7-1.4,3.9-0.4
						c8.8,7,14.8,8.9,14.8,8.9c0.1,0,0.2,0.1,0.3,0.1c5,2.1,10.4,3.1,15.8,3.1c20.6,0,38.3-15.4,41.1-35.8c0.2-1.5,1.6-2.6,3.1-2.4
						c1.5,0.2,2.6,1.6,2.4,3.1c-1.5,11.2-7,21.4-15.5,28.9C-333.5-96.9-344.5-92.7-355.9-92.7z"/>
				</g>
			</g>
			<g id="g133" transform="translate(86.0366,316.874)">
				<g id="path135">
					<path d="M-34.1-187c-16.5,0-29.9-13.4-29.9-29.9c0-10,5-19.3,13.3-24.9c1.3-0.9,3-0.5,3.9,0.8s0.5,3-0.8,3.9
						c-6.8,4.5-10.9,12.1-10.9,20.3c0,13.4,10.9,24.3,24.3,24.3c7.2,0,13.6-3.3,20.6-10.6c7.9-8.3,14.8-16.1,21-23.8
						c0.3-0.4,2.5-3.1,2.5-3.1l3.6-4.3c17.6-22.1,28.5-25.6,30.9-26.1c5-2,10.3-3.2,15.8-3.4c0,0,0,0,0.1,0l1.8,0c0,0,0,0,0.1,0
						c11.3,0,22.2,4.1,30.7,11.4c8.4,7.3,14,17.3,15.7,28.3c0.2,1.5-0.8,2.9-2.3,3.2c-1.5,0.2-2.9-0.8-3.2-2.3
						c-3.2-20.3-20.4-35-40.9-35l-1.8,0c-4.9,0.2-9.6,1.2-14.1,3.1c-0.2,0.1-0.4,0.1-0.6,0.2c-0.6,0.1-10.7,2.7-27.8,24.2
						c0,0,0,0,0,0l-3.6,4.3l0,0c0,0-2.2,2.7-2.5,3c-6.3,7.8-13.3,15.7-21.3,24.1C-15-193.6-22.7-187-34.1-187z"/>
				</g>
			</g>
			<g id="g137" transform="translate(227.5112,258.0601)">
				<g id="path139">
					<path d="M-138.1-156c-0.8,0-1.6-0.3-2.1-1c-0.1-0.1-7.1-8.1-16.1-16.2c-5.1-4.6-11.4-9.2-19.3-9.2c0,0,0,0,0,0
						c-0.8,0-1.6,0-2.4,0.1c-1.5,0.2-2.9-1-3-2.5c-0.2-1.5,1-2.9,2.5-3c1-0.1,2-0.1,3-0.1c0,0,0,0,0,0c9.7,0,17.1,5.4,23,10.6
						c9.3,8.3,16.3,16.3,16.6,16.7c1,1.2,0.9,2.9-0.3,3.9C-136.8-156.3-137.4-156-138.1-156z"/>
				</g>
			</g>
		</g>
	</g>
</g>
</svg>
