<?xml version="1.0" encoding="utf-8"?>
<!-- Generator: Adobe Illustrator 26.0.1, SVG Export Plug-In . SVG Version: 6.00 Build 0)  -->
<svg version="1.1" id="Layer_2_00000164482755621748239480000011042366393252212148_"
	 xmlns="http://www.w3.org/2000/svg" xmlns:xlink="http://www.w3.org/1999/xlink" x="0px" y="0px" viewBox="0 0 200 200"
	 style="enable-background:new 0 0 200 200;" xml:space="preserve">
<g>
	<path d="M37.7,82.2c-1.6,0-3-1.3-3-3c0-4.9-4-8.9-8.9-8.9c-1.6,0-3-1.3-3-3c0-1.6,1.3-3,3-3c4.9,0,8.9-4,8.9-8.9c0-1.6,1.3-3,3-3
		c1.6,0,3,1.3,3,3c0,4.9,4,8.9,8.9,8.9c1.6,0,3,1.3,3,3c0,1.6-1.3,3-3,3c-4.9,0-8.9,4-8.9,8.9C40.6,80.9,39.3,82.2,37.7,82.2z
		 M34.7,67.3c1.1,0.8,2.1,1.8,3,3c0.8-1.1,1.8-2.1,3-3c-1.1-0.8-2.1-1.8-3-3C36.8,65.5,35.8,66.5,34.7,67.3z"/>
	<path d="M73.3,55.5c-1.6,0-3-1.3-3-3c0-4.9-4-8.9-8.9-8.9c-1.6,0-3-1.3-3-3c0-1.6,1.3-3,3-3c4.9,0,8.9-4,8.9-8.9c0-1.6,1.3-3,3-3
		c1.6,0,3,1.3,3,3c0,4.9,4,8.9,8.9,8.9c1.6,0,3,1.3,3,3c0,1.6-1.3,3-3,3c-4.9,0-8.9,4-8.9,8.9C76.2,54.1,74.9,55.5,73.3,55.5z
		 M70.3,40.6c1.1,0.8,2.1,1.8,3,3c0.8-1.1,1.8-2.1,3-3c-1.1-0.8-2.1-1.8-3-3C72.4,38.8,71.4,39.8,70.3,40.6z"/>
	<path d="M177.2,64.4c-1.6,0-3-1.3-3-3c0-4.9-4-8.9-8.9-8.9c-1.6,0-3-1.3-3-3s1.3-3,3-3c4.9,0,8.9-4,8.9-8.9c0-1.6,1.3-3,3-3
		c1.6,0,3,1.3,3,3c0,4.9,4,8.9,8.9,8.9c1.6,0,3,1.3,3,3s-1.3,3-3,3c-4.9,0-8.9,4-8.9,8.9C180.2,63,178.8,64.4,177.2,64.4z
		 M174.2,49.5c1.1,0.8,2.1,1.8,3,3c0.8-1.1,1.8-2.1,3-3c-1.1-0.8-2.1-1.8-3-3C176.3,47.7,175.3,48.7,174.2,49.5z"/>
	<g>
		<path d="M108.9,132.7H43.6c-0.9,0-1.8-0.4-2.4-1.2c-0.6-0.8-0.7-1.7-0.4-2.6l11.9-38.6c0.4-1.2,1.5-2.1,2.8-2.1H97
			c1.3,0,2.5,0.8,2.8,2.1l11.9,38.6c0.3,0.9,0.1,1.9-0.4,2.6C110.7,132.2,109.8,132.7,108.9,132.7L108.9,132.7z M47.6,126.7h57.3
			l-10-32.7H57.7L47.6,126.7z"/>
		<path d="M162.3,94.1c-1.3,0-2.4-0.8-2.8-2.1l-11.2-36.5h-39.4c-1.6,0-3-1.3-3-3c0-1.6,1.3-3,3-3h41.6c1.3,0,2.5,0.8,2.8,2.1
			l11.9,38.6c0.5,1.6-0.4,3.2-2,3.7C162.9,94,162.6,94.1,162.3,94.1L162.3,94.1z"/>
		<path d="M55.5,94.1c-0.9,0-1.8-0.4-2.4-1.2c-1-1.3-0.7-3.2,0.7-4.1l53.4-38.6c1.3-1,3.2-0.7,4.1,0.7c1,1.3,0.7,3.2-0.7,4.1
			L57.2,93.5C56.7,93.9,56.1,94.1,55.5,94.1L55.5,94.1z"/>
		<path d="M97,94.1c-0.9,0-1.8-0.4-2.4-1.2c-1-1.3-0.7-3.2,0.7-4.1l53.4-38.6c1.3-1,3.2-0.7,4.1,0.7c1,1.3,0.7,3.2-0.7,4.1
			L98.8,93.5C98.2,93.9,97.6,94.1,97,94.1L97,94.1z"/>
		<path d="M108.9,132.7c-0.9,0-1.8-0.4-2.4-1.2c-1-1.3-0.7-3.2,0.7-4.1l53.4-38.6c1.3-1,3.2-0.7,4.1,0.7s0.7,3.2-0.7,4.1l-53.4,38.6
			C110.1,132.5,109.5,132.7,108.9,132.7L108.9,132.7z"/>
		<path d="M138.6,174.2H73.3c-0.9,0-1.8-0.4-2.4-1.2c-0.6-0.7-0.7-1.7-0.5-2.6l11.9-41.6c0.4-1.3,1.5-2.2,2.9-2.2h41.6
			c1.3,0,2.5,0.9,2.9,2.2l11.9,41.6c0.3,0.9,0.1,1.9-0.5,2.6C140.4,173.8,139.5,174.2,138.6,174.2L138.6,174.2z M77.2,168.3h57.4
			l-10.2-35.6H87.4L77.2,168.3z"/>
		<path d="M192,135.6c-1.3,0-2.5-0.8-2.9-2.2l-11.3-39.4h-15.6c-1.6,0-3-1.3-3-3s1.3-3,3-3h17.8c1.3,0,2.5,0.9,2.9,2.2l11.9,41.6
			c0.4,1.6-0.5,3.2-2,3.7C192.6,135.6,192.3,135.6,192,135.6L192,135.6z"/>
		<path d="M126.7,132.7c-0.9,0-1.8-0.4-2.4-1.2c-1-1.3-0.7-3.2,0.7-4.1l53.4-38.6c1.3-1,3.2-0.7,4.1,0.7s0.7,3.2-0.7,4.1l-53.4,38.6
			C127.9,132.5,127.3,132.7,126.7,132.7L126.7,132.7z"/>
		<path d="M138.6,174.2c-0.9,0-1.8-0.4-2.4-1.2c-1-1.3-0.7-3.2,0.7-4.1l53.4-38.6c1.3-1,3.2-0.7,4.1,0.7c1,1.3,0.7,3.2-0.7,4.1
			l-53.4,38.6C139.8,174,139.2,174.2,138.6,174.2L138.6,174.2z"/>
		<path d="M73.3,174.2H8c-0.9,0-1.8-0.4-2.4-1.2c-0.6-0.7-0.7-1.7-0.5-2.6L17,128.9c0.4-1.3,1.5-2.2,2.9-2.2h41.6
			c1.3,0,2.5,0.9,2.9,2.2l11.9,41.6c0.3,0.9,0.1,1.9-0.5,2.6C75.1,173.8,74.2,174.2,73.3,174.2z M11.9,168.3h57.4l-10.2-35.6H22.1
			L11.9,168.3z"/>
		<path d="M19.8,132.7c-0.9,0-1.8-0.4-2.4-1.2c-1-1.3-0.7-3.2,0.7-4.1L48,105.7c1.3-1,3.2-0.7,4.1,0.7s0.7,3.2-0.7,4.1l-29.9,21.6
			C21.1,132.5,20.4,132.7,19.8,132.7L19.8,132.7z"/>
	</g>
</g>
</svg>
