<svg width="17" height="18" viewBox="0 0 17 18" fill="none" xmlns="http://www.w3.org/2000/svg">
<path d="M16.8333 9.18598C16.8333 8.5008 16.7765 8.0008 16.6537 7.48228H8.66992V10.5748H13.3562C13.2618 11.3434 12.7516 12.5008 11.6178 13.2785L11.6019 13.3821L14.1262 15.2985L14.3011 15.3156C15.9073 13.8619 16.8333 11.723 16.8333 9.18598" fill="#4285F4"/>
<path d="M8.67072 17.3338C10.9666 17.3338 12.8941 16.593 14.3019 15.3152L11.6186 13.2781C10.9005 13.7689 9.93677 14.1115 8.67072 14.1115C6.42202 14.1115 4.51347 12.6578 3.83312 10.6485L3.7334 10.6568L1.10855 12.6476L1.07422 12.7411C2.47256 15.4633 5.34487 17.3338 8.67072 17.3338Z" fill="#34A853"/>
<path d="M3.83289 10.6489C3.65338 10.1304 3.54949 9.57477 3.54949 9.00072C3.54949 8.42661 3.65338 7.87107 3.82345 7.35256L3.81869 7.24213L1.16096 5.21939L1.07401 5.25992C0.497686 6.38958 0.166992 7.65813 0.166992 9.00072C0.166992 10.3433 0.497686 11.6118 1.07401 12.7415L3.83289 10.6489" fill="#FBBC05"/>
<path d="M8.67067 3.88887C10.2674 3.88887 11.3445 4.5648 11.9586 5.12965L14.3585 2.83334C12.8846 1.49074 10.9666 0.666664 8.67067 0.666664C5.34484 0.666664 2.47255 2.53703 1.07422 5.25923L3.82366 7.35186C4.51345 5.3426 6.42199 3.88887 8.67067 3.88887" fill="#EB4335"/>
</svg>
