<svg version="1.0" id="Layer_1" xmlns="http://www.w3.org/2000/svg" xmlns:xlink="http://www.w3.org/1999/xlink" x="0px" y="0px" viewBox="0 0 500 500" style="enable-background:new 0 0 500 500;" xml:space="preserve"><g><path d="M396.67,86.4c-45.9-19.42-97.89-9.62-133.61,25.2c-12.94,12.61-12.94,12.61-25.78,0.13 c-48.62-47.21-124.77-46.86-172.36,0.79c-47.92,47.99-48.16,124.55-0.07,172.98c57.7,58.12,115.74,115.9,173.67,173.8 c9.28,9.28,13.89,9.33,23.03,0.2c58.16-58.13,116.39-116.18,174.35-174.5c23.46-23.61,34.82-52.53,35.11-79.26 C471.06,149.83,441.86,105.52,396.67,86.4z M420.07,267.79c-54.44,55.3-109.7,109.79-164.36,164.89 c-4.95,4.99-7.27,3.78-11.45-0.42C189.73,377.49,134.6,323.33,80.6,268.06c-29.84-30.55-36.1-67.47-20.68-107.03 c14.54-37.31,51.25-60.94,91.5-60.99c26.4-0.02,49.18,9.15,68.37,27.19c6.44,6.05,12.52,12.48,18.83,18.67 c8.82,8.65,14.21,8.58,23.21-0.28c6.3-6.2,12.39-12.63,18.83-18.68c39.54-37.16,100.94-35.93,138.9,2.7 C457.09,167.83,457.82,229.43,420.07,267.79z"></path></g></svg>