<?xml version="1.0" encoding="utf-8"?>
<!-- Generator: Adobe Illustrator 18.0.0, SVG Export Plug-In . SVG Version: 6.00 Build 0)  -->
<!DOCTYPE svg PUBLIC "-//W3C//DTD SVG 1.1//EN" "http://www.w3.org/Graphics/SVG/1.1/DTD/svg11.dtd">
<svg version="1.1" id="Layer_1" xmlns="http://www.w3.org/2000/svg" xmlns:xlink="http://www.w3.org/1999/xlink" x="0px" y="0px"
	 viewBox="0 0 150 100" enable-background="new 0 0 150 100" xml:space="preserve">
<g>
	<g>
		<rect x="72" y="40" fill="#693493" width="8.2" height="1.2"/>
		<path fill="#693493" d="M65.4,45.3c-0.6-0.6-1.3-1.1-2.1-1.5c-0.8-0.3-1.7-0.5-2.7-0.5c-1.2,0-2.2,0.2-3,0.7
			c-0.9,0.4-1.6,1.1-2.3,2v-9.8h-1.2v21.8h1.2v-8.3c0-0.9,0.2-1.8,0.7-2.6c0.5-0.8,1.1-1.4,2-1.9c0.8-0.5,1.7-0.7,2.7-0.7
			c1,0,2,0.2,2.8,0.7c0.8,0.5,1.5,1.1,1.9,2c0.5,0.9,0.7,2,0.7,3.2v7.6h1.3v-7.4c0-1.1-0.2-2.1-0.5-3C66.5,46.7,66,45.9,65.4,45.3z"
			/>
		<path fill="#693493" d="M83.5,49.2C83.2,48,82.7,47,82,46.1c-0.7-0.9-1.6-1.6-2.6-2.1c-1-0.5-2.1-0.7-3.3-0.7
			c-1.4,0-2.6,0.4-3.8,1c-1.1,0.7-2.1,1.6-2.7,2.7c-0.7,1.2-1,2.4-1,3.8c0,1,0.2,2,0.6,2.9c0.4,0.9,0.9,1.8,1.6,2.4
			c0.7,0.7,1.5,1.2,2.4,1.6c0.9,0.4,1.9,0.6,2.9,0.6c1.2,0,2.3-0.3,3.4-0.8c1.1-0.6,2-1.3,2.7-2.2v-2.6c-0.3,0.8-0.7,1.6-1.4,2.2
			c-0.6,0.7-1.4,1.2-2.2,1.5c-0.8,0.4-1.6,0.5-2.5,0.5c-1.2,0-2.2-0.3-3.2-0.9c-1-0.6-1.7-1.3-2.3-2.3c-0.6-1-0.8-2-0.8-3.2
			c0-0.5,0.1-1,0.2-1.6H83.5z M72,46.1c0.6-0.5,1.3-0.9,2-1.2c0.7-0.3,1.4-0.4,2.1-0.4c0.6,0,1.1,0.1,1.7,0.2c0.5,0.1,1,0.4,1.6,0.6
			c0.5,0.3,1,0.7,1.4,1.1c0.4,0.4,0.8,0.9,1,1.5H70.6C70.9,47.3,71.4,46.6,72,46.1z"/>
		<path fill="#693493" d="M105.8,57.4c2-4.2,3.1-9,3.1-13.9C108.8,25,93.6,10,75,10c-18.6,0-33.8,15-33.8,33.5
			C41.2,62,56.3,77,75,77c13.6,0,25.3-8,30.7-19.4L105.8,57.4z M75,75.7c-17.9,0-32.5-14.4-32.5-32.2c0-17.8,14.6-32.2,32.5-32.2
			c17.9,0,32.5,14.5,32.5,32.2c0,3.6-0.6,7.1-1.7,10.4v-9.8h-1.2V46v0.4l-0.2-0.4c-0.6-0.8-1.2-1.6-1.9-2.2
			c-0.7-0.6-1.6-1.1-2.5-1.4c-0.9-0.3-1.9-0.5-3-0.5c-1.2,0-2.4,0.2-3.4,0.7c-1.1,0.5-2.1,1.1-2.9,1.9c-0.8,0.8-1.5,1.7-2,2.8
			c-0.5,1.1-0.7,2.2-0.7,3.4c0,1.6,0.4,3.1,1.2,4.5c0.8,1.4,1.9,2.5,3.2,3.3c1.4,0.8,2.8,1.2,4.4,1.2c1.5,0,3-0.3,4.3-1
			c1.3-0.7,2.4-1.7,3.3-3l0.2-0.4v0.4v1.2C99.4,68,88.1,75.7,75,75.7z M104.5,50.9c0,1.4-0.4,2.6-1,3.8c-0.7,1.1-1.6,2.1-2.7,2.8
			c-1.2,0.7-2.4,1-3.8,1.1c-1.4,0-2.7-0.4-3.9-1c-1.2-0.7-2.1-1.6-2.8-2.8c-0.7-1.2-1-2.5-1-3.9c0-1.4,0.4-2.7,1-3.9
			c0.7-1.2,1.6-2.1,2.8-2.8c1.2-0.7,2.5-1,3.9-1c1,0,2,0.2,2.9,0.6c0.9,0.4,1.7,1,2.4,1.7c0.7,0.7,1.2,1.5,1.6,2.5
			C104.3,48.8,104.5,49.8,104.5,50.9z"/>
		<path fill="#693493" d="M89.6,43.5c0.9-0.9,2.1-1.7,3.3-2.2c0.9-0.4,1.8-0.6,2.8-0.7v-1.1c0,0-7,0.3-9.7,7.2h-0.7v19.8h1.2l0-14.4
			c0-1.4,0.3-4.1,0.8-5.3C87.9,45.5,88.6,44.5,89.6,43.5z"/>
	</g>
	<path fill="#693493" d="M39,87.5c-0.2,0.1-0.5,0.2-0.8,0.2c-0.3,0-0.6,0.1-0.8,0.1c-0.4,0-0.8-0.1-1.2-0.2
		c-0.3-0.2-0.6-0.3-0.8-0.6c-0.2-0.2-0.4-0.6-0.4-0.9c-0.1-0.3-0.1-0.7-0.1-1.2c0-0.4,0.1-0.8,0.2-1.2c0.1-0.4,0.3-0.7,0.5-0.9
		c0.2-0.3,0.5-0.5,0.7-0.6c0.3-0.1,0.6-0.2,1-0.2c0.4,0,0.7,0.1,1,0.2c0.3,0.1,0.5,0.3,0.7,0.6c0.2,0.2,0.3,0.5,0.4,0.9
		c0.1,0.3,0.1,0.7,0.1,1.1v0.3h-3.8c0,0.6,0.2,1.1,0.5,1.5c0.3,0.4,0.8,0.6,1.3,0.6c0.2,0,0.5,0,0.8-0.1c0.3-0.1,0.6-0.2,0.7-0.3
		V87.5z M38.7,84.5c0-0.3,0-0.5-0.1-0.7c-0.1-0.2-0.1-0.4-0.3-0.6c-0.1-0.2-0.3-0.3-0.4-0.4c-0.2-0.1-0.4-0.2-0.6-0.2
		c-0.3,0-0.5,0.1-0.7,0.2c-0.2,0.1-0.4,0.2-0.5,0.4c-0.1,0.2-0.3,0.4-0.3,0.6c-0.1,0.2-0.1,0.5-0.1,0.7H38.7z M42.5,87.7h-0.8
		l-1.9-5.6h0.8l1.5,4.8h0l1.6-4.8h0.7L42.5,87.7z M48.9,87.5c-0.2,0.1-0.5,0.2-0.8,0.2c-0.3,0-0.6,0.1-0.8,0.1
		c-0.5,0-0.8-0.1-1.2-0.2c-0.3-0.2-0.6-0.3-0.8-0.6c-0.2-0.2-0.3-0.6-0.4-0.9c-0.1-0.3-0.1-0.7-0.1-1.2c0-0.4,0.1-0.8,0.2-1.2
		c0.1-0.4,0.3-0.7,0.5-0.9c0.2-0.3,0.5-0.5,0.8-0.6c0.3-0.1,0.6-0.2,0.9-0.2c0.4,0,0.7,0.1,1,0.2c0.3,0.1,0.5,0.3,0.7,0.6
		c0.2,0.2,0.3,0.5,0.4,0.9c0.1,0.3,0.1,0.7,0.1,1.1v0.3h-3.8c0,0.6,0.2,1.1,0.5,1.5c0.3,0.4,0.8,0.6,1.3,0.6c0.2,0,0.5,0,0.8-0.1
		c0.3-0.1,0.6-0.2,0.7-0.3V87.5z M48.5,84.5c0-0.3,0-0.5-0.1-0.7c-0.1-0.2-0.1-0.4-0.3-0.6c-0.1-0.2-0.3-0.3-0.4-0.4
		c-0.2-0.1-0.4-0.2-0.6-0.2c-0.2,0-0.5,0.1-0.7,0.2c-0.2,0.1-0.4,0.2-0.5,0.4c-0.1,0.2-0.2,0.4-0.3,0.6c-0.1,0.2-0.1,0.5-0.1,0.7
		H48.5z M50.4,83.4c0-0.3,0-0.6,0-0.7c0-0.2,0-0.3,0-0.5H51v1.1h0c0.1-0.3,0.3-0.6,0.6-0.8c0.2-0.2,0.5-0.3,0.8-0.3
		c0.1,0,0.2,0,0.3,0c0.1,0,0.2,0,0.2,0v0.7c-0.1,0-0.3-0.1-0.5-0.1c-0.3,0-0.5,0.1-0.7,0.2c-0.2,0.1-0.3,0.3-0.4,0.5
		c-0.1,0.2-0.2,0.5-0.2,0.7c-0.1,0.3-0.1,0.5-0.1,0.8v2.7h-0.7V83.4z M55.3,86.8L55.3,86.8l1.6-4.6h0.7l-2.2,6.4
		c-0.1,0.5-0.3,0.8-0.6,1.1C54.6,89.9,54.3,90,54,90c-0.2,0-0.5,0-0.7-0.1l0-0.6c0.1,0,0.2,0.1,0.2,0.1c0.1,0,0.2,0,0.3,0
		c0.3,0,0.5-0.1,0.6-0.3c0.1-0.2,0.3-0.5,0.4-0.9l0.1-0.5l-2-5.6h0.8L55.3,86.8z M62.8,87.7h-0.7v-0.9h0c-0.4,0.7-0.9,1-1.7,1
		c-0.7,0-1.3-0.3-1.7-0.8c-0.4-0.5-0.6-1.2-0.6-2.1c0-0.9,0.2-1.6,0.5-2.1c0.2-0.3,0.4-0.5,0.7-0.6c0.3-0.1,0.6-0.2,1-0.2
		c0.3,0,0.5,0,0.7,0.1c0.2,0.1,0.4,0.2,0.5,0.3c0.1,0.1,0.3,0.2,0.3,0.4c0.1,0.1,0.1,0.2,0.2,0.3h0v-3.5h0.7V87.7z M58.9,85.8
		c0.1,0.3,0.1,0.5,0.3,0.7c0.1,0.2,0.3,0.4,0.5,0.5c0.2,0.1,0.5,0.2,0.8,0.2c0.3,0,0.5-0.1,0.8-0.2c0.2-0.1,0.4-0.3,0.5-0.6
		c0.1-0.2,0.2-0.5,0.3-0.7c0.1-0.3,0.1-0.6,0.1-0.8c0-0.3,0-0.5-0.1-0.8c-0.1-0.3-0.2-0.5-0.3-0.8c-0.1-0.2-0.3-0.4-0.5-0.5
		c-0.2-0.1-0.5-0.2-0.7-0.2c-0.3,0-0.6,0.1-0.8,0.2c-0.2,0.1-0.4,0.3-0.5,0.5c-0.1,0.2-0.2,0.5-0.3,0.7c0,0.3-0.1,0.6-0.1,0.8
		C58.8,85.2,58.8,85.5,58.9,85.8z M67.4,86.8L67.4,86.8c-0.2,0.3-0.4,0.6-0.7,0.8c-0.3,0.2-0.7,0.3-1,0.3c-0.4,0-0.7-0.1-0.9-0.2
		c-0.3-0.1-0.4-0.2-0.6-0.4c-0.1-0.2-0.2-0.3-0.3-0.5c0-0.2-0.1-0.3-0.1-0.5c0-0.4,0.1-0.8,0.3-1.1c0.2-0.3,0.5-0.5,0.8-0.6
		c0.3-0.1,0.7-0.2,1-0.2c0.4,0,0.8,0,1.2,0h0.1V84c0-0.5-0.1-0.9-0.3-1.1c-0.2-0.2-0.5-0.3-1-0.3c-0.6,0-1.2,0.2-1.6,0.5v-0.7
		c0.2-0.1,0.5-0.2,0.8-0.3c0.3-0.1,0.6-0.1,0.8-0.1c0.7,0,1.2,0.2,1.5,0.5c0.3,0.3,0.4,0.9,0.4,1.6v2.4c0,0.3,0,0.5,0,0.7
		c0,0.2,0,0.3,0,0.5h-0.7V86.8z M67.3,84.9h-0.2c-0.4,0-0.7,0-1,0c-0.3,0-0.6,0.1-0.8,0.2c-0.3,0.1-0.4,0.2-0.6,0.4
		c-0.1,0.2-0.2,0.4-0.2,0.7c0,0.3,0.1,0.6,0.3,0.8c0.2,0.2,0.5,0.2,0.8,0.2c0.4,0,0.7-0.1,0.9-0.2c0.2-0.1,0.4-0.3,0.5-0.5
		c0.1-0.2,0.2-0.4,0.2-0.6c0-0.2,0-0.4,0-0.6V84.9z M71,86.8L71,86.8l1.6-4.6h0.7l-2.2,6.4c-0.2,0.5-0.3,0.8-0.6,1.1
		C70.3,89.9,70,90,69.6,90c-0.3,0-0.5,0-0.7-0.1l0.1-0.6c0.1,0,0.2,0.1,0.2,0.1c0.1,0,0.2,0,0.3,0c0.3,0,0.5-0.1,0.6-0.3
		c0.1-0.2,0.3-0.5,0.4-0.9l0.1-0.5l-2-5.6h0.7L71,86.8z M81.4,87.7h-0.7v-0.9h0c-0.4,0.7-0.9,1-1.7,1c-0.7,0-1.3-0.3-1.7-0.8
		c-0.4-0.6-0.6-1.2-0.6-2.1c0-0.9,0.2-1.6,0.5-2.1c0.2-0.3,0.4-0.4,0.7-0.6c0.3-0.1,0.6-0.2,1-0.2c0.3,0,0.5,0,0.7,0.1
		c0.2,0.1,0.4,0.2,0.5,0.3c0.2,0.1,0.3,0.2,0.3,0.3c0.1,0.1,0.2,0.2,0.2,0.3h0v-3.5h0.7V87.7z M77.5,85.8c0,0.3,0.1,0.5,0.3,0.7
		c0.1,0.2,0.3,0.4,0.5,0.5c0.2,0.1,0.5,0.2,0.8,0.2c0.3,0,0.5-0.1,0.8-0.2c0.2-0.1,0.4-0.3,0.5-0.5c0.1-0.2,0.2-0.5,0.3-0.8
		c0.1-0.3,0.1-0.5,0.1-0.8c0-0.3,0-0.5-0.1-0.8c-0.1-0.3-0.2-0.5-0.3-0.7c-0.1-0.2-0.3-0.4-0.5-0.6c-0.2-0.1-0.5-0.2-0.8-0.2
		c-0.3,0-0.6,0.1-0.8,0.2c-0.2,0.1-0.4,0.3-0.5,0.5c-0.1,0.2-0.2,0.5-0.3,0.7c-0.1,0.3-0.1,0.6-0.1,0.9
		C77.4,85.2,77.4,85.5,77.5,85.8z M83.5,80.6h-0.7v-0.9h0.7V80.6z M82.8,82.1h0.7v5.5h-0.7V82.1z M88.2,86.8L88.2,86.8
		c-0.2,0.3-0.4,0.6-0.7,0.8c-0.3,0.2-0.7,0.3-1,0.3c-0.4,0-0.7-0.1-0.9-0.2c-0.2-0.1-0.4-0.3-0.6-0.4c-0.1-0.2-0.2-0.3-0.3-0.5
		c0-0.2-0.1-0.3-0.1-0.5c0-0.4,0.1-0.8,0.3-1.1c0.2-0.3,0.5-0.5,0.8-0.6c0.3-0.1,0.7-0.2,1.1-0.2c0.4,0,0.8-0.1,1.2-0.1h0.1V84
		c0-0.5-0.1-0.9-0.3-1.1c-0.2-0.2-0.5-0.4-1-0.4c-0.6,0-1.1,0.2-1.6,0.5v-0.6c0.2-0.1,0.5-0.2,0.8-0.3c0.3-0.1,0.6-0.1,0.8-0.1
		c0.7,0,1.2,0.2,1.5,0.5c0.3,0.3,0.5,0.9,0.5,1.6v2.4c0,0.3,0,0.5,0,0.7c0,0.2,0,0.3,0,0.5h-0.7V86.8z M88.1,84.9h-0.2
		c-0.3,0-0.7,0-1,0c-0.3,0-0.6,0.1-0.8,0.2c-0.3,0.1-0.5,0.2-0.6,0.4c-0.2,0.2-0.2,0.4-0.2,0.7c0,0.3,0.1,0.6,0.3,0.7
		c0.2,0.2,0.5,0.3,0.8,0.3c0.4,0,0.7-0.1,0.9-0.2c0.2-0.1,0.4-0.3,0.5-0.5c0.1-0.2,0.2-0.4,0.2-0.6c0-0.2,0-0.4,0-0.6V84.9z
		 M96.9,87.7V84c0-0.4-0.1-0.8-0.3-1c-0.2-0.3-0.5-0.4-0.9-0.4c-0.4,0-0.8,0.2-1,0.5c-0.3,0.3-0.4,0.8-0.4,1.5v3.1h-0.7V84
		c0-0.4-0.1-0.8-0.3-1c-0.2-0.3-0.5-0.4-0.9-0.4c-0.4,0-0.8,0.2-1,0.5c-0.3,0.3-0.4,0.8-0.4,1.5v3.1h-0.7v-4.2c0-0.6,0-1-0.1-1.3
		h0.7v0.9l0,0l0,0c0.1-0.1,0.2-0.3,0.2-0.4c0.1-0.1,0.2-0.2,0.3-0.3c0.1-0.1,0.3-0.2,0.5-0.2c0.2-0.1,0.4-0.1,0.7-0.1
		c0.1,0,0.3,0,0.4,0c0.1,0,0.3,0.1,0.4,0.2c0.2,0.1,0.3,0.2,0.4,0.4c0.1,0.2,0.2,0.4,0.2,0.6h0c0.1-0.3,0.3-0.6,0.7-0.8
		c0.3-0.2,0.7-0.3,1.1-0.3c0.6,0,1,0.2,1.3,0.5c0.3,0.3,0.5,0.8,0.5,1.4v3.8H96.9z M98.8,83.8c0.1-0.3,0.3-0.6,0.5-0.9
		c0.2-0.3,0.5-0.5,0.8-0.6c0.3-0.2,0.7-0.2,1.1-0.2c0.4,0,0.8,0.1,1.1,0.2c0.3,0.1,0.6,0.4,0.8,0.6c0.2,0.3,0.4,0.6,0.5,0.9
		c0.1,0.3,0.2,0.7,0.2,1.1c0,0.4-0.1,0.8-0.2,1.1c-0.1,0.3-0.3,0.6-0.5,0.9c-0.2,0.3-0.5,0.5-0.8,0.7c-0.3,0.2-0.7,0.2-1.1,0.2
		c-0.4,0-0.8-0.1-1.2-0.2c-0.3-0.1-0.6-0.4-0.8-0.6c-0.2-0.3-0.4-0.6-0.5-0.9c-0.1-0.4-0.2-0.7-0.2-1.1
		C98.6,84.5,98.7,84.1,98.8,83.8z M99.9,86.6c0.3,0.5,0.8,0.7,1.4,0.7c0.6,0,1-0.2,1.4-0.7c0.3-0.4,0.5-1,0.5-1.6
		c0-0.7-0.2-1.2-0.5-1.7c-0.3-0.4-0.8-0.7-1.4-0.7c-0.6,0-1,0.2-1.4,0.7c-0.3,0.4-0.5,1-0.5,1.7C99.4,85.6,99.5,86.1,99.9,86.6z
		 M104.9,83.4c0-0.6,0-1,0-1.3h0.7v1h0c0.1-0.2,0.1-0.3,0.2-0.4c0.1-0.1,0.2-0.2,0.3-0.4c0.1-0.1,0.3-0.2,0.5-0.3
		c0.2-0.1,0.4-0.1,0.7-0.1c0.7,0,1.1,0.2,1.4,0.6c0.3,0.4,0.5,0.9,0.5,1.6v3.5h-0.7v-3.4c0-0.5-0.1-1-0.3-1.3
		c-0.2-0.3-0.5-0.5-1-0.5c-0.3,0-0.6,0.1-0.8,0.2c-0.2,0.1-0.4,0.3-0.5,0.5c-0.1,0.2-0.2,0.4-0.3,0.7c-0.1,0.2-0.1,0.5-0.1,0.7v3.1
		h-0.7V83.4z M115.1,87.7h-0.7v-0.9h0c-0.4,0.7-0.9,1-1.7,1c-0.7,0-1.3-0.3-1.7-0.8c-0.4-0.6-0.6-1.2-0.6-2.1c0-0.9,0.2-1.6,0.5-2.1
		c0.2-0.3,0.4-0.4,0.7-0.6c0.3-0.1,0.6-0.2,1-0.2c0.2,0,0.5,0,0.7,0.1c0.2,0.1,0.4,0.2,0.5,0.3c0.1,0.1,0.3,0.2,0.3,0.3
		c0.1,0.1,0.1,0.2,0.2,0.3h0v-3.5h0.7V87.7z M111.2,85.8c0,0.3,0.1,0.5,0.3,0.7c0.1,0.2,0.3,0.4,0.5,0.5c0.2,0.1,0.5,0.2,0.8,0.2
		c0.3,0,0.5-0.1,0.8-0.2c0.2-0.1,0.4-0.3,0.5-0.5c0.1-0.2,0.2-0.5,0.3-0.8c0.1-0.3,0.1-0.5,0.1-0.8c0-0.3,0-0.5-0.1-0.8
		c-0.1-0.3-0.2-0.5-0.3-0.7c-0.1-0.2-0.3-0.4-0.5-0.6c-0.2-0.1-0.5-0.2-0.7-0.2c-0.3,0-0.6,0.1-0.8,0.2c-0.2,0.1-0.4,0.3-0.5,0.5
		c-0.1,0.2-0.2,0.5-0.3,0.7c-0.1,0.3-0.1,0.6-0.1,0.9C111.1,85.2,111.2,85.5,111.2,85.8z"/>
</g>
<g>
</g>
<g>
</g>
<g>
</g>
<g>
</g>
<g>
</g>
<g>
</g>
</svg>
