<?xml version="1.0" encoding="utf-8"?>
<!-- Generator: Adobe Illustrator 25.2.0, SVG Export Plug-In . SVG Version: 6.00 Build 0)  -->
<svg version="1.1" id="Layer_1" xmlns="http://www.w3.org/2000/svg" xmlns:xlink="http://www.w3.org/1999/xlink" x="0px" y="0px"
	 viewBox="0 0 200 200" style="enable-background:new 0 0 200 200;" xml:space="preserve">
<style type="text/css">
	.st0{fill:#E30613;}
	.st1{fill:#FFFFFF;}
</style>
<path class="st0" d="M179,199H21c-11.05,0-20-8.95-20-20V21C1,9.95,9.95,1,21,1h158c11.05,0,20,8.95,20,20v158
	C199,190.05,190.05,199,179,199z"/>
<g>
	<path class="st1" d="M100.12,164.7c-9.8-0.26-19.62-0.27-29.41-0.85c-11.73-0.69-21.63-5.23-28.42-15.28
		c-3.69-5.46-5.59-11.62-5.96-18.11c-1.18-20.38-1.27-40.79,0-61.16c1.15-18.57,14.08-31.64,32.59-33.25
		c6.33-0.55,12.71-0.75,19.07-0.75c13.25-0.01,26.51,0.08,39.75,0.41c8.32,0.2,16.2,2.24,22.96,7.44
		c8.41,6.46,12.93,15.3,13.3,25.63c0.65,17.84,0.61,35.71,0.54,53.57c-0.02,5.28-0.55,10.7-1.83,15.8
		c-3.57,14.19-14.82,23.8-29.51,25.3c-7.48,0.76-15.04,0.76-22.56,1.01c-3.5,0.12-7.02,0.02-10.52,0.02
		C100.12,164.55,100.12,164.63,100.12,164.7z M152.84,99.98c-0.01,0-0.01,0-0.02,0c0-9.02,0.15-18.05-0.05-27.07
		c-0.14-6.18-1.49-12.11-5.58-17.07c-5.02-6.1-11.89-8.24-19.37-8.43c-13.11-0.34-26.23-0.45-39.34-0.43
		c-6.55,0.01-13.13,0.2-19.64,0.85C58.62,48.83,51.44,55,48.97,64.62c-0.83,3.24-1.28,6.66-1.33,10
		c-0.24,13.83-0.36,27.66-0.3,41.49c0.03,5.5,0.25,11.07,1.1,16.49c1.53,9.87,7.33,16.32,17.13,18.68
		c3.44,0.83,7.06,1.17,10.61,1.24c11.56,0.24,23.12,0.39,34.67,0.29c7.26-0.06,14.58-0.18,21.76-1.1
		c9.68-1.25,16.27-6.81,18.87-16.42c0.79-2.92,1.24-6,1.3-9.02C152.95,117.51,152.84,108.74,152.84,99.98z"/>
	<path class="st1" d="M100.39,66.69c18.53,0.13,33.18,15.03,33.01,33.56c-0.17,18.25-15.1,32.93-33.39,32.82
		c-18.36-0.1-33.09-15.17-32.94-33.7C67.2,81.3,82.23,66.56,100.39,66.69z M121.75,99.78c-0.06-11.95-9.8-21.61-21.64-21.46
		c-11.98,0.15-21.45,9.78-21.38,21.73c0.08,11.8,9.73,21.37,21.55,21.36C112.18,121.39,121.81,111.69,121.75,99.78z"/>
	<path class="st1" d="M127.04,65.34c0-4.27,3.37-7.7,7.62-7.76c4.28-0.06,7.83,3.47,7.83,7.78c-0.01,4.25-3.42,7.7-7.65,7.73
		C130.47,73.12,127.04,69.71,127.04,65.34z"/>
</g>
</svg>
