<?xml version="1.0" encoding="UTF-8"?>
<svg id="Layer_1" data-name="Layer 1" xmlns="http://www.w3.org/2000/svg" xmlns:xlink="http://www.w3.org/1999/xlink" viewBox="0 0 248.16 225.99">
  <defs>
    <style>
      .cls-1 {
        fill: url(#GradientFill_2);
      }

      .cls-2 {
        fill: #fff;
      }

      .cls-3 {
        fill: url(#linear-gradient);
      }
    </style>
    <linearGradient id="linear-gradient" x1="139.23" y1="125.21" x2="104.37" y2="62.32" gradientUnits="userSpaceOnUse">
      <stop offset="0" stop-color="#ffdf00"/>
      <stop offset=".18" stop-color="#ffd600"/>
      <stop offset=".55" stop-color="#ffcd03"/>
      <stop offset=".62" stop-color="#fcca02"/>
      <stop offset=".66" stop-color="#f3c102"/>
      <stop offset=".7" stop-color="#e4b302"/>
      <stop offset=".74" stop-color="#ce9e02"/>
      <stop offset=".77" stop-color="#b38401"/>
      <stop offset=".8" stop-color="#976901"/>
      <stop offset="1" stop-color="#310c00"/>
    </linearGradient>
    <linearGradient id="GradientFill_2" data-name="GradientFill 2" x1="154.92" y1="63.05" x2="90.86" y2="63.05" gradientUnits="userSpaceOnUse">
      <stop offset="0" stop-color="#ffdf00"/>
      <stop offset=".63" stop-color="#ffcd03"/>
      <stop offset="1" stop-color="#b36910"/>
    </linearGradient>
  </defs>
  <g>
    <g>
      <path class="cls-2" d="M19.54,193.27l1.47-.2c.04.94.22,1.58.53,1.93.32.35.75.52,1.3.52.41,0,.76-.09,1.06-.28.3-.19.5-.44.62-.77.11-.32.17-.84.17-1.54v-8.48h1.63v8.38c0,1.03-.13,1.83-.37,2.39-.25.57-.64,1-1.18,1.29-.54.3-1.17.45-1.9.45-1.08,0-1.91-.31-2.48-.93-.57-.62-.85-1.55-.83-2.77Z"/>
      <polygon class="cls-2" points="41.38 196.76 41.38 184.45 50.28 184.45 50.28 185.9 43 185.9 43 189.67 49.81 189.67 49.81 191.12 43 191.12 43 195.31 50.56 195.31 50.56 196.76 41.38 196.76"/>
      <path class="cls-2" d="M67.33,196.76l-3.26-12.3h1.67l1.87,8.06c.2.85.37,1.68.52,2.52.32-1.32.5-2.08.56-2.28l2.34-8.3h1.96l1.76,6.23c.44,1.55.76,3,.96,4.36.16-.78.36-1.67.61-2.68l1.93-7.9h1.64l-3.38,12.3h-1.57l-2.59-9.38c-.22-.78-.35-1.27-.39-1.45-.13.57-.25,1.05-.36,1.45l-2.61,9.38h-1.66Z"/>
      <polygon class="cls-2" points="93.82 196.76 93.82 184.45 102.72 184.45 102.72 185.9 95.45 185.9 95.45 189.67 102.25 189.67 102.25 191.12 95.45 191.12 95.45 195.31 103 195.31 103 196.76 93.82 196.76"/>
      <polygon class="cls-2" points="117.56 196.76 117.56 184.45 119.19 184.45 119.19 195.31 125.25 195.31 125.25 196.76 117.56 196.76"/>
      <polygon class="cls-2" points="145.41 196.76 145.41 184.45 147.03 184.45 147.03 195.31 153.09 195.31 153.09 196.76 145.41 196.76"/>
      <polygon class="cls-2" points="167.64 196.76 167.64 184.45 176.54 184.45 176.54 185.9 169.27 185.9 169.27 189.67 176.08 189.67 176.08 191.12 169.27 191.12 169.27 195.31 176.82 195.31 176.82 196.76 167.64 196.76"/>
      <path class="cls-2" d="M191.67,196.76v-12.3h5.46c1.1,0,1.93.11,2.5.33.57.22,1.03.61,1.37,1.17.34.56.51,1.17.51,1.85,0,.87-.28,1.61-.85,2.2-.56.6-1.44.98-2.62,1.14.43.2.75.41.98.61.47.43.93.98,1.36,1.63l2.13,3.35h-2.04l-1.63-2.56c-.47-.74-.87-1.31-1.18-1.7-.31-.39-.58-.66-.83-.82-.24-.16-.49-.27-.74-.33-.18-.04-.48-.06-.91-.06h-1.89v5.47h-1.63ZM193.3,189.89h3.5c.74,0,1.32-.08,1.74-.23.42-.15.74-.4.96-.74.22-.34.33-.71.33-1.1,0-.58-.21-1.06-.63-1.44-.42-.37-1.09-.56-2-.56h-3.9v4.07Z"/>
      <path class="cls-2" d="M218.85,192.8l1.54-.14c.07.62.24,1.12.51,1.52.27.39.68.71,1.24.95.56.24,1.19.36,1.89.36.62,0,1.17-.09,1.64-.28.48-.18.83-.44,1.06-.76.23-.32.35-.68.35-1.05s-.11-.72-.33-1.01c-.23-.29-.6-.53-1.11-.73-.33-.13-1.06-.33-2.19-.61-1.13-.27-1.92-.52-2.37-.76-.59-.31-1.03-.69-1.31-1.15-.29-.46-.43-.97-.43-1.53,0-.62.17-1.2.53-1.75.35-.54.87-.95,1.54-1.22.68-.28,1.43-.42,2.26-.42.91,0,1.71.15,2.41.44.7.29,1.23.73,1.61,1.29.38.58.58,1.22.6,1.94l-1.56.12c-.08-.77-.36-1.36-.85-1.76-.48-.4-1.2-.6-2.14-.6s-1.71.18-2.15.54c-.45.36-.67.8-.67,1.31,0,.44.16.81.47,1.09.31.29,1.14.58,2.46.88,1.32.3,2.23.57,2.72.79.72.33,1.25.75,1.59,1.25.34.51.51,1.09.51,1.75s-.19,1.27-.56,1.85c-.37.58-.91,1.03-1.62,1.35-.7.32-1.49.48-2.37.48-1.11,0-2.05-.16-2.8-.49-.75-.32-1.34-.81-1.77-1.46-.43-.65-.65-1.39-.67-2.21Z"/>
    </g>
    <path class="cls-2" d="M228.47,178.12l-.43-.43-31.21-31.94v30.03h-6.33v-45.35l.42.44,31.21,32.08v-30.44h6.34v45.62h0ZM187.09,175.78h-6.66l-.07-.15-13.87-30.58-13.71,30.57-.07.15h-6.62l.15-.35,20.03-44.43.22-.5.23.5,20.2,44.43.16.35h0ZM137.8,175.78v-19.79l14-23.11.23-.38h-7.05l-.07.12-10.18,16.87-10.3-16.87-.07-.12h-7.04l.23.37,13.94,23.18v19.72h6.33ZM119.54,175.78h-20.2v-43.28h6.27v37h13.93v6.27h0ZM95.74,175.78h-6.67l-.06-.15-13.87-30.58-13.71,30.57-.06.15h-6.62l.16-.35,20.03-44.43.22-.5.23.5,20.2,44.43.16.35h0ZM52.59,175.78h-8.11l-.07-.08-18.56-20.4v20.48h-6.33v-43.28h6.33v17.05l17.73-16.98.07-.07h8.86l-.44.43-20.5,19.69,20.65,22.75.38.41Z"/>
  </g>
  <g>
    <path class="cls-3" d="M104.89,76.06l-6.17,13.69c0,15.59,30.36,15.62,34.31,15.62h0c3.94,0,13.96,1.51,13.96,1.51-2.74-26.39-24.87-38.22-24.87-38.22l-17.23,7.41Z"/>
    <path class="cls-1" d="M98.79,52.58v38.53s2.32-5.28,8.77-8.49h0c10.31-5.16,36.7-17.6,39.44-47.63,0,0-10.62,1.81-16.08,2.72h0c-5.46.9-32.01,1.21-32.12,14.87Z"/>
  </g>
</svg>