<?xml version="1.0" encoding="utf-8"?>
<!-- Generator: Adobe Illustrator 18.0.0, SVG Export Plug-In . SVG Version: 6.00 Build 0)  -->
<!DOCTYPE svg PUBLIC "-//W3C//DTD SVG 1.1//EN" "http://www.w3.org/Graphics/SVG/1.1/DTD/svg11.dtd">
<svg version="1.1" id="Layer_1" xmlns="http://www.w3.org/2000/svg" xmlns:xlink="http://www.w3.org/1999/xlink" x="0px" y="0px"
	 viewBox="0 0 150 100" enable-background="new 0 0 150 100" xml:space="preserve">
<g>
	<g opacity="0.6">
		<path fill="#9D7725" d="M25.5,85.1h-0.4v-3.6h-1.2v-0.3h2.9v0.3h-1.3V85.1z"/>
		<path fill="#9D7725" d="M28.2,85.1h-0.4v-4h0.4V85.1z"/>
		<path fill="#9D7725" d="M33.4,85.1H33l0-3.4l-1.3,3.4h-0.3l-1.3-3.4l0,3.4h-0.4v-4h0.4l1.3,3.4l1.3-3.4h0.5V85.1z"/>
		<path fill="#9D7725" d="M37.8,85.1h-2.7v-4h2.6v0.3h-2.2v1.4h2v0.3h-2v1.5h2.3V85.1z"/>
		<path fill="#9D7725" d="M41.8,85.1h-2.6v-4h0.4v3.6h2.2V85.1z"/>
		<path fill="#9D7725" d="M45.6,85.1h-2.7v-4h2.6v0.3h-2.2v1.4h2v0.3h-2v1.5h2.3V85.1z"/>
		<path fill="#9D7725" d="M49.2,82.1c0-0.1-0.1-0.2-0.2-0.4c-0.2-0.3-0.5-0.4-0.9-0.4c-0.4,0-0.9,0.2-0.9,0.7c0,0.5,0.4,0.6,0.7,0.7
			c0.1,0,0.7,0.2,0.8,0.2c0.2,0.1,0.9,0.3,0.9,1c0,0.6-0.5,1.2-1.5,1.2c-0.4,0-0.7-0.1-0.9-0.2c-0.3-0.2-0.5-0.5-0.5-0.9L47,84
			c0,0.2,0,0.3,0.1,0.5c0.2,0.4,0.6,0.5,1,0.5c0.8,0,1.1-0.4,1.1-0.8c0-0.3-0.1-0.4-0.2-0.5c-0.2-0.2-0.4-0.2-0.9-0.3
			c-0.6-0.1-1.2-0.4-1.2-1.1c0-0.8,0.7-1,1.3-1c1,0,1.3,0.6,1.4,0.9L49.2,82.1z"/>
		<path fill="#9D7725" d="M53.2,82.1c0-0.1-0.1-0.2-0.2-0.4c-0.2-0.3-0.5-0.4-0.9-0.4c-0.4,0-0.9,0.2-0.9,0.7c0,0.5,0.4,0.6,0.7,0.7
			c0.1,0,0.7,0.2,0.8,0.2c0.2,0.1,0.9,0.3,0.9,1c0,0.6-0.5,1.2-1.5,1.2c-0.4,0-0.7-0.1-0.9-0.2c-0.3-0.2-0.5-0.5-0.5-0.9l0.4-0.2
			c0,0.2,0,0.3,0.1,0.5c0.2,0.4,0.6,0.5,1,0.5c0.8,0,1.1-0.4,1.1-0.8c0-0.3-0.1-0.4-0.2-0.5c-0.2-0.2-0.4-0.2-0.9-0.3
			c-0.6-0.1-1.2-0.4-1.2-1.1c0-0.8,0.7-1,1.3-1c1,0,1.3,0.6,1.4,0.9L53.2,82.1z"/>
		<path fill="#9D7725" d="M60.1,85.1h-0.4v-1.9h-2.4v1.9h-0.4v-4h0.4V83h2.4v-1.8h0.4V85.1z"/>
		<path fill="#9D7725" d="M64.5,85.1h-2.7v-4h2.6v0.3h-2.2v1.4h2v0.3h-2v1.5h2.3V85.1z"/>
		<path fill="#9D7725" d="M69,85.1h-0.5l-1.2-1.7h-0.9v1.7h-0.4v-4h1.1c0.7,0,0.9,0,1.1,0.1c0.6,0.2,0.7,0.9,0.7,1
			c0,0.4-0.2,0.6-0.3,0.8c-0.3,0.3-0.7,0.3-0.9,0.3L69,85.1z M66.3,83.1h0.9c0.3,0,0.5,0,0.7,0c0.4-0.1,0.6-0.4,0.6-0.7
			c0-0.4-0.2-0.7-0.6-0.8c-0.1,0-0.2,0-0.7,0h-0.9V83.1z"/>
		<path fill="#9D7725" d="M70.7,85.1h-0.4v-4h0.4V85.1z"/>
		<path fill="#9D7725" d="M73.4,85.1h-0.4v-3.6h-1.2v-0.3h2.9v0.3h-1.2V85.1z"/>
		<path fill="#9D7725" d="M78.3,85.1h-0.4L77.4,84h-1.8l-0.4,1.2h-0.4l1.6-4h0.3L78.3,85.1z M77.3,83.6l-0.8-2l-0.8,2H77.3z"/>
		<path fill="#9D7725" d="M82.3,85.1H82v-0.7c0,0.1-0.2,0.4-0.5,0.6c-0.2,0.1-0.4,0.1-0.7,0.1c-1.1,0-1.7-0.9-1.7-2
			c0-1.2,0.6-2.1,1.8-2.1c1,0,1.3,0.7,1.5,1L82,82.3c0-0.2-0.2-0.9-1.1-0.9c-0.8,0-1.4,0.7-1.4,1.8c0,1,0.4,1.7,1.3,1.7
			c0.9,0,1.2-0.9,1.2-1.5h-1.5v-0.3h1.8V85.1z"/>
		<path fill="#9D7725" d="M86.8,85.1H84v-4h2.6v0.3h-2.2v1.4h2v0.3h-2v1.5h2.3V85.1z"/>
		<path fill="#9D7725" d="M91.9,81.2v2.3c0,0.3,0,0.8-0.1,1c-0.2,0.7-0.8,0.7-1,0.7c-0.2,0-0.6,0-0.9-0.3c-0.3-0.3-0.3-0.6-0.3-0.9
			l0.4-0.1c0,0.1,0,0.1,0,0.2c0,0.4,0.2,0.8,0.8,0.8c0.7,0,0.7-0.5,0.7-0.9c0-0.2,0-0.3,0-0.6v-2.1H91.9z"/>
		<path fill="#9D7725" d="M96.4,85.1h-2.7v-4h2.6v0.3H94v1.4h2v0.3h-2v1.5h2.3V85.1z"/>
		<path fill="#9D7725" d="M100.8,85.1h-0.3l-0.9-3.2l-0.9,3.2h-0.3l-1.2-4h0.4l0.9,3.3l0.9-3.3h0.3l1,3.3l0.9-3.3h0.4L100.8,85.1z"
			/>
		<path fill="#9D7725" d="M105.8,85.1H103v-4h2.6v0.3h-2.2v1.4h2v0.3h-2v1.5h2.3V85.1z"/>
		<path fill="#9D7725" d="M109.8,85.1h-2.6v-4h0.4v3.6h2.2V85.1z"/>
		<path fill="#9D7725" d="M113.4,85.1h-2.6v-4h0.4v3.6h2.2V85.1z"/>
		<path fill="#9D7725" d="M117.1,85.1h-2.7v-4h2.6v0.3h-2.2v1.4h2v0.3h-2v1.5h2.3V85.1z"/>
		<path fill="#9D7725" d="M121.6,85.1h-0.5l-1.2-1.7H119v1.7h-0.4v-4h1.1c0.7,0,0.9,0,1.1,0.1c0.6,0.2,0.7,0.9,0.7,1
			c0,0.4-0.2,0.6-0.3,0.8c-0.3,0.3-0.7,0.3-0.9,0.3L121.6,85.1z M119,83.1h0.9c0.3,0,0.5,0,0.7,0c0.4-0.1,0.6-0.4,0.6-0.7
			c0-0.4-0.2-0.7-0.6-0.8c-0.1,0-0.2,0-0.7,0H119V83.1z"/>
		<path fill="#9D7725" d="M124.1,85.1h-0.4v-1.6l-1.5-2.3h0.4l1.2,2l1.3-2h0.5l-1.5,2.3V85.1z"/>
	</g>
	<g>
		<g>
			<path fill="#9D7725" d="M90.6,16c-1.2,1.1-10.6,10.2,0,14.5C101.2,26.3,91.8,17.1,90.6,16z"/>
			<path fill="#9D7725" d="M95.7,14.8c0,0-2.4,0-3.2,2.4c0,0,5.9,5.9,2.2,11.2C94.8,28.4,102.3,21.8,95.7,14.8z"/>
			<path fill="#9D7725" d="M88.7,17.2c-0.8-2.4-3.1-2.4-3.1-2.4c-6.7,7.1,0.9,13.7,0.9,13.7C82.8,23.1,88.7,17.2,88.7,17.2z"/>
		</g>
		<path fill="#9D7725" d="M105.3,51.5c-0.3-0.2-0.6-0.7-0.8-1.3c-0.2-0.6-0.5-1.2-0.7-1.9c-0.2-0.6-0.4-1.2-0.6-1.7
			c-0.2-0.5-0.3-0.8-0.5-0.8c0.1,0,0.2-0.1,0.2-0.2v-0.1c0-0.4-0.1-0.8-0.3-1.3c-0.2-0.4-0.3-0.9-0.3-1.3h-0.2c0-0.2,0-0.4,0.1-0.5
			c0-0.1,0-0.2-0.2-0.4v-2.7c0-1.2,0-2.3,0.1-3.5c0.1-1.2,0.2-2.3,0.4-3.4v-0.1v-0.1c0-0.1-0.1-0.2-0.2-0.2h-0.1
			c-0.2,0-0.4,0.1-0.7,0.3c-0.3,0.2-0.6,0.4-0.9,0.7c-0.3,0.3-0.6,0.5-0.8,0.8c-0.2,0.3-0.4,0.4-0.5,0.5c-0.1,0.1-0.1,0.1-0.2,0.2
			l0,0c0.1,0,0.1,0.1,0.1,0.2c0,0.1,0,0.2-0.1,0.2c-0.1,0-0.1-0.1-0.1-0.2c0,0,0,0,0-0.1c-0.3,0.3-0.6,0.6-1,0.9
			c-0.5,0.4-1,0.8-1.6,1.2c-0.6,0.4-1.2,0.7-1.7,1.1c-0.6,0.3-1.1,0.6-1.6,0.8c-0.3,0.1-0.8,0.3-1.3,0.6c-0.6,0.2-1,0.4-1.3,0.7
			c-0.3,0.2-0.6,0.5-0.9,0.9c-0.3,0.3-0.4,0.7-0.4,1.1c0,0.4,0.1,0.7,0.3,1c0.2,0.3,0.4,0.5,0.6,0.9c0.1-0.3,0.3-0.6,0.6-0.8
			c0.3-0.2,0.6-0.4,0.8-0.6c-0.1-0.1-0.3-0.2-0.4-0.5c-0.1-0.3-0.2-0.5-0.2-0.6c0.7-0.6,1.3-1.1,1.9-1.5c0.5-0.4,1.1-0.8,1.8-1.3
			c0.1-0.1,0.3-0.2,0.4-0.3c-0.1,0-0.1-0.1-0.1-0.2c0-0.1,0-0.2,0.1-0.2c0.1,0,0.1,0.1,0.1,0.2c0,0,0,0.1,0,0.1
			c0.4-0.3,0.9-0.6,1.3-1c0.6-0.4,1.1-0.8,1.5-1.1c0.4-0.3,0.7-0.5,0.8-0.5v0.3c0,0.4-0.1,0.7-0.2,1.1c-0.2,0.3-0.4,0.7-0.6,1
			c-0.3,0.3-0.5,0.6-0.8,0.9c-0.3,0.3-0.5,0.6-0.7,0.8c-0.6,0.8-1.2,1.7-2,2.7c-0.8,1-1.6,2.2-2.3,3.3c-0.8,1.2-1.4,2.3-1.9,3.5
			c-0.5,1.2-0.8,2.3-0.8,3.2c0,0.4,0,0.7,0.1,1.1c0.1,0.4,0.2,0.8,0.4,1.2c0.2,0.4,0.4,0.7,0.7,0.9c0.3,0.2,0.7,0.4,1.2,0.4
			c0.5,0,0.9-0.2,1.2-0.5c0.3-0.3,0.6-0.6,1-0.9c0.2-0.1,0.4-0.2,0.6-0.3c0.2,0,0.4-0.2,0.5-0.4c0,0,0-0.1,0-0.2
			c0-0.1-0.1-0.1-0.1-0.2h0.5c0,0,0.1-0.1,0.2-0.3c0.1-0.1,0.3-0.3,0.4-0.6c0.2-0.2,0.3-0.4,0.4-0.6c0,0,0.1-0.1,0.1-0.2
			c0-0.1,0.1-0.1,0.1-0.2l2.7-3.5h0.2c0.2,0.4,0.3,0.7,0.4,0.9c0.1,0.2,0.2,0.7,0.5,1.4c0.3,0.7,0.6,1.4,1,2.2
			c0.4,0.8,0.7,1.5,1,2.1c0.3,0.6,0.6,0.9,0.7,0.9h0.1c0.1-0.2,0.1-0.4,0.2-0.5c0.1-0.1,0.1-0.3,0.2-0.4c0.1-0.1,0.2-0.2,0.3-0.2
			c0-0.4,0.1-0.7,0.3-1c0.2-0.3,0.4-0.6,0.7-0.8c0.3-0.3,0.5-0.6,0.7-0.9c0.2-0.3,0.3-0.6,0.3-1c-0.2,0-0.4,0.1-0.5,0.2
			C105.4,51.1,105.3,51.3,105.3,51.5z M92.5,40.1c-0.1,0-0.1-0.1-0.1-0.2c0-0.1,0-0.2,0.1-0.2c0.1,0,0.1,0.1,0.1,0.2
			C92.6,40.1,92.6,40.1,92.5,40.1z M99.2,43.4c0,0.1,0,0.2-0.1,0.2c-0.1,0-0.1-0.1-0.1-0.2c0-0.1,0-0.2,0.1-0.2
			C99.2,43.2,99.2,43.3,99.2,43.4z M94.6,54.1c-0.1,0-0.1-0.1-0.1-0.2c0-0.1,0-0.2,0.1-0.2c0.1,0,0.1,0.1,0.1,0.2
			C94.8,54.1,94.7,54.1,94.6,54.1z M98.8,48.4c-0.3,0.5-0.7,1.1-1.2,1.7c-0.5,0.6-0.9,1.1-1.4,1.5c-0.5,0.4-0.8,0.7-1.1,0.7
			c-1,0-1.7-0.3-2.2-1c-0.5-0.6-0.8-1.4-0.8-2.4c0-0.5,0-1,0-1.5c0-0.5,0.2-1,0.5-1.4l4-5.5c0.1-0.2,0.2-0.4,0.4-0.8
			c0.2-0.3,0.4-0.7,0.7-1c0.3-0.3,0.5-0.6,0.8-0.9c0.2-0.3,0.5-0.4,0.6-0.4V42c-0.2,0.2-0.3,0.4-0.3,0.7v0.2c0,0,0,0.1,0.1,0.2
			c0.1,0.1,0.1,0.1,0.1,0.1c0,0.1,0,0.1-0.1,0.2c-0.1,0.1-0.1,0.1-0.1,0.2c0,0.1,0.1,0.3,0.3,0.5c0.2,0.2,0.3,0.4,0.3,0.6
			c0,0,0,0.1-0.1,0.3c-0.1,0.2-0.1,0.2-0.1,0.3v0.4c0,0.3,0,0.5,0.1,0.8c0.1,0.3,0.1,0.5,0.1,0.8C99.3,47.5,99.1,47.8,98.8,48.4z
			 M99.3,45.3c-0.1,0-0.1-0.1-0.1-0.2c0-0.1,0-0.2,0.1-0.2c0.1,0,0.1,0.1,0.1,0.2C99.4,45.3,99.4,45.3,99.3,45.3z M103.2,47.8
			c-0.1,0-0.1-0.1-0.1-0.2c0-0.1,0.1-0.2,0.1-0.2c0.1,0,0.1,0.1,0.1,0.2C103.4,47.7,103.3,47.8,103.2,47.8z M128.2,37.8
			c0,0-0.1-0.1-0.2-0.3c-0.1-0.2-0.2-0.4-0.4-0.6c-0.1-0.2-0.3-0.4-0.4-0.6c-0.1-0.2-0.2-0.3-0.2-0.3c0,0-0.1-0.1-0.3-0.1
			c-0.2-0.1-0.3-0.1-0.4-0.1c-0.2,0-0.4-0.1-0.6-0.2v-0.3c-2,0-4,0.4-5.9,1.1c-1.9,0.8-3.7,1.7-5.4,2.8c0,0-0.1,0-0.2,0.1
			c-0.1,0.1-0.2,0.2-0.3,0.3c-0.1,0.1-0.3,0.2-0.4,0.3c-0.1,0.1-0.2,0.1-0.2,0.1H113h-0.3c-0.1-0.3-0.2-0.6-0.2-0.8
			c0-0.2,0-0.5,0-0.8c0-1,0.1-2.1,0.3-3.2c0.2-1.1,0.5-2.1,0.7-3.1v-0.2c0.5-0.7,1-1.5,1.4-2.3c0.4-0.8,0.9-1.6,1.5-2.2
			c0.8-0.9,1.6-1.9,2.5-2.8c0.9-0.9,1.7-1.9,2.5-2.8c0.1-0.2,0.3-0.5,0.6-0.8c0.2-0.3,0.5-0.6,0.7-0.9c0.2-0.3,0.5-0.7,0.8-1.1v-0.4
			c-0.2,0-0.5,0-0.8,0.1c-0.3,0.1-0.7,0.2-1,0.3c-0.3,0.1-0.7,0.2-1,0.4c-0.3,0.1-0.6,0.2-0.8,0.3c-0.7,0.2-1.4,0.3-2.2,0.4
			c-0.8,0.1-1.5,0.2-2.2,0.4c-0.1,0.1-0.2,0.1-0.3,0.2c-0.1,0.1-0.2,0.1-0.3,0.1c-0.4,0.2-0.6,0.4-0.9,0.6c-0.2,0.2-0.4,0.4-0.7,0.7
			c-0.4,0.3-0.7,0.6-0.9,0.8c-0.2,0.2-0.6,0.5-0.9,0.8c0,0.1-0.1,0.2-0.1,0.2c-0.1,0.1-0.2,0.1-0.3,0.2c-0.1,0.1-0.1,0.1-0.2,0.2
			c0,0,0,0.1,0.1,0.1c0,0,0.2,0,0.5-0.1c0.3-0.1,0.6-0.2,0.9-0.3c0.3-0.1,0.6-0.2,1-0.3c0.3-0.1,0.5-0.1,0.6-0.1c0,0,0.1,0,0.1-0.1
			c0-0.1,0.1-0.1,0.1-0.1h0.2c0.7-0.1,1.4-0.3,2.2-0.6c0.8-0.3,1.5-0.4,2.2-0.4c0,0,0,0-0.2,0c-0.2,0-0.3,0.1-0.4,0.1
			c-0.1,0-0.2,0.1-0.1,0.2c0.1,0.1,0.3,0.2,0.9,0.2c-0.2,0.4-0.3,0.8-0.6,1.1c-0.2,0.3-0.5,0.6-0.7,0.9c-0.3,0.3-0.6,0.6-0.8,0.8
			c-0.3,0.3-0.6,0.5-0.9,0.8c-1,1.1-1.9,2.1-2.7,3c-0.8,0.9-1.5,1.9-2.2,2.9c-0.6,1-1.2,2.1-1.6,3.3c-0.4,1.2-0.8,2.6-1,4.2v0.1
			c0,0.6,0,1.3,0,2c0,0.7,0,1.4,0.1,2c0.1,0.7,0.2,1.4,0.4,2c0.2,0.7,0.5,1.2,0.9,1.8c0,0.1,0.1,0.2,0.2,0.4
			c0.1,0.2,0.2,0.4,0.3,0.5c0.1,0.2,0.2,0.4,0.3,0.5c0.1,0.2,0.1,0.3,0.2,0.3c0,0,0.1,0.1,0.2,0.2c0.1,0.1,0.2,0.3,0.4,0.4
			c0.1,0.2,0.3,0.3,0.4,0.4c0.1,0.1,0.2,0.2,0.2,0.2c0,0.1,0.1,0.1,0.2,0.2c0.1,0.1,0.3,0.2,0.4,0.4c0.1,0.1,0.2,0.3,0.3,0.4
			c0.1,0.1,0.1,0.3,0.1,0.4l0.4-0.3c0.1,0.1,0.3,0.4,0.6,0.8c0.3,0.4,0.5,0.6,0.6,0.7c0,0.1,0.2,0.2,0.4,0.3
			c0.2,0.1,0.5,0.3,0.7,0.5c0.3,0.2,0.6,0.4,1,0.6c0-0.3-0.1-0.6-0.2-0.9c-0.1-0.3-0.3-0.6-0.4-0.9c-0.2-1.1-0.5-2-0.8-2.9
			c-0.3-0.9-0.6-1.7-0.9-2.5c-0.3-0.8-0.6-1.7-0.9-2.5c-0.3-0.9-0.5-1.9-0.7-3v-0.6c0-0.4,0.3-0.8,1-1.3c0.7-0.5,1.4-0.9,2.3-1.3
			c0.9-0.4,1.7-0.8,2.6-1c0.8-0.3,1.4-0.4,1.8-0.4c0.2,0,0.5,0,0.8,0.1c0.3,0.1,0.6,0.2,0.9,0.3c0.3,0.1,0.6,0.3,0.8,0.5
			c0.2,0.2,0.3,0.4,0.3,0.6l0.9,2c0,0.1,0.1,0.2,0.2,0.2c0.2,0,0.2,0.1,0.2,0.2c0,0.1,0,0.2-0.1,0.4c-0.1,0.2-0.1,0.4-0.2,0.7
			c-0.1,0.2-0.1,0.5-0.1,0.7c0,0.2,0,0.3,0,0.3c0.3,0.3,0.4,0.7,0.4,1.3c0,0.6-0.2,1.3-0.5,2.2c-0.3,0.8-0.7,1.8-1.1,2.8
			c-0.5,1-1,2-1.6,3c-0.6,1-1.1,2-1.7,3c-0.6,1-1.2,1.9-1.7,2.7c-0.5,0.8-1,1.5-1.4,2.1c-0.4,0.6-0.7,1-1,1.1
			c-0.3,0.2-0.6,0.4-0.9,0.5c-0.3,0.1-0.7,0.2-1,0.2c-0.4,0.1-0.7,0.2-1,0.3c-0.3,0.1-0.6,0.3-0.8,0.5c0.1,0.1,0.1,0.1,0.2,0.1
			c0,0,0.1,0,0.1,0.1l0.3,0.1c0.1,0,0.1,0,0.2,0c0,0,0.1,0,0.1,0c0,0,0.1,0,0.1,0.1c0.1,0.1,0.1,0.2,0.2,0.2
			c0.3,0.1,0.5,0.2,0.6,0.3c0.1,0.1,0.4,0.2,0.8,0.3c0.4,0.2,1,0.3,1.6,0.5c0.6,0.2,1.2,0.3,1.9,0.5c0.7,0.2,1.4,0.3,2,0.3
			c0.6,0.1,1.2,0,1.6,0c0.5-0.1,0.8-0.3,1-0.6c-0.7-0.4-1.4-0.7-2.2-0.9c-0.8-0.2-1.6-0.5-2.3-0.9c-0.3-0.1-0.5-0.3-0.8-0.5
			c-0.3-0.2-0.4-0.4-0.4-0.4l0.1-0.2c2.5-2.8,4.4-5.3,5.9-7.6c1.5-2.3,2.7-4.4,3.5-6.2c0.8-1.8,1.4-3.4,1.7-4.7
			c0.3-1.3,0.5-2.4,0.5-3.3C128.6,39.6,128.4,38.7,128.2,37.8z M123.3,18.6c0.1,0,0.1,0.1,0.1,0.2c0,0.1,0,0.2-0.1,0.2
			c-0.1,0-0.2-0.1-0.2-0.2C123.1,18.7,123.2,18.6,123.3,18.6z M86.8,41.8c0.1,0.5,0,1.3-0.1,2.4c-0.2,1.1-0.4,2.3-0.7,3.5
			c-0.3,1.2-0.6,2.4-0.8,3.5c-0.3,1.1-0.5,1.9-0.8,2.4c-0.7,1.7-1.6,3.4-2.6,5.1c-1,1.7-2.1,3.4-3.3,5.1c-1.2,1.7-2.4,3.2-3.7,4.7
			c-1.2,1.5-2.5,2.8-3.7,4l2.2-2.7c0.2-0.4,0.5-0.7,0.8-1.1c0.3-0.4,0.6-0.7,0.9-1.1c0.3-0.4,0.6-0.7,0.8-1.1
			c0.3-0.4,0.5-0.7,0.7-0.9c0.7-1.2,1.4-2.3,2.1-3.2c0.6-0.9,1.2-1.8,1.7-2.7c0.5-0.9,0.9-1.8,1.2-2.8c0.3-1,0.6-2.2,0.7-3.5
			l0.7-2.6c0-0.3,0-0.9,0-1.8c0-0.8,0-1.7-0.1-2.6c0-0.9-0.1-1.8-0.1-2.6c0-0.8-0.1-1.3-0.2-1.6c-0.1,0-0.2-0.1-0.3-0.4
			c0-0.1,0-0.1-0.1-0.2c0.1,0,0.1,0,0.1-0.1c0-0.1,0-0.2-0.2-0.2c0,0-0.1,0-0.1,0.1c-0.1-0.2-0.2-0.4-0.3-0.6
			c-0.2-0.4-0.4-0.8-0.6-1.2c-0.2-0.4-0.4-0.6-0.6-0.7c-0.1-0.1-0.3-0.2-0.5-0.4c-0.2-0.2-0.4-0.3-0.7-0.5c-0.2-0.2-0.5-0.3-0.7-0.5
			c-0.2-0.1-0.5-0.2-0.7-0.2c-0.3,0-0.7,0-1.1,0.2c-0.4,0.2-0.7,0.4-1.1,0.6c-0.3,0.3-0.6,0.6-0.8,1c-0.2,0.4-0.3,0.8-0.3,1.2
			c0,0.1,0,0.2,0,0.5c0,0.2,0.1,0.4,0.3,0.4c0,0.1,0,0.3,0.1,0.5c0.1,0.2,0.1,0.5,0.2,0.7c0.1,0.3,0.1,0.5,0.2,0.7
			c0.1,0.2,0.1,0.4,0.1,0.5c0,0.1-0.1,0.1-0.4,0.3c-0.2,0.1-0.4,0.2-0.4,0.3c0,0.1,0.3,0.1,0.8,0.2c0,0.1,0,0.3,0,0.5
			c0,0.2,0,0.5-0.1,0.7c0,0.2-0.1,0.5-0.1,0.6c0,0.2,0,0.3-0.1,0.4c0,0.1,0,0.2-0.1,0.4c-0.1,0.2-0.1,0.4-0.2,0.6
			c-0.1,0.2-0.1,0.4-0.2,0.6c-0.1,0.2-0.2,0.4-0.2,0.4c0,0.1-0.1,0.2-0.2,0.4c-0.1,0.2-0.3,0.5-0.4,0.8c-0.1,0.3-0.3,0.6-0.5,0.9
			c-0.2,0.3-0.3,0.5-0.4,0.7c-0.1,0.2-0.2,0.4-0.4,0.8c-0.2,0.4-0.3,0.7-0.5,1.1c-0.2,0.4-0.4,0.7-0.6,0.9c-0.2,0.3-0.4,0.4-0.6,0.5
			c0.2-1,0.5-1.9,0.9-2.7c0.3-0.8,0.5-1.8,0.6-2.8c0-0.6,0.1-1.2,0.3-1.8c0.1-0.6,0.2-1.2,0-1.7c0.1,0,0.1-0.2,0-0.5
			c-0.1-0.3-0.1-0.7-0.2-1.1c-0.1-0.4-0.2-0.8-0.3-1.1c-0.1-0.3-0.2-0.5-0.2-0.6c-0.2-0.6-0.5-1.2-0.8-1.8c-0.4-0.6-0.8-1.2-1.2-1.7
			c-0.5-0.5-0.9-0.9-1.4-1.2c-0.5-0.3-1-0.4-1.4-0.4c-0.9,0.2-1.6,0.6-2.2,1.3c-0.6,0.7-1,1.6-1.3,2.5c-0.3,1-0.5,2-0.6,3
			c-0.1,1.1-0.1,2-0.1,2.8c0,0.7,0,1.4,0.1,2.1c0.1,0.7,0.2,1.4,0.5,2.1c0.2,0.7,0.5,1.3,0.9,1.9c0.4,0.6,0.8,1.1,1.4,1.4v0.1
			c0,0.1-0.1,0.2-0.2,0.2c-0.2,0-0.3,0-0.4,0c-0.5,0-0.8,0-1-0.1c-0.2,0-0.4-0.1-0.6-0.2c-0.2-0.1-0.3-0.3-0.5-0.5
			c-0.2-0.2-0.4-0.5-0.7-0.8c-1-0.8-1.8-1.7-2.5-2.8c-0.7-1-1.1-2.2-1.1-3.7c0-0.9,0-1.6,0.1-2.4c0.1-0.7,0.3-1.5,0.7-2.4
			c0.2-0.5,0.4-0.9,0.5-1.2c0.2-0.3,0.4-0.6,0.6-0.9c0.2-0.3,0.5-0.7,0.8-1.1c0.3-0.4,0.7-1,1.2-1.7c-0.2,0-0.4,0-0.7,0.1
			c-0.3,0.1-0.6,0.1-0.9,0.2c-0.3,0.1-0.6,0.1-1,0.2c-0.3,0.1-0.6,0.1-0.7,0.2c-0.1,0-0.2,0.1-0.3,0.3c-0.1,0.2-0.2,0.3-0.3,0.3
			c-0.3,0.3-0.6,0.4-1,0.4c-0.4,0-0.8,0.1-1.1,0.3v-0.1c0-0.1,0.1-0.2,0.2-0.3c0.1-0.1,0.3-0.3,0.4-0.4c0.2-0.1,0.4-0.3,0.7-0.5
			l4.3-1.6c0.1,0,0.2,0,0.5-0.1c0.3-0.1,0.6-0.2,0.9-0.4c0.3-0.1,0.6-0.3,0.9-0.4c0.3-0.1,0.5-0.2,0.7-0.2c0.1,0,0.3,0,0.6,0v1.3
			c0.3,0.1,0.4,0.1,0.5,0c0,0,0.2,0,0.4-0.1c0.2-0.1,0.4-0.2,0.6-0.3c0.2-0.1,0.4-0.2,0.6-0.2c0.2-0.1,0.3-0.1,0.4-0.1
			c0.1,0,0.3-0.1,0.3-0.1c0.1,0,0.2,0,0.2,0c0.1,0,0.1,0,0.2,0c0.1,0,0.1-0.1,0.2-0.2v0.4c0-0.1,0.1-0.2,0.2-0.2c0.1,0,0.2,0,0.3,0
			h0.2c0,0,0.1,0,0.1,0.1c0,0.1,0.1,0.1,0.1,0.1c0,0,0.1,0,0.2-0.1c0.1-0.1,0.2-0.1,0.2-0.1c0.3,0,0.7,0.1,1,0.4
			c0.4,0.3,0.7,0.6,1.1,1c0.4,0.4,0.7,0.8,1,1.1c0.3,0.4,0.6,0.7,0.7,0.9l3.6-3.3v0.1c0.3,0,0.7,0,1-0.1c0.3-0.1,0.7-0.1,1.1-0.1
			c0.2,0,0.5,0,0.8,0.1c0.3,0,0.6,0.1,1,0.1c0.3,0.1,0.6,0.1,1,0.2c0.3,0.1,0.6,0.2,0.7,0.3c0.1,0.1,0.3,0.3,0.4,0.5
			c0.1,0.2,0.3,0.4,0.4,0.6c0.1,0.2,0.3,0.4,0.4,0.5c0.2,0.2,0.4,0.3,0.6,0.3c0,0,0,0.2,0,0.4c0,0.3,0.1,0.4,0.2,0.4
			c0,0.3,0,0.4,0,0.5c0.1,0.1,0.1,0.2,0.2,0.2c0.1,0.1,0.2,0.1,0.3,0.2c0.1,0,0.2,0.2,0.3,0.3c0,0,0,0.2,0,0.4c0,0.2,0,0.5,0,0.8
			c0,0.3,0,0.5,0.1,0.7C86.5,41.9,86.6,41.9,86.8,41.8z M55.6,34.6c-0.1,0-0.2,0.1-0.4,0.2C55,34.9,54.9,35,54.8,35
			c-0.2,0.1-0.6,0.2-1,0.4c-0.4,0.1-0.9,0.3-1.3,0.4c-0.5,0.1-0.9,0.3-1.4,0.4c-0.4,0.1-0.8,0.2-0.9,0.2c-0.3,0-0.6,0-0.9-0.1
			c-0.3-0.1-0.6-0.1-0.9-0.1c-0.2,0-0.5,0.1-0.8,0.4c-0.3,0.2-0.6,0.5-1,0.8c-0.3,0.3-0.7,0.6-1,0.9c-0.3,0.3-0.6,0.4-0.8,0.5
			c0.2,0.2,0.4,0.4,0.6,0.4c0.3,0,0.5,0,0.8,0c0.7,0,1.4-0.1,2.1-0.4c0.7-0.3,1.3-0.4,2-0.4c0.1,0,0.2,0.1,0.2,0.2
			c0,0.1,0,0.2,0,0.3c0,0.2-0.1,0.5-0.3,0.9c-0.2,0.4-0.4,0.8-0.6,1.2c-0.2,0.4-0.5,0.8-0.7,1.2c-0.2,0.4-0.3,0.7-0.4,0.9
			c-0.1-0.1-0.3-0.1-0.5,0.2c-0.2,0.2-0.4,0.6-0.6,1.1c-0.2,0.5-0.4,1-0.6,1.6c0,0.1,0,0.2-0.1,0.3c0.1,0,0.1,0.1,0.1,0.2
			c0,0.2-0.1,0.2-0.2,0.2c0,0-0.1,0-0.1,0c-0.1,0.4-0.2,0.7-0.3,1.1c-0.1,0.6-0.2,1.1-0.3,1.5c-0.1,0.4-0.1,0.7-0.1,0.8
			c0,0.2,0,0.4,0,0.6c0,0.2,0.2,0.3,0.4,0.4c0,0-0.1,0-0.1,0.1c0,0.1-0.1,0.1-0.1,0.1c0,0.2,0,0.3,0.1,0.3c0.1,0.1,0.1,0.1,0.2,0.2
			c0.1,0.1,0.1,0.1,0.1,0.2c0,0.1,0,0.2,0,0.3l1.2,1.8c0.4-0.1,0.7,0,1,0.1c0.2,0.1,0.5,0.2,0.9,0.2h0.1c0,0,0.1-0.1,0.2-0.2
			c-0.1,0-0.2-0.1-0.2-0.2c0-0.2,0.1-0.3,0.2-0.3c0.1,0,0.1,0.1,0.1,0.3c0,0,0,0,0,0s0,0,0,0c0.2-0.3,0.4-0.4,0.4-0.5
			c0.1,0,0.2-0.1,0.5-0.1c0.3,0,0.5-0.1,0.5-0.1c0.1,0,0.2-0.1,0.4-0.2c0.2-0.1,0.4-0.3,0.6-0.4c0.2-0.1,0.4-0.3,0.6-0.4
			c0.2-0.1,0.3-0.2,0.4-0.3c0-0.1,0-0.1,0-0.2c0-0.1,0-0.1,0-0.2c0-0.1-0.2-0.3-0.6-0.4c-0.4-0.2-0.8-0.4-1.3-0.6
			c-0.5-0.2-0.9-0.5-1.3-0.8c-0.4-0.3-0.6-0.7-0.6-1.1c0-0.4,0-0.7,0.1-1c0.1-0.2,0.1-0.5,0.1-0.7c0-0.2-0.1-0.3-0.2-0.3
			c-0.1,0-0.2-0.1-0.2-0.3c0-0.1,0.1-0.5,0.3-1c0.2-0.6,0.5-1.2,0.8-2c0.3-0.8,0.7-1.6,1.1-2.4c0.4-0.8,0.8-1.6,1.1-2.3
			c0.4-0.7,0.7-1.2,1-1.7c0.3-0.4,0.5-0.6,0.6-0.5l1.3-1.6h-0.1H55.6z M46.9,37.7c-0.1,0-0.1-0.1-0.1-0.2c0-0.2,0-0.2,0.1-0.2
			c0.1,0,0.2,0.1,0.2,0.2C47.1,37.6,47,37.7,46.9,37.7z M48,37c-0.1,0-0.1-0.1-0.1-0.2c0-0.2,0-0.3,0.1-0.3c0.2,0,0.2,0.1,0.2,0.3
			C48.2,37,48.1,37,48,37z M46.7,51.2c-0.1,0-0.2-0.1-0.2-0.2c0-0.2,0.1-0.3,0.2-0.3c0.1,0,0.1,0.1,0.1,0.3
			C46.9,51.1,46.8,51.2,46.7,51.2z M51,50c0.1,0,0.1,0.1,0.1,0.2c0,0.2,0,0.2-0.1,0.2c-0.1,0-0.2-0.1-0.2-0.2
			C50.8,50.1,50.9,50,51,50z M41.5,43.7c0,0,0-0.1,0-0.4c0-0.2-0.1-0.4-0.1-0.7c0-0.3-0.1-0.5-0.1-0.7c0-0.2-0.1-0.3-0.1-0.4
			c-0.2-0.7-0.5-1.3-0.7-1.8c-0.3-0.5-0.5-0.9-0.8-1.3c-0.3-0.4-0.7-0.7-1.1-1c-0.4-0.3-0.9-0.6-1.4-0.9h-3.3
			c-0.3,0.3-0.6,0.4-1,0.3c-0.4-0.1-0.7-0.1-0.9,0c-0.2,0.1-0.5,0.2-0.6,0.3c-0.2,0.1-0.4,0.2-0.7,0.1c-0.4,0.3-0.9,0.6-1.5,1
			c-0.6,0.3-1.2,0.6-1.8,0.7c0.1-0.3,0.2-0.5,0.3-0.8c0.1-0.3,0.2-0.5,0.2-0.8h-0.2c0.1,0,0.3-0.1,0.4-0.3c0.1-0.2,0.2-0.4,0.3-0.6
			c0.1-0.2,0.1-0.4,0.2-0.6c0-0.2,0.1-0.4,0.1-0.4c0,0,0,0,0,0c0,0.1-0.2,0.1-0.4,0c-0.1,0-0.2,0.1-0.3,0.2
			c-0.2,0.1-0.3,0.2-0.5,0.2c-0.2,0.1-0.4,0.2-0.5,0.2c-0.2,0.1-0.3,0.1-0.3,0.1c-0.1,0.1-0.5,0.2-1,0.3c-0.5,0.2-1.1,0.4-1.7,0.6
			c-0.6,0.2-1.1,0.4-1.6,0.6c-0.5,0.2-0.7,0.4-0.7,0.5c0,0.2,0.1,0.3,0.4,0.3h0.2c0.1,0,0.3,0,0.5-0.1c0.2-0.1,0.4-0.1,0.4-0.1h0.1
			c0.1,0,0.3,0,0.6,0c0.3,0,0.6,0,0.9-0.1c0.3,0,0.6,0,0.8,0c0.2,0,0.3,0.1,0.2,0.2c-0.1,0.2-0.3,0.5-0.5,0.7
			c-0.2,0.2-0.4,0.4-0.7,0.6c-0.2,0.2-0.4,0.4-0.6,0.6c-0.2,0.2-0.3,0.3-0.3,0.5c0,0.4,0,0.6-0.1,0.7c0,0.1-0.1,0.2-0.1,0.2
			c0,0.1-0.1,0.1-0.1,0.3c0,0.1,0,0.4,0,0.8c-0.1,0-0.1,0.2-0.2,0.5c-0.1,0.3-0.2,0.7-0.2,1.1c-0.1,0.4-0.1,0.8-0.2,1.1
			c0,0.4-0.1,0.6-0.1,0.7c0,0,0,0.1,0.1,0.3c0.1,0.2,0.1,0.3,0.1,0.3c0,0,0,0.1-0.1,0.2c-0.1,0.1-0.1,0.2-0.1,0.2v0.1
			c0,0.4,0,0.9,0.1,1.4c0.1,0.5,0.2,1,0.5,1.6c0.3,0.6,0.7,1.2,1.3,1.9c0.6,0.7,1.4,1.4,2.5,2.2c0.1,0.1,0.2,0.1,0.3,0.2
			c0.2,0.1,0.3,0.2,0.5,0.2c0.2,0,0.3,0.1,0.4,0.1c0.1,0,0.2-0.1,0.3-0.2c-0.2-0.2-0.4-0.6-0.6-1.2c-0.2-0.6-0.4-1.2-0.6-1.8
			c-0.2-0.6-0.4-1.2-0.6-1.7c-0.2-0.5-0.3-0.8-0.4-0.9l0.4-0.2c-0.1-0.3-0.1-0.6-0.2-0.7c0-0.2,0-0.4,0-0.6c0-0.2,0-0.7,0-1.3
			c0-0.6,0.1-1.3,0.1-2c0-0.7,0.1-1.3,0.2-2c0.1-0.6,0.2-1,0.3-1.3c0.1-0.1,0.2-0.2,0.4-0.4c0.2-0.2,0.5-0.4,0.7-0.6
			c0.3-0.2,0.5-0.4,0.7-0.5c0.2-0.2,0.4-0.3,0.5-0.3h0.2c0,0,0.1,0,0.3-0.1c0.2-0.1,0.3-0.1,0.3-0.1c0.1,0,0.2,0,0.5,0
			c0.2,0,0.5,0,0.8,0.1c0.3,0,0.5,0,0.8,0.1c0.2,0,0.4,0,0.5,0c0.8,0.3,1.5,0.7,2.3,1.2c0.7,0.5,1.4,1.1,2,1.7c0,0.2,0,0.4,0,0.8
			c0.1,0.4,0.1,0.8,0.2,1.2c0.1,0.4,0.2,0.8,0.2,1.1c0.1,0.3,0.2,0.5,0.2,0.5v1.8c0,0.4,0,0.6,0,0.8c0,0.2,0.1,0.3,0.1,0.5
			c0,0.2,0.1,0.3,0.1,0.4c0,0.2,0,0.4,0,0.7c-0.1,0.8-0.3,1.7-0.3,2.6c-0.1,0.9-0.2,1.8-0.5,2.6c-0.2,0.4-0.4,1-0.7,1.7
			c-0.3,0.7-0.6,1.4-0.9,2.2c-0.3,0.8-0.6,1.5-0.9,2.2c-0.3,0.7-0.6,1.3-0.8,1.8c0,0.1-0.2,0.3-0.4,0.8c-0.3,0.5-0.6,0.9-0.9,1.4
			c-0.3,0.5-0.7,1.2-1.2,2.1c-0.7,1.2-1.3,2.2-1.9,2.9c-0.6,0.7-1.1,1.4-1.6,2.1c0,0-0.1,0.1-0.1,0.1c0.6-0.6,1.2-1.2,1.7-1.9
			c0.6-0.7,1.1-1.3,1.6-2c0.3-0.4,0.8-1.1,1.5-2.2c0.7-1.1,1.4-2.3,2.1-3.7c0.8-1.4,1.6-2.9,2.4-4.5c0.8-1.6,1.6-3.2,2.2-4.7
			c0.7-1.5,1.2-2.9,1.6-4.1c0.4-1.2,0.6-2.2,0.6-2.8v-1.9c0-0.1,0-0.2,0-0.4C41.5,44,41.5,43.8,41.5,43.7z M22.9,46.6
			c0-0.1,0.1-0.2,0.2-0.2c0.1,0,0.1,0.1,0.1,0.2c0,0.1,0,0.2-0.1,0.2C22.9,46.8,22.9,46.7,22.9,46.6z M23.3,49.7
			c-0.1,0-0.1-0.1-0.1-0.2c0-0.1,0-0.2,0.1-0.2c0.1,0,0.2,0.1,0.2,0.2C23.5,49.7,23.4,49.7,23.3,49.7z M26.4,38.3
			c-0.1,0-0.2-0.1-0.2-0.2c0-0.1,0.1-0.2,0.2-0.2c0.1,0,0.1,0.1,0.1,0.2C26.5,38.2,26.5,38.3,26.4,38.3z M27.1,39.6
			c-0.1,0-0.2-0.1-0.2-0.2c0-0.1,0.1-0.2,0.2-0.2c0.1,0,0.2,0.1,0.2,0.2C27.3,39.6,27.2,39.6,27.1,39.6z M56,29.9
			c0.2,0.3,0.3,0.5,0.3,0.6c0,0.2-0.1,0.3-0.2,0.4c-0.1,0.1-0.3,0.2-0.5,0.3c-0.2,0.1-0.4,0.2-0.5,0.2c-0.2,0.1-0.3,0.1-0.4,0.1
			h-0.1c-0.8,0-1.4-0.1-1.8-0.4c-0.4-0.2-0.6-0.8-0.6-1.6c0-0.1,0.1-0.2,0.2-0.3c0.1-0.1,0.3-0.2,0.5-0.3c0.2-0.1,0.4-0.2,0.5-0.3
			c0.2-0.1,0.3-0.2,0.4-0.3c0,0,0.1-0.1,0.1-0.2c0-0.1,0.1-0.2,0.1-0.2h0.1c0.1,0,0.3,0.1,0.5,0.3c0.2,0.2,0.5,0.5,0.7,0.8
			C55.6,29.4,55.8,29.7,56,29.9z"/>
	</g>
</g>
<g>
</g>
<g>
</g>
<g>
</g>
<g>
</g>
<g>
</g>
<g>
</g>
</svg>
