<svg version="1.0" id="Layer_1" xmlns="http://www.w3.org/2000/svg" xmlns:xlink="http://www.w3.org/1999/xlink" x="0px" y="0px" viewBox="0 0 500 500" style="enable-background:new 0 0 500 500;" xml:space="preserve"><g><path d="M256.47,477.33c-57.32,0-114.65,0.03-171.97-0.02c-16.24-0.01-18.96-2.68-18.82-19.05c0.21-25.02-1.87-50.39,1.52-74.99 c10.11-73.42,65.39-124.86,139.47-129.45c36.16-2.24,72.74-1.93,108.88,0.73c73.12,5.39,132.09,70.01,133.34,143.49 c0.35,20.59,0.17,41.18,0.1,61.78c-0.05,14.23-3.36,17.47-18.11,17.48C372.73,477.37,314.6,477.33,256.47,477.33z M425.08,454 c0-22.4,1.59-43.49-0.3-64.26c-5.73-63.19-59.23-111.92-122.91-112.99c-27.44-0.46-54.91-0.5-82.35-0.04 C122.28,278.36,74.04,356.27,90.67,454C201.88,454,313.15,454,425.08,454z"></path><path d="M258.99,228.97c-56.53,1.22-103.69-44.35-105.18-101.63c-1.45-55.93,45.2-104.13,101.82-105.21 c56.42-1.07,103.7,44.72,105.17,101.85C362.25,180.15,316.09,227.74,258.99,228.97z M257.66,45.65 c-44.39-0.14-80.27,35.27-80.47,79.4c-0.2,44.27,35.28,80.55,79.17,80.96c44.64,0.41,81.07-35.65,81.08-80.26 C337.44,81.4,301.97,45.78,257.66,45.65z"></path></g></svg>