<?xml version="1.0" encoding="utf-8"?>
<!-- Generator: Adobe Illustrator 18.0.0, SVG Export Plug-In . SVG Version: 6.00 Build 0)  -->
<!DOCTYPE svg PUBLIC "-//W3C//DTD SVG 1.1//EN" "http://www.w3.org/Graphics/SVG/1.1/DTD/svg11.dtd" [
	<!ENTITY ns_flows "http://ns.adobe.com/Flows/1.0/">
	<!ENTITY ns_extend "http://ns.adobe.com/Extensibility/1.0/">
	<!ENTITY ns_ai "http://ns.adobe.com/AdobeIllustrator/10.0/">
	<!ENTITY ns_graphs "http://ns.adobe.com/Graphs/1.0/">
]>
<svg version="1.1" id="Layer_1" xmlns:x="&ns_extend;" xmlns:i="&ns_ai;" xmlns:graph="&ns_graphs;"
	 xmlns="http://www.w3.org/2000/svg" xmlns:xlink="http://www.w3.org/1999/xlink" xmlns:a="http://ns.adobe.com/AdobeSVGViewerExtensions/3.0/"
	 x="0px" y="0px" viewBox="0 0 150 100" enable-background="new 0 0 150 100" xml:space="preserve">
<g>
	
		<linearGradient id="SVGID_1_" gradientUnits="userSpaceOnUse" x1="18.3704" y1="33.2766" x2="110.6147" y2="33.2766" gradientTransform="matrix(1 0 0 -1 0 100)">
		<stop  offset="0" style="stop-color:#F05A28"/>
		<stop  offset="1" style="stop-color:#EC297B"/>
		<a:midPointStop  offset="0" style="stop-color:#F05A28"/>
		<a:midPointStop  offset="0.5" style="stop-color:#F05A28"/>
		<a:midPointStop  offset="1" style="stop-color:#EC297B"/>
	</linearGradient>
	<path fill="url(#SVGID_1_)" d="M18.9,64.9L18.9,64.9c0.2-0.4,0.4-0.8,0.8-1.2c0.4-0.4,1-0.6,1.8-0.6c1.1,0,1.9,0.4,2.4,1.2
		s0.8,1.6,0.8,2.7c0,1.1-0.3,2-0.8,2.7c-0.5,0.7-1.3,1.1-2.4,1.1c-0.6,0-1.1-0.2-1.5-0.4c-0.4-0.3-0.8-0.7-1-1.2l0,0v4.2h-0.6v-9.8
		h0.5V64.9z M21.6,70.1c0.9,0,1.6-0.4,2-1c0.4-0.6,0.6-1.4,0.6-2.3c0-0.9-0.2-1.7-0.6-2.3c-0.4-0.7-1.1-1.1-2-1.1
		c-0.9,0-1.6,0.4-2,1.1c-0.4,0.6-0.6,1.4-0.6,2.3c0,0.9,0.2,1.6,0.5,2.3C19.9,69.8,20.5,70.1,21.6,70.1z M26.7,64.8L26.7,64.8
		c0.2-0.5,0.5-0.9,1.1-1.2c0.5-0.4,1.1-0.4,1.7-0.4v0.5c-0.3-0.1-0.6,0-0.9,0.1c-0.4,0.1-0.7,0.4-1.1,0.6c-0.3,0.3-0.4,0.5-0.5,0.8
		c-0.1,0.3-0.2,0.7-0.3,1.2v4h-0.5v-7.3h0.5V64.8z M30.2,66.9c0,0.9,0.2,1.6,0.6,2.3c0.4,0.6,1.1,1,1.9,1c1.4,0,2.2-0.7,2.5-2.1h0.5
		c-0.4,1.8-1.3,2.6-3,2.7c-1.1,0-1.8-0.4-2.3-1.1C30,68.9,29.7,68,29.7,67c0-1.1,0.3-1.9,0.7-2.7c0.5-0.8,1.3-1.2,2.4-1.2
		c1.1,0,1.9,0.4,2.4,1.2c0.5,0.7,0.7,1.6,0.7,2.7L30.2,66.9L30.2,66.9z M35.4,66.4c0-0.8-0.3-1.5-0.7-2c-0.4-0.6-1.1-0.9-1.9-0.9
		c-0.8,0-1.4,0.4-1.9,1c-0.4,0.6-0.7,1.2-0.8,2L35.4,66.4L35.4,66.4z M42.7,65.4c-0.1-0.6-0.3-1.2-0.7-1.5c-0.4-0.4-1-0.5-1.7-0.5
		c-0.9,0-1.6,0.4-2,1c-0.4,0.6-0.7,1.4-0.7,2.2c0,1,0.3,1.8,0.7,2.5c0.4,0.6,1.2,1,2,1c0.7,0,1.2-0.3,1.7-0.6c0.4-0.4,0.7-1,0.8-1.6
		h0.5c-0.1,0.9-0.4,1.5-1,2c-0.5,0.4-1.2,0.7-1.9,0.7c-1.2,0-1.9-0.4-2.5-1.2c-0.5-0.7-0.8-1.7-0.8-2.7c0-1.1,0.3-1.9,0.8-2.7
		c0.5-0.7,1.3-1.1,2.4-1.1c0.8,0,1.4,0.2,1.9,0.6c0.5,0.4,0.9,1,0.9,1.9L42.7,65.4z M44.8,61.8v-1.4h0.5v1.4H44.8z M44.8,70.5v-7.3
		h0.5v7.3H44.8z M46.8,66.9c0-1.1,0.3-1.9,0.8-2.7c0.5-0.7,1.3-1.1,2.4-1.2c1.1,0,1.9,0.4,2.4,1.2c0.5,0.7,0.8,1.6,0.8,2.7
		c0,1.1-0.3,1.9-0.8,2.7c-0.5,0.7-1.3,1.2-2.4,1.2s-1.9-0.4-2.4-1.2C47,68.8,46.8,67.9,46.8,66.9z M47.2,66.9c0,0.9,0.3,1.7,0.7,2.3
		c0.4,0.7,1.2,1,2,1.1c0.9,0,1.6-0.4,2-1.1c0.4-0.6,0.7-1.4,0.7-2.3c0-0.9-0.3-1.7-0.7-2.3c-0.4-0.6-1.2-1-2-1s-1.6,0.4-2,1
		C47.5,65.2,47.2,65.9,47.2,66.9z M60.2,70.5h-0.5V69l0,0c-0.2,0.5-0.5,1-1,1.2c-0.4,0.3-1,0.4-1.6,0.4c-0.6,0-1.1-0.2-1.4-0.4
		c-0.4-0.2-0.6-0.4-0.7-0.8c-0.2-0.4-0.3-0.6-0.3-1c0-0.3-0.1-0.6-0.1-0.8v-4.5h0.5v4.5c0,0.2,0,0.4,0.1,0.7c0,0.3,0.1,0.5,0.3,0.8
		c0.2,0.3,0.4,0.4,0.6,0.6c0.3,0.2,0.6,0.3,1.1,0.3c0.8,0,1.4-0.3,1.9-0.9c0.4-0.5,0.7-1.2,0.7-2.2v-3.9h0.5L60.2,70.5L60.2,70.5z
		 M62.2,68c0.1,0.7,0.3,1.2,0.7,1.5c0.4,0.4,1,0.5,1.6,0.5c0.3,0,0.5,0,0.7-0.1c0.3-0.1,0.5-0.1,0.7-0.3c0.3-0.1,0.4-0.3,0.5-0.4
		c0.2-0.2,0.2-0.4,0.2-0.7c0-0.4-0.1-0.5-0.2-0.8c-0.2-0.2-0.4-0.4-0.5-0.4c-0.2-0.1-0.4-0.2-0.8-0.3c-0.3-0.1-0.6-0.1-0.9-0.2
		c-0.3-0.1-0.6-0.2-0.9-0.3s-0.5-0.2-0.8-0.4c-0.3-0.2-0.4-0.4-0.5-0.6c-0.2-0.3-0.3-0.5-0.3-0.9s0.1-0.7,0.3-0.9
		c0.2-0.3,0.4-0.4,0.6-0.5c0.5-0.3,1.1-0.4,1.7-0.4c0.8,0,1.4,0.2,1.9,0.5c0.4,0.4,0.7,1,0.7,1.8h-0.5c0-0.7-0.2-1.2-0.6-1.4
		c-0.4-0.3-0.9-0.4-1.5-0.4c-0.5,0-1,0.1-1.3,0.3c-0.2,0.1-0.4,0.3-0.4,0.4s-0.2,0.4-0.2,0.7c0,0.3,0.1,0.5,0.2,0.7
		c0.1,0.2,0.3,0.4,0.5,0.4c0.1,0.1,0.3,0.1,0.4,0.2c0.1,0,0.3,0.1,0.4,0.1c0.2,0,0.3,0.1,0.4,0.1c0.2,0,0.3,0.1,0.4,0.1
		c0.7,0.1,1.3,0.3,1.8,0.6c0.2,0.2,0.4,0.4,0.5,0.6c0.1,0.3,0.2,0.5,0.2,1c0,0.4-0.1,0.7-0.3,1c-0.2,0.3-0.4,0.4-0.7,0.6
		c-0.3,0.2-0.5,0.3-0.9,0.4c-0.4,0.1-0.6,0.1-1,0.1c-0.8,0-1.5-0.3-1.9-0.7c-0.5-0.4-0.8-1.1-0.9-1.9L62.2,68L62.2,68z M73,68
		c0.1,0.7,0.3,1.2,0.7,1.5c0.4,0.4,1,0.5,1.6,0.5c0.3,0,0.4,0,0.7-0.1c0.3-0.1,0.5-0.1,0.7-0.3c0.3-0.1,0.4-0.3,0.5-0.4
		c0.2-0.2,0.3-0.4,0.3-0.7c0-0.4-0.1-0.5-0.2-0.8c-0.2-0.2-0.4-0.4-0.5-0.4c-0.2-0.1-0.4-0.2-0.8-0.3c-0.3-0.1-0.6-0.1-0.9-0.2
		c-0.4-0.1-0.6-0.2-0.9-0.3s-0.5-0.2-0.8-0.4c-0.3-0.2-0.4-0.4-0.5-0.6c-0.2-0.3-0.2-0.5-0.2-0.9s0.1-0.7,0.3-0.9
		c0.2-0.3,0.4-0.4,0.6-0.5c0.5-0.3,1.1-0.4,1.7-0.4c0.8,0,1.4,0.2,1.9,0.5c0.4,0.4,0.7,1,0.7,1.8h-0.5c0-0.7-0.2-1.2-0.6-1.4
		c-0.4-0.3-0.9-0.4-1.5-0.4c-0.5,0-1,0.1-1.3,0.3c-0.2,0.1-0.4,0.3-0.4,0.4s-0.2,0.4-0.2,0.7c0,0.3,0.1,0.5,0.3,0.7
		c0.1,0.2,0.3,0.4,0.5,0.4c0.1,0.1,0.3,0.1,0.4,0.2c0.1,0,0.3,0.1,0.4,0.1c0.2,0,0.3,0.1,0.4,0.1c0.2,0,0.3,0.1,0.4,0.1
		c0.7,0.1,1.3,0.3,1.8,0.6c0.2,0.2,0.4,0.4,0.5,0.6c0.1,0.3,0.2,0.5,0.2,1c0,0.4-0.1,0.7-0.3,1c-0.2,0.3-0.4,0.4-0.6,0.6
		c-0.3,0.2-0.5,0.3-0.9,0.4c-0.4,0.1-0.6,0.1-1,0.1c-0.8,0-1.5-0.3-2-0.7c-0.5-0.4-0.8-1.1-0.9-1.9L73,68L73,68z M82.1,63.7h-1.5v5
		c0,0.5,0.1,0.9,0.4,1.1c0.3,0.2,0.6,0.2,1.2,0.2v0.4c-0.3,0-0.5,0-0.8,0c-0.3,0-0.4-0.1-0.6-0.2c-0.2-0.1-0.4-0.3-0.4-0.5
		c-0.1-0.3-0.2-0.5-0.2-1v-5h-1.3v-0.4H80V61h0.5v2.2h1.5V63.7z M82.8,66.9c0-1.1,0.3-1.9,0.9-2.7c0.5-0.7,1.3-1.1,2.4-1.2
		c1.1,0,1.9,0.4,2.4,1.2c0.5,0.7,0.8,1.6,0.8,2.7c0,1.1-0.3,1.9-0.8,2.7c-0.5,0.7-1.3,1.2-2.4,1.2c-1.1,0-1.9-0.4-2.4-1.2
		C83.1,68.8,82.8,67.9,82.8,66.9z M83.3,66.9c0,0.9,0.3,1.7,0.7,2.3c0.4,0.7,1.2,1,2,1.1c0.9,0,1.6-0.4,2-1.1
		c0.4-0.6,0.7-1.4,0.7-2.3c0-0.9-0.3-1.7-0.7-2.3c-0.4-0.6-1.2-1-2-1c-0.9,0-1.5,0.4-2,1C83.6,65.2,83.3,65.9,83.3,66.9z M90.7,63.2
		h0.5v1.6l0,0c0.2-0.5,0.5-1,1-1.3c0.4-0.3,1-0.4,1.5-0.4c0.6,0,1.2,0.1,1.4,0.4c0.4,0.2,0.6,0.5,0.7,0.8c0.2,0.4,0.3,0.6,0.3,1
		s0,0.6,0,0.8v4.5h-0.5v-4.6c0-0.2,0-0.4,0-0.7c0-0.3-0.1-0.5-0.3-0.8c-0.1-0.3-0.4-0.4-0.6-0.6c-0.3-0.2-0.6-0.3-1.2-0.3
		c-0.8,0-1.4,0.3-1.9,0.9c-0.4,0.5-0.7,1.3-0.7,2.2v3.9h-0.5v-7.3H90.7z M98.2,66.9c0,0.9,0.2,1.6,0.6,2.3c0.4,0.6,1.1,1,1.9,1
		c1.4,0,2.2-0.7,2.5-2.1h0.5c-0.4,1.8-1.3,2.6-3,2.7c-1.1,0-1.8-0.4-2.3-1.1c-0.5-0.7-0.8-1.6-0.8-2.6c0-1.1,0.3-1.9,0.7-2.7
		c0.5-0.8,1.3-1.2,2.4-1.2c1.1,0,1.9,0.4,2.4,1.2c0.5,0.7,0.7,1.6,0.7,2.7L98.2,66.9L98.2,66.9z M103.4,66.4c0-0.8-0.3-1.5-0.7-2
		c-0.4-0.6-1.1-0.9-1.9-0.9s-1.4,0.4-1.9,1c-0.4,0.6-0.7,1.2-0.8,2L103.4,66.4L103.4,66.4z M105.6,68c0.1,0.7,0.3,1.2,0.7,1.5
		c0.4,0.4,1,0.5,1.6,0.5c0.3,0,0.5,0,0.8-0.1c0.3-0.1,0.5-0.1,0.7-0.3c0.3-0.1,0.4-0.3,0.5-0.4c0.2-0.2,0.2-0.4,0.2-0.7
		c0-0.4-0.1-0.5-0.2-0.8c-0.2-0.2-0.4-0.4-0.5-0.4c-0.2-0.1-0.4-0.2-0.8-0.3c-0.3-0.1-0.6-0.1-0.9-0.2c-0.3-0.1-0.6-0.2-0.9-0.3
		s-0.5-0.2-0.8-0.4c-0.3-0.2-0.4-0.4-0.5-0.6c-0.2-0.3-0.2-0.5-0.2-0.9s0.1-0.7,0.3-0.9c0.2-0.3,0.4-0.4,0.6-0.5
		c0.5-0.3,1.1-0.4,1.7-0.4c0.8,0,1.4,0.2,1.9,0.5c0.4,0.4,0.7,1,0.7,1.8H110c0-0.7-0.2-1.2-0.6-1.4c-0.4-0.3-0.9-0.4-1.5-0.4
		c-0.5,0-1,0.1-1.3,0.3c-0.2,0.1-0.4,0.3-0.4,0.4s-0.2,0.4-0.2,0.7c0,0.3,0.1,0.5,0.3,0.7c0.1,0.2,0.3,0.4,0.5,0.4
		c0.1,0.1,0.3,0.1,0.4,0.2c0.1,0,0.3,0.1,0.4,0.1c0.2,0,0.3,0.1,0.4,0.1c0.2,0,0.3,0.1,0.4,0.1c0.7,0.1,1.3,0.3,1.8,0.6
		c0.2,0.2,0.4,0.4,0.5,0.6c0.1,0.3,0.2,0.5,0.2,1c0,0.4-0.1,0.7-0.3,1c-0.2,0.3-0.4,0.4-0.7,0.6c-0.3,0.2-0.5,0.3-0.9,0.4
		c-0.4,0.1-0.6,0.1-1,0.1c-0.8,0-1.5-0.3-1.9-0.7c-0.5-0.4-0.8-1.1-0.9-1.9L105.6,68L105.6,68z"/>
	
		<linearGradient id="SVGID_2_" gradientUnits="userSpaceOnUse" x1="18.7244" y1="57.9635" x2="42.5265" y2="57.9635" gradientTransform="matrix(1 0 0 -1 0 100)">
		<stop  offset="0" style="stop-color:#F05A28"/>
		<stop  offset="1" style="stop-color:#EC297B"/>
		<a:midPointStop  offset="0" style="stop-color:#F05A28"/>
		<a:midPointStop  offset="0.5" style="stop-color:#F05A28"/>
		<a:midPointStop  offset="1" style="stop-color:#EC297B"/>
	</linearGradient>
	<path fill="url(#SVGID_2_)" d="M22.2,29.1v4c2.6-3.5,6.8-5.5,11.5-5.5c1.9,0,3.6,0.3,5.5,1.1l1.6,0.5l0.7,0.4l0.4,0.4
		c0.5,0.3,0.6,0.9,0.6,1.4c0,0.3,0,0.5-0.3,0.8c-0.5,0.8-1.6,1.1-2.4,0.5l-0.5-0.3l-0.3-0.3l-1-0.6c-1.6-0.5-2.9-0.8-4.4-0.8
		c-6.3,0-11.5,5-11.5,11.6V55c0,0.8-0.8,1.6-1.6,1.6c-1.1,0-1.9-0.8-1.9-1.6V42.2V29.1c0-0.8,0.8-1.6,1.9-1.6
		C21.4,27.5,22.2,28.4,22.2,29.1z"/>
	
		<linearGradient id="SVGID_3_" gradientUnits="userSpaceOnUse" x1="40.8453" y1="57.7866" x2="70.1334" y2="57.7866" gradientTransform="matrix(1 0 0 -1 0 100)">
		<stop  offset="0" style="stop-color:#F05A28"/>
		<stop  offset="1" style="stop-color:#EC297B"/>
		<a:midPointStop  offset="0" style="stop-color:#F05A28"/>
		<a:midPointStop  offset="0.5" style="stop-color:#F05A28"/>
		<a:midPointStop  offset="1" style="stop-color:#EC297B"/>
	</linearGradient>
	<path fill="url(#SVGID_3_)" d="M70.1,42.8v12.3c0,1.1-0.6,1.8-1.7,1.8c-0.8,0-1.7-0.7-1.7-1.8v-4c-2.7,3.4-6.8,5.5-11.2,5.5
		c-8.1,0-14.7-6.5-14.7-14.7c0-7.9,6.5-14.3,14.7-14.3c8.1,0,14.6,6.5,14.6,14.3C70.1,42.3,70.1,42.5,70.1,42.8z M66.8,42.8v-0.3
		v-0.3c0,0,0,0,0-0.4c0-6.2-5-11.2-11.2-11.2s-11.2,5-11.2,11.2c0,6.3,5,11.6,11.2,11.6C61.6,53.5,66.4,48.7,66.8,42.8z"/>
	
		<linearGradient id="SVGID_4_" gradientUnits="userSpaceOnUse" x1="71.9111" y1="57.9193" x2="101.0415" y2="57.9193" gradientTransform="matrix(1 0 0 -1 0 100)">
		<stop  offset="0" style="stop-color:#F05A28"/>
		<stop  offset="1" style="stop-color:#EC297B"/>
		<a:midPointStop  offset="0" style="stop-color:#F05A28"/>
		<a:midPointStop  offset="0.5" style="stop-color:#F05A28"/>
		<a:midPointStop  offset="1" style="stop-color:#EC297B"/>
	</linearGradient>
	<path fill="url(#SVGID_4_)" d="M101,41.8v13c0,0.8-0.8,1.6-1.6,1.6c-1.1,0-1.8-0.8-1.8-1.6v-13c0-6.3-5-11.2-11.2-11.2
		s-11.2,5-11.2,11.2l-0.3,13.3c0,0.8-0.5,1.6-1.6,1.6c-0.8,0-1.6-0.8-1.6-1.6V41.8c0-8.1,6.5-14.3,14.6-14.3
		C94.6,27.5,101,33.7,101,41.8z"/>
	
		<linearGradient id="SVGID_5_" gradientUnits="userSpaceOnUse" x1="102.1645" y1="52.2121" x2="131.5855" y2="52.2121" gradientTransform="matrix(1 0 0 -1 0 100)">
		<stop  offset="0" style="stop-color:#F05A28"/>
		<stop  offset="1" style="stop-color:#EC297B"/>
		<a:midPointStop  offset="0" style="stop-color:#F05A28"/>
		<a:midPointStop  offset="0.5" style="stop-color:#F05A28"/>
		<a:midPointStop  offset="1" style="stop-color:#EC297B"/>
	</linearGradient>
	<path fill="url(#SVGID_5_)" d="M131.6,53.9c0,8.1-6.5,14.7-14.8,14.7c-1.1,0-1.8-0.8-1.8-1.6c0-0.7,0.8-1.6,1.8-1.6
		c6.3,0,11.3-5.3,11.3-11.6v-2.9c-2.7,3.5-6.8,5.6-11.3,5.6c-8.1,0-14.7-6.6-14.7-14.8s6.5-14.8,14.7-14.8s14.8,6.6,14.8,14.8
		C131.6,42,131.6,53.9,131.6,53.9z M128.2,41.5c0,0,0,0,0-0.3c-0.3-6-5.3-10.7-11.3-10.7c-6.3,0-11.5,5-11.5,11.2
		s5.3,11.5,11.5,11.5c6,0,11.1-5,11.3-10.7V41.5z"/>
</g>
</svg>
