<?xml version="1.0" encoding="utf-8"?>
<!-- Generator: Adobe Illustrator 26.0.1, SVG Export Plug-In . SVG Version: 6.00 Build 0)  -->
<svg version="1.1" id="svg4431" xmlns:svg="http://www.w3.org/2000/svg"
	 xmlns="http://www.w3.org/2000/svg" xmlns:xlink="http://www.w3.org/1999/xlink" x="0px" y="0px" viewBox="0 0 200 200"
	 style="enable-background:new 0 0 200 200;" xml:space="preserve">
<style type="text/css">
	.st0{clip-path:url(#SVGID_00000142869160068261146800000003622654933441876640_);}
</style>
<g id="g4439">
	<g>
		<defs>
			<rect id="SVGID_1_" x="5" y="5" width="190" height="190"/>
		</defs>
		<clipPath id="SVGID_00000124865758176933190460000008090244136217196956_">
			<use xlink:href="#SVGID_1_"  style="overflow:visible;"/>
		</clipPath>
		<g id="g4441" style="clip-path:url(#SVGID_00000124865758176933190460000008090244136217196956_);">
			<g id="g4447" transform="translate(443.9131,195.5088)">
				<g id="path4449">
					<path d="M-317.6-53.8c-17.5,0-35-6.7-48.3-20c-12.9-12.9-20-30.1-20-48.3c0-18.2,7.1-35.4,20-48.3c12.9-12.9,30.1-20,48.3-20
						s35.4,7.1,48.3,20c24.3,24.3,26.8,63.1,5.7,90.2c-0.9,1.2-2.7,1.4-3.9,0.5c-1.2-0.9-1.4-2.7-0.5-3.9
						c19.4-24.9,17.1-60.5-5.2-82.8c-11.8-11.9-27.6-18.4-44.4-18.4c-16.8,0-32.5,6.5-44.4,18.4c-11.9,11.9-18.4,27.6-18.4,44.4
						s6.5,32.5,18.4,44.4c23.5,23.5,61.2,24.6,86,2.6c1.1-1,2.9-0.9,3.9,0.2c1,1.1,0.9,2.9-0.2,3.9
						C-285.3-59.5-301.5-53.8-317.6-53.8z"/>
				</g>
			</g>
			<g id="g4451" transform="translate(445.9824,410.709)">
				<g id="path4453">
					<path d="M-319.7-280.6c-15.1,0-29.4-5.9-40.1-16.6c-10.7-10.7-16.6-24.9-16.6-40.1c0-15.1,5.9-29.4,16.6-40.1
						c10.7-10.7,24.9-16.6,40.1-16.6c14.1,0,27.6,5.2,38.1,14.7c1.1,1,1.2,2.8,0.2,3.9c-1,1.1-2.8,1.2-3.9,0.2
						c-9.4-8.5-21.6-13.2-34.3-13.2c-13.7,0-26.5,5.3-36.2,15c-9.7,9.7-15,22.5-15,36.2c0,13.7,5.3,26.5,15,36.2
						c9.7,9.7,22.5,15,36.2,15c13.7,0,26.5-5.3,36.2-15c9.7-9.7,15-22.5,15-36.2c0-10.6-3.2-20.7-9.2-29.2c-0.9-1.3-0.6-3,0.7-3.9
						c1.3-0.9,3-0.6,3.9,0.7c6.7,9.5,10.2,20.7,10.2,32.4c0,15.1-5.9,29.4-16.6,40.1C-290.3-286.5-304.6-280.6-319.7-280.6z"/>
				</g>
			</g>
			<g id="g4455" transform="translate(192.1826,213.2891)">
				<g id="path4457">
					<path d="M-122.7-71.6c-0.7,0-1.4-0.3-2-0.8l-8.2-8.2c-0.5-0.5-0.8-1.2-0.8-2c0-0.7,0.3-1.4,0.8-2l14.9-14.9
						c1.1-1.1,2.8-1.1,3.9,0c1.1,1.1,1.1,2.8,0,3.9l-13,13l4.2,4.2l13-13c1.1-1.1,2.8-1.1,3.9,0c1.1,1.1,1.1,2.8,0,3.9l-15,15
						C-121.2-71.8-121.9-71.6-122.7-71.6z"/>
				</g>
			</g>
			<g id="g4459" transform="translate(162.1553,118.8184)">
				<g id="path4461">
					<path d="M-92.9,36.6c-2.2,0-4.4-0.8-6-2.5l0,0l-15.8-15.8c-1.6-1.6-2.5-3.8-2.5-6s0.9-4.4,2.5-6c3.3-3.3,8.8-3.3,12.1,0
						L-86.9,22c1.6,1.6,2.5,3.8,2.5,6c0,2.3-0.9,4.4-2.5,6c0,0,0,0,0,0C-88.5,35.7-90.7,36.6-92.9,36.6z M-95,30.1
						c1.2,1.2,3,1.2,4.2,0c0,0,0,0,0,0c0.6-0.6,0.9-1.3,0.9-2.1c0-0.8-0.3-1.5-0.9-2.1l-15.8-15.8c-1.2-1.2-3.1-1.2-4.2,0
						c-0.6,0.6-0.9,1.3-0.9,2.1c0,0.8,0.3,1.5,0.9,2.1L-95,30.1z"/>
				</g>
			</g>
			<g id="g4463" transform="translate(112.6729,73.4385)">
				<g id="path4465">
					<path d="M-94.3,121.4c-3.2,0-6.4-1.2-8.9-3.7l-0.5-0.5c-2.4-2.4-3.7-5.5-3.7-8.9c0-3.3,1.3-6.5,3.7-8.9l39.1-39.1
						c0.5-0.5,1.2-0.8,2-0.8h0c0.7,0,1.4,0.3,2,0.8l14.2,14.2c1.1,1.1,1.1,2.8,0,3.9l-17.6,17.6c-1.1,1.1-2.8,1.1-3.9,0
						c-1.1-1.1-1.1-2.8,0-3.9l15.6-15.6l-10.3-10.3l-37.1,37.1c-1.3,1.3-2,3.1-2,4.9c0,1.9,0.7,3.6,2,4.9l0.5,0.5
						c2.7,2.7,7.1,2.7,9.8,0l12.9-12.9c1.1-1.1,2.8-1.1,3.9,0c1.1,1.1,1.1,2.8,0,3.9l-12.9,12.9C-87.8,120.2-91,121.4-94.3,121.4z"
						/>
				</g>
			</g>
			<g id="g4467" transform="translate(281.8994,333.625)">
				<g id="path4469">
					<path d="M-152.1-219.3c-6.3,0-11.4-5.1-11.4-11.4v-20.2c0-1.6-1.3-3-3-3c-4.7,0-8.5-3.8-8.5-8.5c0-4.7,3.8-8.5,8.5-8.5h17.3
						c4.7,0,8.5,3.8,8.5,8.5v31.7C-140.7-224.4-145.8-219.3-152.1-219.3z M-166.5-265.4c-1.6,0-3,1.3-3,3s1.3,3,3,3
						c4.7,0,8.5,3.8,8.5,8.5v20.2c0,3.2,2.6,5.9,5.9,5.9c3.2,0,5.9-2.6,5.9-5.9v-31.7c0-1.6-1.3-3-3-3H-166.5z"/>
				</g>
			</g>
			<g id="g4471" transform="translate(359.5557,403.5352)">
				<g id="path4473">
					<path d="M-229.8-346.9c-6.3,0-11.4-5.1-11.4-11.4c0-6.3,5.1-11.4,11.4-11.4c6.3,0,11.4,5.1,11.4,11.4
						C-218.3-352-223.5-346.9-229.8-346.9z M-229.8-364.1c-3.2,0-5.9,2.6-5.9,5.9c0,3.2,2.6,5.9,5.9,5.9c3.2,0,5.9-2.6,5.9-5.9
						C-223.9-361.5-226.5-364.1-229.8-364.1z"/>
				</g>
			</g>
		</g>
	</g>
</g>
</svg>
