<svg version="1.0" id="Layer_1" xmlns="http://www.w3.org/2000/svg" xmlns:xlink="http://www.w3.org/1999/xlink" x="0px" y="0px" viewBox="0 0 500 500" style="enable-background:new 0 0 500 500;" xml:space="preserve"><style type="text/css"> .st0 { fill: none; }</style><g><path class="st0" d="M302.13,329.42c-0.14-15.74-9.9-26.37-25.44-26.96c-17.76-0.68-35.58-0.66-53.34-0.01 c-15.19,0.55-25.31,10.99-25.48,25.96c-0.35,30.05-0.04,60.1-0.22,90.15c-0.03,4.79,1.45,6.34,6.29,6.26 c15.33-0.27,30.66-0.1,46-0.1c15.03,0,30.06-0.23,45.08,0.12c5.52,0.13,7.39-1.33,7.34-7.1 C302.07,388.29,302.4,358.85,302.13,329.42z"></path><path class="st0" d="M399.01,96.87c-5.1-16.97-13.9-23.62-31.41-23.63c-39.28-0.02-78.57-0.01-117.85-0.01 c-39.59,0-79.18-0.02-118.77,0.01c-16.07,0.01-24.46,6.01-29.11,21.31c-9.87,32.49-19.46,65.07-29.35,97.55 c-1.32,4.34-1.44,8.26,0.08,12.52c4.52,12.7,16.62,20.69,30.01,19.54c12.78-1.09,23.91-11.61,25.67-24.97 c0.81-6.17,1.37-12.14,9.37-12.07c7.45,0.06,8.26,5.84,9,11.59c1.88,14.53,12.81,24.81,26.85,25.48 c14.08,0.67,26.05-8.55,29.5-22.61c1.43-5.81-0.47-14.21,9.09-14.46c10.23-0.27,8.53,8.59,9.97,14.66 c3.12,13.17,14.28,22.34,27.75,22.42c13.46,0.08,25.02-9,27.99-22.06c0.68-2.98,0.85-6.08,1.61-9.04c1.05-4.07,3.97-6.05,8.13-6.09 c4.21-0.04,7.08,2.13,8.25,6.03c0.78,2.61,0.62,5.48,1.2,8.17c3.03,14.03,15.08,23.49,29.16,22.99 c14.04-0.5,25.22-10.8,27.29-25.12c0.31-2.11,0.5-4.28,1.11-6.31c1.08-3.6,3.66-5.53,7.45-5.74c4.19-0.23,7.22,1.62,8.57,5.52 c0.78,2.26,0.76,4.8,1.12,7.21c2.42,16.36,18.31,27.45,34.33,23.98c16.8-3.65,25.47-18.67,20.44-35.45 C417.3,157.82,408.16,127.34,399.01,96.87z"></path><path d="M443.64,184.26c-9.12-30.5-18.31-60.98-27.48-91.46c-8.14-27.06-21.19-36.76-49.58-36.77c-38.69-0.02-77.39,0-116.08,0 c-39.31,0-78.62-0.03-117.93,0.01c-26.23,0.02-40.64,10.63-48.11,35.35c-9.3,30.77-17.49,61.92-28.12,92.21 c-9.17,26.15,11.75,55.13,37.16,57.3c6.91,0.59,8.33,3.15,8.29,9.64c-0.29,45.75-0.28,91.51-0.1,137.26 c0.13,34.78,21.68,56.15,56.37,56.18c60.81,0.05,121.61,0.04,182.42,0.01c36.7-0.02,57.79-20.93,57.85-57.48 c0.08-44.83,0.19-89.67-0.15-134.5c-0.06-7.45,1.3-10.37,9.57-11.37C434.45,237.41,451.38,210.13,443.64,184.26z M380.96,256.84 c-0.33,43.91-0.11,87.82-0.15,131.72c-0.02,23.88-14.38,38.11-38.48,38.22c-1.36,0.01-2.63,0.01-3.82,0.01l-0.12,0.2H164.28 l-0.18-0.33c-3.55,0.05-7.12,0.18-10.66,0.05c-19.42-0.73-34.17-15.58-34.24-34.98c-0.17-49.43,0.14-98.87-0.3-148.3 c-0.06-6.72,4.97-7.36,7.83-10.82c7.31-8.85,12.39-7.49,21.08-0.23c18.91,15.83,43.7,11.59,64.71-8.83 c22.43,25.46,55.36,22.85,75.03-0.3c10.61,12.54,23.96,19.31,40.63,18.24c11.47-0.74,21.78-4.77,29.34-13.44 c4.42-5.07,6.99-4.14,10.22,0.43c0.35,0.49,0.78,1.07,1.31,1.28C381.95,234.9,381.04,245.67,380.96,256.84z M406,223.75 c-16.02,3.48-31.91-7.61-34.33-23.98c-0.36-2.41-0.34-4.94-1.12-7.21c-1.34-3.91-4.38-5.76-8.57-5.52 c-3.79,0.21-6.37,2.14-7.45,5.74c-0.61,2.03-0.8,4.19-1.11,6.31c-2.08,14.32-13.26,24.62-27.29,25.12 c-14.08,0.5-26.14-8.96-29.16-22.99c-0.58-2.69-0.42-5.56-1.2-8.17c-1.17-3.9-4.04-6.07-8.25-6.03c-4.16,0.04-7.08,2.02-8.13,6.09 c-0.76,2.95-0.93,6.06-1.61,9.04c-2.96,13.06-14.53,22.14-27.99,22.06c-13.46-0.08-24.63-9.25-27.75-22.42 c-1.44-6.07,0.26-14.93-9.97-14.66c-9.57,0.25-7.66,8.64-9.09,14.46c-3.45,14.06-15.42,23.29-29.5,22.61 c-14.05-0.67-24.97-10.96-26.85-25.48c-0.74-5.74-1.55-11.53-9-11.59c-7.99-0.06-8.55,5.91-9.37,12.07 c-1.76,13.35-12.89,23.88-25.67,24.97c-13.38,1.14-25.49-6.84-30.01-19.54c-1.51-4.26-1.4-8.17-0.08-12.52 c9.89-32.48,19.47-65.06,29.35-97.55c4.65-15.3,13.04-21.3,29.11-21.31c39.59-0.04,79.18-0.01,118.77-0.01 c39.28,0,78.57-0.02,117.85,0.01c17.5,0.01,26.31,6.66,31.41,23.63c9.15,30.47,18.29,60.95,27.43,91.42 C431.47,205.07,422.8,220.1,406,223.75z"></path></g></svg>