<?xml version="1.0" encoding="utf-8"?>
<!-- Generator: Adobe Illustrator 18.0.0, SVG Export Plug-In . SVG Version: 6.00 Build 0)  -->
<!DOCTYPE svg PUBLIC "-//W3C//DTD SVG 1.1//EN" "http://www.w3.org/Graphics/SVG/1.1/DTD/svg11.dtd">
<svg version="1.1" id="Layer_1" xmlns="http://www.w3.org/2000/svg" xmlns:xlink="http://www.w3.org/1999/xlink" x="0px" y="0px"
	 viewBox="0 0 150 100" enable-background="new 0 0 150 100" xml:space="preserve">
<g>
	<g>
		<path fill="#9D5E7C" d="M25.9,71.1c0.3,0,0.5-0.1,0.6-0.2c0.1-0.1,0.1-0.3,0.1-0.6v-3.5c0-0.3,0-0.5-0.1-0.6
			c-0.1-0.1-0.3-0.1-0.6-0.2v-0.1H28c0.7,0,1.2,0.1,1.6,0.4c0.4,0.3,0.5,0.6,0.5,1c0,0.6-0.2,1-0.6,1.2c-0.4,0.3-0.9,0.4-1.5,0.4
			c-0.1,0-0.2,0-0.3,0c-0.1,0-0.2,0-0.3,0v1.5c0,0.3,0,0.5,0.1,0.6c0.1,0.1,0.3,0.1,0.6,0.2v0.1h-2.3V71.1z M28.6,66.4
			c-0.2-0.1-0.5-0.2-0.9-0.2c-0.2,0-0.3,0-0.3,0.1c0,0-0.1,0.1-0.1,0.2v2.1c0.1,0,0.2,0,0.3,0c0,0,0.1,0,0.1,0
			c0.4,0,0.7-0.1,0.9-0.2c0.4-0.2,0.6-0.6,0.6-1.1C29.3,66.9,29.1,66.5,28.6,66.4z"/>
		<path fill="#9D5E7C" d="M33.6,66.5c0.5-0.5,1.1-0.7,1.8-0.7c0.7,0,1.3,0.2,1.8,0.7c0.5,0.5,0.8,1.2,0.8,2.1c0,0.9-0.3,1.6-0.8,2.1
			c-0.5,0.5-1.1,0.7-1.8,0.7c-0.8,0-1.4-0.3-1.9-0.8c-0.5-0.5-0.8-1.2-0.8-2C32.8,67.7,33,67,33.6,66.5z M34.2,70.5
			c0.3,0.4,0.7,0.6,1.2,0.6c0.5,0,0.9-0.2,1.2-0.6c0.3-0.4,0.5-1,0.5-1.9c0-0.9-0.2-1.5-0.5-1.9c-0.3-0.4-0.7-0.6-1.2-0.6
			c-0.5,0-0.9,0.2-1.2,0.6c-0.3,0.4-0.5,1-0.5,1.9C33.7,69.4,33.9,70.1,34.2,70.5z"/>
		<path fill="#9D5E7C" d="M40.7,71.1c0.3,0,0.5-0.1,0.6-0.2c0.1-0.1,0.1-0.3,0.1-0.6v-3.6c0-0.3,0-0.5-0.1-0.6
			c-0.1-0.1-0.3-0.1-0.6-0.2v-0.1H43v0.1c-0.3,0-0.5,0.1-0.6,0.1c-0.1,0.1-0.2,0.3-0.2,0.5v3.9c0,0.1,0,0.2,0,0.2
			c0,0.1,0.1,0.1,0.2,0.1c0.1,0,0.1,0,0.2,0c0.1,0,0.2,0,0.4,0c0.7,0,1.2-0.1,1.5-0.2c0.3-0.1,0.5-0.4,0.7-0.9h0.2l-0.4,1.4h-4.4
			V71.1z"/>
		<path fill="#9D5E7C" d="M48,71.1c0.3,0,0.5-0.1,0.6-0.2c0.1-0.1,0.1-0.3,0.1-0.7v-3.5c0-0.3,0-0.5-0.1-0.6
			c-0.1-0.1-0.3-0.1-0.6-0.2v-0.1h2.3v0.1c-0.3,0-0.5,0.1-0.6,0.2c-0.1,0.1-0.1,0.3-0.1,0.6v1.7c0.5-0.4,0.9-0.8,1.2-1.1
			c0.6-0.5,0.9-0.9,0.9-1c0-0.1,0-0.2-0.1-0.2c-0.1,0-0.2,0-0.4,0v-0.1h2.1v0.1c-0.3,0-0.5,0.1-0.6,0.1c-0.1,0.1-0.4,0.2-0.6,0.5
			l-1.6,1.5l1.9,2.1c0.4,0.4,0.6,0.6,0.7,0.7c0.1,0.1,0.3,0.2,0.6,0.2v0.1h-2.5v-0.1c0.2,0,0.4,0,0.5-0.1c0.1,0,0.1-0.1,0.1-0.2
			c0,0,0-0.1-0.1-0.2c-0.1-0.1-0.1-0.2-0.2-0.3l-1.6-1.7l-0.3,0.2v1.5c0,0.3,0,0.5,0.1,0.6c0.1,0.1,0.3,0.1,0.6,0.2v0.1H48V71.1z"/>
		<path fill="#9D5E7C" d="M56.1,71.1c0.3,0,0.5-0.1,0.6-0.1c0.1-0.1,0.1-0.3,0.1-0.6v-3.6c0-0.3-0.1-0.5-0.1-0.6
			c-0.1-0.1-0.3-0.1-0.6-0.2v-0.1h2.4v0.1c-0.3,0-0.5,0.1-0.6,0.2c-0.1,0.1-0.1,0.3-0.1,0.6v3.6c0,0.3,0,0.5,0.1,0.6
			c0.1,0.1,0.3,0.1,0.6,0.1v0.1h-2.4V71.1z"/>
		<path fill="#9D5E7C" d="M65.3,71.1c0.3,0,0.5-0.1,0.6-0.2c0.1-0.1,0.1-0.3,0.1-0.6v-3.6c0-0.3,0-0.5-0.1-0.6
			c-0.1-0.1-0.3-0.1-0.6-0.2v-0.1h2.2c0.7,0,1.4,0.1,1.9,0.4c0.9,0.4,1.4,1.2,1.4,2.3c0,0.4-0.1,0.8-0.2,1.1
			c-0.2,0.4-0.4,0.7-0.7,0.9c-0.2,0.2-0.4,0.3-0.7,0.4c-0.4,0.2-0.9,0.2-1.5,0.2h-2.2V71.1z M67,70.9c0.1,0,0.2,0.1,0.4,0.1
			c0.6,0,1.2-0.1,1.6-0.4c0.6-0.4,0.9-1,0.9-2c0-0.8-0.3-1.5-0.8-1.9c-0.4-0.4-1-0.5-1.8-0.5c-0.2,0-0.3,0-0.4,0.1
			c-0.1,0-0.1,0.1-0.1,0.3v4.1C66.9,70.8,66.9,70.9,67,70.9z"/>
		<path fill="#9D5E7C" d="M73.4,71.1c0.3,0,0.5-0.1,0.6-0.1c0.1-0.1,0.1-0.3,0.1-0.6v-3.6c0-0.3,0-0.5-0.1-0.6
			c-0.1-0.1-0.3-0.1-0.6-0.2v-0.1h2.4v0.1c-0.3,0-0.5,0.1-0.6,0.2c-0.1,0.1-0.1,0.3-0.1,0.6v3.6c0,0.3,0,0.5,0.1,0.6
			c0.1,0.1,0.3,0.1,0.6,0.1v0.1h-2.4V71.1z"/>
		<path fill="#9D5E7C" d="M78.4,71.3v-0.1c0.2,0,0.4-0.1,0.5-0.2c0.1-0.1,0.3-0.5,0.5-1.1l1.7-4h0.2l2,4.6c0.1,0.3,0.2,0.5,0.3,0.6
			c0.1,0.1,0.2,0.1,0.4,0.1v0.1h-2.1v-0.1c0.2,0,0.4,0,0.5-0.1c0.1,0,0.1-0.1,0.1-0.2c0,0,0-0.1,0-0.2c0-0.1-0.1-0.2-0.1-0.3
			L82,69.5h-2.1c-0.2,0.5-0.3,0.9-0.4,1c0,0.1-0.1,0.2-0.1,0.3c0,0.1,0.1,0.2,0.2,0.3c0.1,0,0.2,0.1,0.4,0.1v0.1H78.4z M81.9,69.2
			l-0.9-2.2L80,69.2H81.9z"/>
		<path fill="#9D5E7C" d="M86.5,71.1c0.3,0,0.6-0.1,0.6-0.2c0.1-0.1,0.1-0.4,0.1-0.8v-3.3c0-0.3,0-0.5-0.1-0.6
			c-0.1-0.1-0.3-0.1-0.6-0.2v-0.1h1.6l1.9,4l1.8-4h1.6v0.1c-0.3,0-0.5,0.1-0.6,0.2c-0.1,0.1-0.1,0.3-0.1,0.6v3.6
			c0,0.3,0,0.5,0.1,0.6c0.1,0.1,0.3,0.1,0.6,0.2v0.1h-2.3v-0.1c0.3,0,0.5-0.1,0.6-0.2c0.1-0.1,0.1-0.3,0.1-0.7v-3.6l-2.1,4.6h-0.1
			l-2-4.4v3.2c0,0.4,0.1,0.7,0.2,0.9c0.1,0.1,0.3,0.1,0.6,0.2v0.1h-1.9V71.1z"/>
		<path fill="#9D5E7C" d="M96.9,66.5c0.5-0.5,1.1-0.7,1.8-0.7c0.7,0,1.3,0.2,1.8,0.7c0.5,0.5,0.8,1.2,0.8,2.1c0,0.9-0.3,1.6-0.8,2.1
			c-0.5,0.5-1.1,0.7-1.8,0.7c-0.8,0-1.4-0.3-1.9-0.8c-0.5-0.5-0.8-1.2-0.8-2C96.1,67.7,96.3,67,96.9,66.5z M97.5,70.5
			c0.3,0.4,0.7,0.6,1.2,0.6c0.5,0,0.9-0.2,1.2-0.6c0.3-0.4,0.5-1,0.5-1.9c0-0.9-0.2-1.5-0.5-1.9c-0.3-0.4-0.7-0.6-1.2-0.6
			c-0.5,0-0.9,0.2-1.2,0.6c-0.3,0.4-0.5,1-0.5,1.9C97,69.4,97.1,70.1,97.5,70.5z"/>
		<path fill="#9D5E7C" d="M104,71.1c0.3,0,0.5-0.1,0.6-0.2c0.1-0.1,0.1-0.4,0.1-0.8v-3.6l-0.1-0.1c-0.1-0.1-0.2-0.2-0.3-0.3
			c-0.1,0-0.2-0.1-0.4-0.1v-0.1h1.4l3.1,3.9v-2.7c0-0.4-0.1-0.7-0.2-0.9c-0.1-0.1-0.3-0.1-0.6-0.2v-0.1h1.9v0.1
			c-0.3,0-0.5,0.1-0.6,0.2c-0.1,0.1-0.2,0.4-0.2,0.8v4.3h-0.1l-3.6-4.4v3.1c0,0.4,0.1,0.7,0.2,0.9c0.1,0.1,0.3,0.1,0.6,0.2v0.1H104
			V71.1z"/>
		<path fill="#9D5E7C" d="M112.2,71.1c0.3,0,0.5-0.1,0.6-0.2c0.1-0.1,0.1-0.3,0.1-0.6v-3.6c0-0.3,0-0.5-0.1-0.6
			c-0.1-0.1-0.3-0.1-0.6-0.2v-0.1h2.2c0.7,0,1.4,0.1,1.9,0.4c0.9,0.4,1.4,1.2,1.4,2.3c0,0.4-0.1,0.8-0.2,1.1
			c-0.2,0.4-0.4,0.7-0.7,0.9c-0.2,0.2-0.4,0.3-0.7,0.4c-0.4,0.2-0.9,0.2-1.5,0.2h-2.2V71.1z M113.8,70.9c0.1,0,0.2,0.1,0.4,0.1
			c0.6,0,1.2-0.1,1.6-0.4c0.6-0.4,0.9-1,0.9-2c0-0.8-0.3-1.5-0.8-1.9c-0.4-0.4-1-0.5-1.8-0.5c-0.2,0-0.3,0-0.4,0.1
			c-0.1,0-0.1,0.1-0.1,0.3v4.1C113.7,70.8,113.7,70.9,113.8,70.9z"/>
		<path fill="#9D5E7C" d="M120.7,69.6c0.1,0.4,0.3,0.7,0.5,0.9c0.3,0.4,0.7,0.6,1.2,0.6c0.3,0,0.5-0.1,0.7-0.2
			c0.2-0.2,0.3-0.4,0.3-0.7c0-0.3-0.1-0.5-0.3-0.7c-0.1-0.1-0.4-0.3-0.8-0.6l-0.7-0.4c-0.2-0.1-0.4-0.3-0.5-0.4
			c-0.2-0.3-0.3-0.5-0.3-0.8c0-0.4,0.1-0.7,0.4-1c0.3-0.3,0.6-0.4,1.1-0.4c0.2,0,0.4,0,0.7,0.1c0.3,0.1,0.4,0.1,0.4,0.1
			c0.1,0,0.2,0,0.2-0.1c0,0,0.1-0.1,0.1-0.2h0.2l0.2,1.7h-0.2c-0.1-0.5-0.3-0.9-0.6-1.1c-0.3-0.2-0.6-0.3-0.9-0.3
			c-0.2,0-0.4,0.1-0.6,0.2c-0.2,0.1-0.2,0.3-0.2,0.5c0,0.2,0.1,0.4,0.2,0.5c0.1,0.1,0.3,0.3,0.6,0.5l0.7,0.4
			c0.4,0.3,0.8,0.5,0.9,0.8c0.2,0.2,0.3,0.5,0.3,0.8c0,0.4-0.2,0.8-0.5,1.1c-0.3,0.3-0.7,0.4-1.2,0.4c-0.3,0-0.5,0-0.8-0.1
			c-0.3-0.1-0.4-0.1-0.5-0.1c-0.1,0-0.2,0-0.2,0.1c0,0.1-0.1,0.1-0.1,0.2h-0.2l-0.2-1.7H120.7z"/>
	</g>
	<path fill="#9D5E7C" d="M5.6,29.4h20.9V33h-8.7v21h-3.5V33H5.6V29.4z M32.6,44.1c0.7-0.4,1.5-0.7,2.3-0.8c0.8-0.1,1.6-0.2,2.4-0.2
		h5.4v-3.6h-5.4c-0.8,0-1.6,0.1-2.4,0.1c-0.8,0.1-1.5,0.4-2.3,0.8V33h13.7v-3.6l-17.3,0V54h18.8v-3.6l-15.2,0V44.1z M111.6,41.1
		c-0.8-0.6-1.9-1.1-3.3-1.4c-1.4-0.3-3.2-0.5-5.3-0.5c-1.1,0-1.9-0.1-2.6-0.2c-0.7-0.2-1.2-0.4-1.6-0.6c-0.4-0.3-0.7-0.6-0.8-0.9
		c-0.1-0.3-0.2-0.7-0.2-1.1c0-0.5,0.1-1,0.4-1.5c0.3-0.5,0.6-0.9,1.1-1.3c0.5-0.4,1-0.7,1.6-0.9c0.6-0.2,1.3-0.3,2-0.3
		c0.8,0,1.5,0,2.2,0.1c0.7,0.1,1.3,0.3,1.9,0.5c0.6,0.2,1.2,0.5,1.8,0.9c0.6,0.4,1.2,0.8,1.9,1.4l2.2-2.6c-1.5-1.5-3-2.5-4.7-3
		c-1.6-0.6-3.4-0.9-5.2-0.9c-1.3,0-2.5,0.2-3.6,0.6c-1.1,0.4-2.1,1-2.9,1.7c-0.8,0.7-1.4,1.5-1.9,2.5c-0.5,0.9-0.7,1.9-0.7,2.9
		c0,2.1,0.8,3.7,2.3,4.8c1.5,1.1,3.8,1.6,6.8,1.6c0.9,0,1.8,0,2.6,0.1c0.9,0,1.7,0.2,2.3,0.4c0.7,0.2,1.2,0.6,1.7,1.1
		c0.4,0.5,0.6,1.2,0.6,2.2c0,0.8-0.2,1.4-0.6,2c-0.4,0.6-1,1-1.6,1.4c-0.7,0.4-1.5,0.6-2.3,0.8c-0.9,0.2-1.8,0.3-2.7,0.3
		c-1,0-1.8-0.1-2.6-0.4c-0.8-0.3-1.5-0.6-2.1-1c-0.6-0.4-1.2-0.8-1.6-1.3c-0.5-0.5-0.9-0.9-1.2-1.3l-2.6,2.4
		c0.6,0.8,1.3,1.5,2.1,2.1c0.8,0.6,1.6,1.2,2.5,1.6c0.9,0.4,1.8,0.8,2.7,1c0.9,0.2,1.9,0.3,2.8,0.3c1.6,0,3-0.2,4.4-0.6
		c1.3-0.4,2.5-0.9,3.5-1.6c1-0.7,1.8-1.5,2.3-2.5c0.6-1,0.8-2.1,0.8-3.4c0-1.1-0.2-2.2-0.5-3.1C113,42.5,112.4,41.7,111.6,41.1z
		 M140.8,29.4V54h3.5V29.4H140.8z M126.1,50l-8.4-20.6h-3.9L123.9,54h4.3l10.3-24.6h-4L126.1,50z M66,54l11.9-24.5h1.5h1.5L92.6,54
		h-3.8c-0.5-0.4-2.4-1.7-3-2.3c-0.5-0.4-1.7-1.7-1.7-1.7l-1.7,1.7c-0.1,0.1-0.4,0.1-0.5,0L79.3,49l-2.7,2.7c-0.1,0.1-0.4,0.1-0.5,0
		L74.5,50c0,0-1.2,1.3-1.7,1.7c-0.6,0.5-2.4,1.9-3,2.3H66z M79.3,47.8c0.8-0.9,2.3-2.7,2.3-3.7c0-1.3-1-2.3-2.3-2.4
		c-1.3,0-2.3,1.1-2.3,2.4C77,45.1,78.5,46.9,79.3,47.8z M86,47.7c-0.4,0.7-1,1.4-1.3,1.8c0,0,1.2,1.3,1.7,1.7
		c0.4,0.4,1.4,1.1,2.1,1.6L86,47.7z M84.9,45.6c-0.2-0.2-0.5-0.2-0.8-0.2c-0.8,0-1.4,0.6-1.4,1.4c0,0.5,0.8,1.5,1.4,2.2
		c0.6-0.7,1.3-1.6,1.4-2.1L84.9,45.6z M74.1,44.7c0.1,0,0.2,0,0.3,0c0,0,0,0,0,0c0,0,0,0,0,0c1.2,0,2.1,1,2.1,2.1
		c0,0.9-1.1,2.2-1.6,2.7l1.4,1.4l2.5-2.5c-0.7-0.8-2.6-2.9-2.6-4.3c0-1.7,1.3-3,3-3.1c1.7,0,3,1.4,3,3.1c0,1.4-1.9,3.5-2.6,4.3
		l2.5,2.5l1.4-1.4c-0.5-0.6-1.6-1.9-1.6-2.7c0-1.2,0.9-2.1,2.1-2.1c0,0,0,0,0,0c0,0,0,0,0,0c0.1,0,0.2,0,0.3,0L80,35.5h-0.7h-0.7
		L74.1,44.7z M73.1,46.8c0.1,0.5,0.8,1.5,1.4,2.1c0.6-0.7,1.4-1.7,1.4-2.2c0-0.8-0.6-1.4-1.4-1.4c-0.3,0-0.6,0.1-0.8,0.2L73.1,46.8z
		 M72.7,47.7l-2.4,5.1c0.7-0.5,1.7-1.2,2.1-1.6c0.4-0.4,1.7-1.7,1.7-1.7C73.6,49.1,73,48.4,72.7,47.7z M58.3,29.4l1.6,3.6h2.5v11.1
		c0,0.7-0.1,1.5-0.3,2.3c-0.2,0.8-0.5,1.5-1,2.2c-0.5,0.7-1.1,1.2-1.8,1.7c-0.8,0.4-1.7,0.7-2.9,0.7c-0.9,0-1.7-0.1-2.4-0.2
		c-0.7-0.2-1.3-0.4-1.9-0.6c-0.5-0.2-1-0.5-1.4-0.8c-0.3-0.2-0.5-0.4-0.7-0.6V53c0.6,0.3,1.2,0.6,1.8,0.8c0.7,0.3,1.5,0.4,2.3,0.6
		c0.8,0.1,1.5,0.2,2.2,0.2c1.1,0,2.1-0.2,3.3-0.5c1.1-0.4,2.2-0.9,3.1-1.8c0.9-0.8,1.7-1.9,2.3-3.2c0.6-1.3,0.9-2.9,0.9-4.8V29.4
		H58.3z"/>
</g>
<g>
</g>
<g>
</g>
<g>
</g>
<g>
</g>
<g>
</g>
<g>
</g>
</svg>
