<?xml version="1.0" encoding="utf-8"?>
<!-- Generator: Adobe Illustrator 25.2.0, SVG Export Plug-In . SVG Version: 6.00 Build 0)  -->
<svg version="1.1" id="Layer_1" xmlns="http://www.w3.org/2000/svg" xmlns:xlink="http://www.w3.org/1999/xlink" x="0px" y="0px"
	 viewBox="0 0 200 200" style="enable-background:new 0 0 200 200;" xml:space="preserve">
<style type="text/css">
	.st0{fill:#E30613;}
	.st1{fill:#FFFFFF;}
</style>
<path class="st0" d="M179,199H21c-11.05,0-20-8.95-20-20V21C1,9.95,9.95,1,21,1h158c11.05,0,20,8.95,20,20v158
	C199,190.05,190.05,199,179,199z"/>
<path class="st1" d="M163.07,31.01c-16.98,19.73-33.53,38.97-50.23,58.38c18.13,26.38,36.26,52.77,54.55,79.38
	c-0.88,0.04-1.43,0.09-1.99,0.09c-12.11,0-24.23-0.02-36.34,0.03c-1.3,0.01-2.07-0.39-2.81-1.48
	c-11.42-16.69-22.88-33.34-34.33-50.01c-0.44-0.63-0.88-1.26-1.42-2.03c-3.65,4.23-7.22,8.37-10.79,12.52
	c-11.39,13.23-22.79,26.46-34.14,39.72c-0.8,0.93-1.58,1.3-2.79,1.27c-3.25-0.08-6.51-0.03-10.2-0.03c1.75-2.05,3.19-3.75,4.64-5.44
	c15.46-17.97,30.92-35.95,46.43-53.88c1.19-1.37,1.39-2.25,0.27-3.86C67.26,81.59,50.69,57.43,34.1,33.29
	c-0.43-0.62-0.83-1.27-1.48-2.27c1.01,0,1.67,0,2.34,0c11.92,0,23.84,0.02,35.76-0.03c1.45-0.01,2.31,0.42,3.14,1.64
	c10.75,15.74,21.56,31.44,32.36,47.14c0.4,0.58,0.81,1.15,1.35,1.9c3.32-3.86,6.55-7.6,9.78-11.34
	c10.89-12.65,21.78-25.28,32.63-37.96c0.83-0.97,1.67-1.41,2.95-1.38C156.13,31.07,159.32,31.01,163.07,31.01z M48.84,40.01
	c0.44,0.69,0.63,1.02,0.85,1.33c27.45,39.26,54.9,78.52,82.39,117.74c0.45,0.64,1.51,1.18,2.3,1.2c5.02,0.11,10.05,0.06,15.08,0.05
	c0.47,0,0.93-0.1,1.55-0.16c-0.49-0.72-0.83-1.26-1.2-1.78c-10.26-14.67-20.52-29.33-30.77-44c-16.97-24.27-33.94-48.55-50.93-72.8
	c-0.44-0.63-1.16-1.48-1.77-1.5C60.62,39.96,54.9,40.01,48.84,40.01z"/>
<path class="st0" d="M48.84,40.01c6.06,0,11.78-0.05,17.5,0.07c0.61,0.01,1.33,0.87,1.77,1.5c16.99,24.26,33.96,48.53,50.93,72.8
	c10.26,14.67,20.52,29.33,30.77,44c0.37,0.52,0.71,1.06,1.2,1.78c-0.62,0.07-1.08,0.16-1.55,0.16c-5.03,0.01-10.05,0.06-15.08-0.05
	c-0.79-0.02-1.86-0.56-2.3-1.2c-27.5-39.22-54.94-78.48-82.39-117.74C49.47,41.03,49.28,40.7,48.84,40.01z"/>
</svg>
