<?xml version="1.0" encoding="utf-8"?>
<!-- Generator: Adobe Illustrator 18.0.0, SVG Export Plug-In . SVG Version: 6.00 Build 0)  -->
<!DOCTYPE svg PUBLIC "-//W3C//DTD SVG 1.1//EN" "http://www.w3.org/Graphics/SVG/1.1/DTD/svg11.dtd">
<svg version="1.1" id="Layer_1" xmlns="http://www.w3.org/2000/svg" xmlns:xlink="http://www.w3.org/1999/xlink" x="0px" y="0px"
	 viewBox="0 0 150 100" enable-background="new 0 0 150 100" xml:space="preserve">
<g>
	<path fill="#231F20" d="M40.7,40.8h-6c-5.3,0-8.2,3.2-8.9,7.5h-0.9l1.1-8.7h21.9L31.7,63.9c3.9,0,5.1,1.1,9.4,1.1
		c1.1,0,1.4-0.5,1.4-1c0-0.6-0.6-1.1-0.6-2.2c0-1.8,1.3-3.2,3.3-3.2c2.3,0,3.6,1.4,3.6,3.6c0,2.1-1.5,4.6-5,4.6
		c-6.6,0-9-2.2-14.3-2.2c-1.9,0-3.9,0.3-5.6,1.1L40.7,40.8z"/>
	<path fill="#231F20" d="M50.7,65.8v-1.1h3.8v-24h-3.8v-1.1h9.6v25.1H64v1.1H50.7z"/>
	<path fill="#231F20" d="M91.2,61.3c0,2.1-1.3,5-5,5c-2.9,0-4.7-1.5-5.3-4.2c-1.2,1.6-3.8,4.2-7.9,4.2c-4,0-7.5-2.4-7.5-6.5
		c0-9.9,15.6-5,15.6-14.6c0-3.2-2-4.9-5.9-4.9C72,40.3,70,41.9,70,43c0,0.2,0.1,0.3,0.5,0.3c1.7,0,3.3,1.1,3.3,3.1
		c0,1.8-1.5,3.3-3.7,3.3c-2,0-3.5-1.5-3.5-3.6c0-3.4,3.5-7.1,9.8-7.1c6.5,0,10.2,3.4,10.2,9.5v12.8c0,1.4,0.5,2.2,1.7,2.2
		c1.1,0,1.9-1,1.9-2.3H91.2z M80.7,50c-3.2,3.2-9.1,3.5-9.1,9.4c0,2.7,1.8,4.3,4.3,4.3c2.9,0,4.7-1.9,4.7-4.4V50z"/>
	<g>
		<polygon fill="#231F20" points="62.6,26.6 61.3,26.1 62.1,27.9 		"/>
		<polygon fill="#231F20" points="58.3,24.2 60.3,25.1 59.8,23.6 		"/>
		<polygon fill="#231F20" points="61.1,25.4 62.6,26 62.6,23.7 60.4,23.6 		"/>
		<path fill="#231F20" d="M62.2,23.2c-1.1-1-2.6-1.7-4.1-1.8l1.9,1.7L62.2,23.2z"/>
		<path fill="#231F20" d="M56.8,21.3c-1.5,0.1-2.9,0.7-4.1,1.6h2.4L56.8,21.3z"/>
		<polygon fill="#231F20" points="57.5,23.9 59.3,23.2 57.4,21.5 55.7,23.1 		"/>
		<polygon fill="#231F20" points="61.8,28.7 60.6,25.8 57.5,24.5 54.4,25.7 53.2,28.6 54.3,31.7 57.4,33 60.5,31.8 		"/>
		<polygon fill="#231F20" points="54,25.3 54.7,23.5 52.4,23.5 52.5,25.9 		"/>
		<polygon fill="#231F20" points="54.7,25 56.8,24.2 55.3,23.5 		"/>
		<polygon fill="#231F20" points="60.2,32.5 58.1,33.3 59.6,34 		"/>
		<path fill="#231F20" d="M64.7,28c-0.1-1.5-0.7-2.8-1.5-3.9l0,2.3L64.7,28z"/>
		<polygon fill="#231F20" points="53,27.8 53.7,25.9 52.5,26.4 		"/>
		<polygon fill="#231F20" points="56.6,33.3 54.6,32.4 55.1,33.9 		"/>
		<polygon fill="#231F20" points="61.2,31.5 62.7,30.9 62.1,29.4 		"/>
		<polygon fill="#231F20" points="60.2,33.9 62.6,33.5 62.6,31.5 60.9,32.2 		"/>
		<path fill="#231F20" d="M51.8,23.8c-1,1.1-1.7,2.6-1.8,4.2l1.9-1.8L51.8,23.8z"/>
		<polygon fill="#231F20" points="63,27.1 62.4,28.7 63.1,30.4 64.5,28.6 		"/>
		<path fill="#231F20" d="M58.1,35.9c1.6-0.2,3-0.8,4.1-1.8l-2.4,0.4L58.1,35.9z"/>
		<path fill="#231F20" d="M63.1,33.2c0.8-1.1,1.4-2.4,1.5-3.8l-1.5,1.8L63.1,33.2z"/>
		<polygon fill="#231F20" points="57.3,33.6 55.6,34.3 57.4,35.8 59.1,34.4 		"/>
		<path fill="#231F20" d="M50.1,29.3c0.1,1.6,0.8,3.1,1.8,4.2L51.8,31L50.1,29.3z"/>
		<polygon fill="#231F20" points="52,26.9 50.2,28.6 51.9,30.4 52.6,28.6 		"/>
		<polygon fill="#231F20" points="53.9,32.1 52.4,31.4 52.4,33.8 54.6,33.9 		"/>
		<polygon fill="#231F20" points="52.9,29.3 52.3,30.8 53.6,31.4 		"/>
		<path fill="#231F20" d="M52.8,34.4c1.1,0.9,2.4,1.4,3.9,1.5l-1.8-1.5L52.8,34.4z"/>
	</g>
	<path fill="#231F20" d="M122.1,65.4V52c0-7.5-2.2-13.1-10-13.1c-4,0-7.6,2.6-8.9,6.5h-0.4V32.5v-1.3h-6.4h-4v1.3h4v32.9h-4v0.9
		h14.3v-0.9h-4V54.5c0-6.9,1.4-13.9,8.3-13.9c4.9,0,4.9,6.6,4.9,11.5v13.3h-4v0.9h14.3v-0.9H122.1z"/>
	<g>
		<g>
			<path fill="#231F20" d="M24.8,73c0.1,0,0.2,0,0.4,0c0.2,0,0.3,0,0.5,0c0,1-0.1,1.9-0.1,2.9c0,1.5,0,2.1,0.1,2.7
				c-0.2,0-0.3-0.1-0.5-0.1c-0.2,0-0.3,0-0.4,0.1c0.1-0.9,0.1-1.3,0.1-2.9C24.9,74.5,24.9,74.5,24.8,73z"/>
			<path fill="#231F20" d="M29.8,74.9c0,2,0.1,2.4,0.1,3.7c-0.1,0-0.2-0.1-0.3-0.1c-0.1,0-0.2,0-0.3,0.1c0-0.4,0.1-1.8,0.1-2.6
				c0-0.3,0-1.7,0-2v-1c0,0,0.1,0,0.1,0c0,0,0.1,0,0.2,0l0.3,0.3c0.2,0.3,0.4,0.5,0.9,1c1.6,1.7,1.8,1.9,2.8,2.9v-0.3
				c0-2.1,0-2.8-0.1-3.9c0.1,0,0.2,0,0.3,0c0.1,0,0.2,0,0.3,0C34,74.1,34,75.3,34,76.4c0,0.6,0,1.6,0,2.2c-0.1,0-0.1,0-0.2,0
				c0,0-0.1,0-0.1,0c-0.3-0.3-1.5-1.7-2-2.2c-0.1-0.1-0.3-0.3-0.4-0.4l-1.6-1.6V74.9z"/>
			<path fill="#231F20" d="M38.3,76.9c0,0.8,0,1.1,0.1,1.6c-0.1,0-0.3-0.1-0.5-0.1c-0.2,0-0.3,0-0.4,0.1c0.1-0.8,0.1-1.7,0.1-2.7
				c0-0.8,0-2.1-0.1-2.8c0.5,0,0.7,0,1.3,0c1.1,0,1.4,0,1.7,0c0,0.1,0,0.2,0,0.3c0,0.1,0,0.2,0,0.3c-0.3,0-0.9-0.1-1.6-0.1
				c-0.2,0-0.3,0-0.5,0c0,0.3,0,0.5,0,0.9c0,0.5,0,0.6,0,1c0.7,0,1.4,0,2-0.1c0,0.1,0,0.2,0,0.3c0,0.1,0,0.2,0,0.3
				c-0.5-0.1-1-0.1-1.3-0.1c-0.2,0-0.4,0-0.6,0L38.3,76.9z"/>
			<path fill="#231F20" d="M43.7,73c0.1,0,0.2,0,0.4,0c0.2,0,0.3,0,0.5,0c0,1-0.1,1.9-0.1,2.9c0,1.5,0,2.1,0.1,2.7
				c-0.2,0-0.3-0.1-0.5-0.1c-0.2,0-0.3,0-0.4,0.1c0.1-0.9,0.1-1.3,0.1-2.9C43.7,74.5,43.7,74.5,43.7,73z"/>
			<path fill="#231F20" d="M48.6,74.9c0,2,0.1,2.4,0.1,3.7c-0.1,0-0.2-0.1-0.3-0.1c-0.1,0-0.2,0-0.3,0.1c0-0.4,0.1-1.8,0.1-2.6
				c0-0.3,0-1.7,0-2v-1c0,0,0.1,0,0.1,0c0,0,0.1,0,0.2,0l0.3,0.3c0.2,0.3,0.4,0.5,0.9,1c1.6,1.7,1.8,1.9,2.8,2.9v-0.3
				c0-2.1,0-2.8-0.1-3.9c0.1,0,0.2,0,0.3,0c0.1,0,0.2,0,0.3,0c-0.1,1.2-0.1,2.3-0.1,3.5c0,0.6,0,1.6,0,2.2c-0.1,0-0.1,0-0.2,0
				c0,0-0.1,0-0.1,0c-0.3-0.3-1.5-1.7-2-2.2c-0.1-0.1-0.3-0.3-0.4-0.4l-1.6-1.6V74.9z"/>
			<path fill="#231F20" d="M56.5,73c0.1,0,0.2,0,0.4,0c0.2,0,0.3,0,0.5,0c-0.1,1-0.1,1.9-0.1,2.9c0,1.5,0,2.1,0.1,2.7
				c-0.2,0-0.3-0.1-0.5-0.1c-0.2,0-0.3,0-0.4,0.1c0.1-0.9,0.1-1.3,0.1-2.9C56.6,74.5,56.6,74.5,56.5,73z"/>
			<path fill="#231F20" d="M62.1,73.4c-0.8,0-1.4,0-1.8,0.1c0-0.1,0-0.2,0-0.3c0-0.1,0-0.2,0-0.3c0.5,0,1.5,0,2.2,0
				c0.8,0,1.6,0,2.2,0c0,0.1,0,0.2,0,0.3c0,0.1,0,0.2,0,0.3c-0.3,0-0.8-0.1-1.7-0.1c0,0.6,0,1.1,0,1.7c0,1,0,2.2,0.1,3.5
				c-0.3,0-0.5-0.1-0.5-0.1c-0.2,0-0.3,0-0.4,0.1c0.1-0.9,0.1-2.1,0.1-3.2C62.1,74.7,62.1,74,62.1,73.4z"/>
			<path fill="#231F20" d="M70.1,75.4c0,0.1,0,0.2,0,0.3c0,0.1,0,0.2,0,0.2c-0.4-0.1-0.9-0.1-1.2-0.1c-0.2,0-0.5,0-0.7,0
				c0,0.3,0,0.7,0,1.1c0,0.4,0,1,0,1.3c0.5,0,1.2,0,2.1-0.1c0,0.1,0,0.2,0,0.3c0,0.1,0,0.2,0,0.3c-0.4-0.1-0.7-0.1-1.1-0.1
				c-0.6,0-1.3,0-1.9,0.1c0-0.6,0.1-1.1,0.1-2.9c0-0.8,0-1.9-0.1-2.7c0.6,0,1.1,0,1.7,0c0.4,0,0.8,0,1.2,0c0,0.1,0,0.2,0,0.3
				c0,0.1,0,0.2,0,0.3c-0.3-0.1-0.6-0.1-1.3-0.1c-0.3,0-0.4,0-0.8,0c0,0.3,0,0.4,0,0.9c0,0.5,0,0.6,0,1.1
				C68.8,75.4,69.5,75.4,70.1,75.4z"/>
			<path fill="#231F20" d="M80,74c-0.1-0.3-0.4-0.8-1.1-0.8c-0.9,0-1,0.6-1,0.9c0,0.6,0.5,0.9,0.9,1c0.9,0.3,1,0.4,1.3,0.6
				c0.4,0.3,0.5,0.7,0.5,1c0,0.8-0.6,1.8-2,1.8c-0.5,0-1.1-0.1-1.5-0.4c0.1-0.4,0.1-0.7,0.1-0.8h0.1c0.2,0.5,0.7,0.8,1.4,0.8
				c0.8,0,1.2-0.6,1.2-1.1c0-0.7-0.5-0.9-1-1.1c-0.9-0.4-1.1-0.4-1.3-0.6c-0.3-0.2-0.4-0.6-0.4-1c0-1,0.8-1.6,1.8-1.6
				c0.6,0,1.2,0.2,1.4,0.4c-0.1,0.1-0.2,0.4-0.2,0.7H80z"/>
			<path fill="#231F20" d="M86.6,75.8c-0.4,0.3-1.1,0.3-1.6,0.3c-0.1,0-0.3,0-0.4,0c0,1.1,0,1.7,0.1,2.5c-0.1,0-0.2-0.1-0.5-0.1
				c-0.2,0-0.3,0-0.4,0.1c0.1-1.1,0.1-2.3,0.1-3.4c0-1.2,0-1.6-0.1-2.2c0.3,0,0.7,0,1.3,0c0.6,0,1.1,0,1.5,0.2
				c0.5,0.2,0.7,0.7,0.7,1.2C87.3,75.1,86.9,75.5,86.6,75.8z M86.2,73.7c-0.3-0.3-0.7-0.4-1.1-0.4c-0.1,0-0.3,0-0.5,0
				c0,0.7,0,1.5,0,2.4c0.8,0,1.9,0,1.9-1.3C86.5,74.2,86.4,73.9,86.2,73.7z"/>
			<path fill="#231F20" d="M90.5,76.4c-0.2,0.4-0.5,1.1-0.8,2.1c-0.1,0-0.2-0.1-0.3-0.1c-0.1,0-0.2,0-0.4,0.1
				c0.7-1.6,1.9-4.2,2.5-5.7c0.1,0,0.1,0,0.2,0c0.1,0,0.1,0,0.2,0c0.6,1.7,2.4,5.6,2.4,5.7c-0.1,0-0.3-0.1-0.5-0.1
				c-0.2,0-0.4,0-0.5,0.1c-0.3-1-0.6-1.7-0.8-2.1H90.5z M91.5,74l-0.8,2h1.7L91.5,74z"/>
			<path fill="#231F20" d="M101.2,78.6c-0.2,0-0.3-0.1-0.5-0.1c-0.2,0-0.4,0-0.6,0.1c-0.8-1.2-1.4-2-2-2.7h-0.2c0,0.6,0,1.4,0.1,2.7
				c-0.1,0-0.3-0.1-0.5-0.1c-0.2,0-0.3,0-0.4,0.1c0-1,0.1-1.9,0.1-3.1c0-0.8,0-1.6,0-2.5c0.3,0,0.5,0,0.7,0c0.1,0,0.8,0,0.9,0
				c1,0,1.3,0.1,1.5,0.3c0.3,0.3,0.4,0.6,0.4,1c0,1.2-1.1,1.4-1.6,1.4c0.3,0.5,2,2.6,2.1,2.7V78.6z M98.5,73.3c-0.2,0-0.4,0-0.5,0
				c0,0.4,0,0.7,0,1.1c0,0.4,0,0.9,0,1.1c0.2,0,0.2,0,0.4,0c0.4,0,1.5-0.1,1.5-1.2C99.9,73.5,99.1,73.3,98.5,73.3z"/>
			<path fill="#231F20" d="M104,73c0.1,0,0.3,0,0.5,0c0.2,0,0.3,0,0.4,0c0,0.2,0,0.7-0.1,1c0,0.4,0,0.8,0,1.6
				c0.6-0.5,0.8-0.6,1.8-1.7c0.5-0.6,0.6-0.6,0.8-0.9c0.1,0,0.3,0,0.4,0c0.1,0,0.2,0,0.4,0l0,0c-0.3,0.2-2.3,2.2-2.6,2.4
				c0.6,0.7,1.6,1.8,2.2,2.5c0.1,0.1,0.3,0.3,0.4,0.4v0.2c-0.1,0-0.4-0.1-0.5-0.1c-0.1,0-0.4,0-0.6,0.1c-0.3-0.5-0.7-1-1.1-1.5
				c-0.6-0.7-0.8-0.9-1.1-1.3l0,0v0.5c0,1.2,0,1.4,0.1,2.2c-0.1,0-0.3-0.1-0.5-0.1c-0.2,0-0.3,0-0.5,0.1c0.1-1.4,0.1-1.6,0.1-2.7
				C104,74.1,104,73.8,104,73z"/>
			<path fill="#231F20" d="M112.5,78.1c0.4,0,1.1,0,1.5-0.1c0,0.1,0,0.2,0,0.3c0,0.1,0,0.2,0,0.3c-0.5,0-0.9-0.1-1.7-0.1
				c-0.7,0-0.9,0-1.3,0.1c0.1-1,0.1-1.9,0.1-2.9c0-1.1,0-2.3-0.1-2.6c0.1,0,0.2,0,0.4,0c0.2,0,0.4,0,0.5,0c-0.1,2.1-0.1,2.6-0.1,5.1
				C112.1,78.1,112.3,78.1,112.5,78.1z"/>
			<path fill="#231F20" d="M119.5,75.4c0,0.1,0,0.2,0,0.3c0,0.1,0,0.2,0,0.2c-0.4-0.1-0.9-0.1-1.3-0.1c-0.2,0-0.5,0-0.7,0
				c0,0.3,0,0.7,0,1.1c0,0.4,0,1,0,1.3c0.5,0,1.2,0,2.1-0.1c0,0.1,0,0.2,0,0.3c0,0.1,0,0.2,0,0.3c-0.4-0.1-0.7-0.1-1.1-0.1
				c-0.6,0-1.2,0-1.9,0.1c0-0.6,0.1-1.1,0.1-2.9c0-0.8,0-1.9-0.1-2.7c0.6,0,1.1,0,1.7,0c0.4,0,0.8,0,1.2,0c0,0.1,0,0.2,0,0.3
				c0,0.1,0,0.2,0,0.3c-0.3-0.1-0.6-0.1-1.3-0.1c-0.3,0-0.4,0-0.8,0c0,0.3,0,0.4,0,0.9c0,0.5,0,0.6,0,1.1
				C118.3,75.4,118.9,75.4,119.5,75.4z"/>
			<path fill="#231F20" d="M125.5,74c-0.1-0.3-0.4-0.8-1.1-0.8c-0.9,0-1,0.6-1,0.9c0,0.6,0.5,0.9,0.9,1c0.9,0.3,1,0.4,1.3,0.6
				c0.4,0.3,0.4,0.7,0.4,1c0,0.8-0.6,1.8-2,1.8c-0.5,0-1-0.1-1.5-0.4c0.1-0.4,0.1-0.7,0.1-0.8h0.1c0.2,0.5,0.7,0.8,1.4,0.8
				c0.8,0,1.2-0.6,1.2-1.1c0-0.7-0.5-0.9-1-1.1c-0.9-0.4-1.1-0.4-1.3-0.6c-0.3-0.2-0.4-0.6-0.4-1c0-1,0.8-1.6,1.8-1.6
				c0.6,0,1.2,0.2,1.4,0.4c-0.1,0.1-0.2,0.4-0.2,0.7H125.5z"/>
		</g>
	</g>
</g>
<g>
</g>
<g>
</g>
<g>
</g>
<g>
</g>
<g>
</g>
<g>
</g>
</svg>
